<?xml version="1.0" encoding="utf-8" standalone="no"?>
<!DOCTYPE svg PUBLIC "-//W3C//DTD SVG 1.1//EN"
  "http://www.w3.org/Graphics/SVG/1.1/DTD/svg11.dtd">
<svg xmlns:xlink="http://www.w3.org/1999/xlink" width="535.450875pt" height="315.097781pt" viewBox="0 0 535.450875 315.097781" xmlns="http://www.w3.org/2000/svg" version="1.1">
 <metadata>
  <rdf:RDF xmlns:dc="http://purl.org/dc/elements/1.1/" xmlns:cc="http://creativecommons.org/ns#" xmlns:rdf="http://www.w3.org/1999/02/22-rdf-syntax-ns#">
   <cc:Work>
    <dc:type rdf:resource="http://purl.org/dc/dcmitype/StillImage"/>
    <dc:date>2026-08-09T13:20:24.431629</dc:date>
    <dc:format>image/svg+xml</dc:format>
    <dc:creator>
     <cc:Agent>
      <dc:title>Matplotlib v3.8.0, https://matplotlib.org/</dc:title>
     </cc:Agent>
    </dc:creator>
   </cc:Work>
  </rdf:RDF>
 </metadata>
 <defs>
  <style type="text/css">*{stroke-linejoin: round; stroke-linecap: butt}</style>
 </defs>
 <g id="figure_1">
  <g id="patch_1">
   <path d="M 0 315.097781
L 535.450875 315.097781
L 535.450875 0
L 0 0
z
" style="fill: #ffffff"/>
  </g>
  <g id="axes_1">
   <g id="patch_2">
    <path d="M 71.223063 276.089812
L 481.353062 276.089812
L 481.353062 23.837812
L 71.223063 23.837812
z
" style="fill: #ffffff"/>
   </g>
   <g id="matplotlib.axis_1">
    <g id="xtick_1">
     <g id="line2d_1">
      <defs>
       <path id="m9aef65f9aa" d="M 0 0
L 0 3.5
" style="stroke: #000000; stroke-width: 0.8"/>
      </defs>
      <g>
       <use xlink:href="#m9aef65f9aa" x="71.223063" y="276.089812" style="stroke: #000000; stroke-width: 0.8"/>
      </g>
     </g>
     <g id="text_1">
      <!-- 1 -->
      <g transform="translate(67.88275 291.068172) scale(0.105 -0.105)">
       <defs>
        <path id="DejaVuSans-31" d="M 794 531
L 1825 531
L 1825 4091
L 703 3866
L 703 4441
L 1819 4666
L 2450 4666
L 2450 531
L 3481 531
L 3481 0
L 794 0
L 794 531
z
" transform="scale(0.015625)"/>
       </defs>
       <use xlink:href="#DejaVuSans-31"/>
      </g>
     </g>
    </g>
    <g id="xtick_2">
     <g id="line2d_2">
      <g>
       <use xlink:href="#m9aef65f9aa" x="116.793062" y="276.089812" style="stroke: #000000; stroke-width: 0.8"/>
      </g>
     </g>
     <g id="text_2">
      <!-- 8 -->
      <g transform="translate(113.45275 291.068172) scale(0.105 -0.105)">
       <defs>
        <path id="DejaVuSans-38" d="M 2034 2216
Q 1584 2216 1326 1975
Q 1069 1734 1069 1313
Q 1069 891 1326 650
Q 1584 409 2034 409
Q 2484 409 2743 651
Q 3003 894 3003 1313
Q 3003 1734 2745 1975
Q 2488 2216 2034 2216
z
M 1403 2484
Q 997 2584 770 2862
Q 544 3141 544 3541
Q 544 4100 942 4425
Q 1341 4750 2034 4750
Q 2731 4750 3128 4425
Q 3525 4100 3525 3541
Q 3525 3141 3298 2862
Q 3072 2584 2669 2484
Q 3125 2378 3379 2068
Q 3634 1759 3634 1313
Q 3634 634 3220 271
Q 2806 -91 2034 -91
Q 1263 -91 848 271
Q 434 634 434 1313
Q 434 1759 690 2068
Q 947 2378 1403 2484
z
M 1172 3481
Q 1172 3119 1398 2916
Q 1625 2713 2034 2713
Q 2441 2713 2670 2916
Q 2900 3119 2900 3481
Q 2900 3844 2670 4047
Q 2441 4250 2034 4250
Q 1625 4250 1398 4047
Q 1172 3844 1172 3481
z
" transform="scale(0.015625)"/>
       </defs>
       <use xlink:href="#DejaVuSans-38"/>
      </g>
     </g>
    </g>
    <g id="xtick_3">
     <g id="line2d_3">
      <g>
       <use xlink:href="#m9aef65f9aa" x="168.873063" y="276.089812" style="stroke: #000000; stroke-width: 0.8"/>
      </g>
     </g>
     <g id="text_3">
      <!-- 16 -->
      <g transform="translate(162.192438 291.068172) scale(0.105 -0.105)">
       <defs>
        <path id="DejaVuSans-36" d="M 2113 2584
Q 1688 2584 1439 2293
Q 1191 2003 1191 1497
Q 1191 994 1439 701
Q 1688 409 2113 409
Q 2538 409 2786 701
Q 3034 994 3034 1497
Q 3034 2003 2786 2293
Q 2538 2584 2113 2584
z
M 3366 4563
L 3366 3988
Q 3128 4100 2886 4159
Q 2644 4219 2406 4219
Q 1781 4219 1451 3797
Q 1122 3375 1075 2522
Q 1259 2794 1537 2939
Q 1816 3084 2150 3084
Q 2853 3084 3261 2657
Q 3669 2231 3669 1497
Q 3669 778 3244 343
Q 2819 -91 2113 -91
Q 1303 -91 875 529
Q 447 1150 447 2328
Q 447 3434 972 4092
Q 1497 4750 2381 4750
Q 2619 4750 2861 4703
Q 3103 4656 3366 4563
z
" transform="scale(0.015625)"/>
       </defs>
       <use xlink:href="#DejaVuSans-31"/>
       <use xlink:href="#DejaVuSans-36" x="63.623047"/>
      </g>
     </g>
    </g>
    <g id="xtick_4">
     <g id="line2d_4">
      <g>
       <use xlink:href="#m9aef65f9aa" x="273.033062" y="276.089812" style="stroke: #000000; stroke-width: 0.8"/>
      </g>
     </g>
     <g id="text_4">
      <!-- 32 -->
      <g transform="translate(266.352437 291.068172) scale(0.105 -0.105)">
       <defs>
        <path id="DejaVuSans-33" d="M 2597 2516
Q 3050 2419 3304 2112
Q 3559 1806 3559 1356
Q 3559 666 3084 287
Q 2609 -91 1734 -91
Q 1441 -91 1130 -33
Q 819 25 488 141
L 488 750
Q 750 597 1062 519
Q 1375 441 1716 441
Q 2309 441 2620 675
Q 2931 909 2931 1356
Q 2931 1769 2642 2001
Q 2353 2234 1838 2234
L 1294 2234
L 1294 2753
L 1863 2753
Q 2328 2753 2575 2939
Q 2822 3125 2822 3475
Q 2822 3834 2567 4026
Q 2313 4219 1838 4219
Q 1578 4219 1281 4162
Q 984 4106 628 3988
L 628 4550
Q 988 4650 1302 4700
Q 1616 4750 1894 4750
Q 2613 4750 3031 4423
Q 3450 4097 3450 3541
Q 3450 3153 3228 2886
Q 3006 2619 2597 2516
z
" transform="scale(0.015625)"/>
        <path id="DejaVuSans-32" d="M 1228 531
L 3431 531
L 3431 0
L 469 0
L 469 531
Q 828 903 1448 1529
Q 2069 2156 2228 2338
Q 2531 2678 2651 2914
Q 2772 3150 2772 3378
Q 2772 3750 2511 3984
Q 2250 4219 1831 4219
Q 1534 4219 1204 4116
Q 875 4013 500 3803
L 500 4441
Q 881 4594 1212 4672
Q 1544 4750 1819 4750
Q 2544 4750 2975 4387
Q 3406 4025 3406 3419
Q 3406 3131 3298 2873
Q 3191 2616 2906 2266
Q 2828 2175 2409 1742
Q 1991 1309 1228 531
z
" transform="scale(0.015625)"/>
       </defs>
       <use xlink:href="#DejaVuSans-33"/>
       <use xlink:href="#DejaVuSans-32" x="63.623047"/>
      </g>
     </g>
    </g>
    <g id="xtick_5">
     <g id="line2d_5">
      <g>
       <use xlink:href="#m9aef65f9aa" x="377.193062" y="276.089812" style="stroke: #000000; stroke-width: 0.8"/>
      </g>
     </g>
     <g id="text_5">
      <!-- 48 -->
      <g transform="translate(370.512437 291.068172) scale(0.105 -0.105)">
       <defs>
        <path id="DejaVuSans-34" d="M 2419 4116
L 825 1625
L 2419 1625
L 2419 4116
z
M 2253 4666
L 3047 4666
L 3047 1625
L 3713 1625
L 3713 1100
L 3047 1100
L 3047 0
L 2419 0
L 2419 1100
L 313 1100
L 313 1709
L 2253 4666
z
" transform="scale(0.015625)"/>
       </defs>
       <use xlink:href="#DejaVuSans-34"/>
       <use xlink:href="#DejaVuSans-38" x="63.623047"/>
      </g>
     </g>
    </g>
    <g id="xtick_6">
     <g id="line2d_6">
      <g>
       <use xlink:href="#m9aef65f9aa" x="481.353062" y="276.089812" style="stroke: #000000; stroke-width: 0.8"/>
      </g>
     </g>
     <g id="text_6">
      <!-- 64 -->
      <g transform="translate(474.672437 291.068172) scale(0.105 -0.105)">
       <use xlink:href="#DejaVuSans-36"/>
       <use xlink:href="#DejaVuSans-34" x="63.623047"/>
      </g>
     </g>
    </g>
    <g id="text_7">
     <!-- Training step (matched optimizer update) -->
     <g transform="translate(161.801266 305.610125) scale(0.11 -0.11)">
      <defs>
       <path id="DejaVuSans-54" d="M -19 4666
L 3928 4666
L 3928 4134
L 2272 4134
L 2272 0
L 1638 0
L 1638 4134
L -19 4134
L -19 4666
z
" transform="scale(0.015625)"/>
       <path id="DejaVuSans-72" d="M 2631 2963
Q 2534 3019 2420 3045
Q 2306 3072 2169 3072
Q 1681 3072 1420 2755
Q 1159 2438 1159 1844
L 1159 0
L 581 0
L 581 3500
L 1159 3500
L 1159 2956
Q 1341 3275 1631 3429
Q 1922 3584 2338 3584
Q 2397 3584 2469 3576
Q 2541 3569 2628 3553
L 2631 2963
z
" transform="scale(0.015625)"/>
       <path id="DejaVuSans-61" d="M 2194 1759
Q 1497 1759 1228 1600
Q 959 1441 959 1056
Q 959 750 1161 570
Q 1363 391 1709 391
Q 2188 391 2477 730
Q 2766 1069 2766 1631
L 2766 1759
L 2194 1759
z
M 3341 1997
L 3341 0
L 2766 0
L 2766 531
Q 2569 213 2275 61
Q 1981 -91 1556 -91
Q 1019 -91 701 211
Q 384 513 384 1019
Q 384 1609 779 1909
Q 1175 2209 1959 2209
L 2766 2209
L 2766 2266
Q 2766 2663 2505 2880
Q 2244 3097 1772 3097
Q 1472 3097 1187 3025
Q 903 2953 641 2809
L 641 3341
Q 956 3463 1253 3523
Q 1550 3584 1831 3584
Q 2591 3584 2966 3190
Q 3341 2797 3341 1997
z
" transform="scale(0.015625)"/>
       <path id="DejaVuSans-69" d="M 603 3500
L 1178 3500
L 1178 0
L 603 0
L 603 3500
z
M 603 4863
L 1178 4863
L 1178 4134
L 603 4134
L 603 4863
z
" transform="scale(0.015625)"/>
       <path id="DejaVuSans-6e" d="M 3513 2113
L 3513 0
L 2938 0
L 2938 2094
Q 2938 2591 2744 2837
Q 2550 3084 2163 3084
Q 1697 3084 1428 2787
Q 1159 2491 1159 1978
L 1159 0
L 581 0
L 581 3500
L 1159 3500
L 1159 2956
Q 1366 3272 1645 3428
Q 1925 3584 2291 3584
Q 2894 3584 3203 3211
Q 3513 2838 3513 2113
z
" transform="scale(0.015625)"/>
       <path id="DejaVuSans-67" d="M 2906 1791
Q 2906 2416 2648 2759
Q 2391 3103 1925 3103
Q 1463 3103 1205 2759
Q 947 2416 947 1791
Q 947 1169 1205 825
Q 1463 481 1925 481
Q 2391 481 2648 825
Q 2906 1169 2906 1791
z
M 3481 434
Q 3481 -459 3084 -895
Q 2688 -1331 1869 -1331
Q 1566 -1331 1297 -1286
Q 1028 -1241 775 -1147
L 775 -588
Q 1028 -725 1275 -790
Q 1522 -856 1778 -856
Q 2344 -856 2625 -561
Q 2906 -266 2906 331
L 2906 616
Q 2728 306 2450 153
Q 2172 0 1784 0
Q 1141 0 747 490
Q 353 981 353 1791
Q 353 2603 747 3093
Q 1141 3584 1784 3584
Q 2172 3584 2450 3431
Q 2728 3278 2906 2969
L 2906 3500
L 3481 3500
L 3481 434
z
" transform="scale(0.015625)"/>
       <path id="DejaVuSans-20" transform="scale(0.015625)"/>
       <path id="DejaVuSans-73" d="M 2834 3397
L 2834 2853
Q 2591 2978 2328 3040
Q 2066 3103 1784 3103
Q 1356 3103 1142 2972
Q 928 2841 928 2578
Q 928 2378 1081 2264
Q 1234 2150 1697 2047
L 1894 2003
Q 2506 1872 2764 1633
Q 3022 1394 3022 966
Q 3022 478 2636 193
Q 2250 -91 1575 -91
Q 1294 -91 989 -36
Q 684 19 347 128
L 347 722
Q 666 556 975 473
Q 1284 391 1588 391
Q 1994 391 2212 530
Q 2431 669 2431 922
Q 2431 1156 2273 1281
Q 2116 1406 1581 1522
L 1381 1569
Q 847 1681 609 1914
Q 372 2147 372 2553
Q 372 3047 722 3315
Q 1072 3584 1716 3584
Q 2034 3584 2315 3537
Q 2597 3491 2834 3397
z
" transform="scale(0.015625)"/>
       <path id="DejaVuSans-74" d="M 1172 4494
L 1172 3500
L 2356 3500
L 2356 3053
L 1172 3053
L 1172 1153
Q 1172 725 1289 603
Q 1406 481 1766 481
L 2356 481
L 2356 0
L 1766 0
Q 1100 0 847 248
Q 594 497 594 1153
L 594 3053
L 172 3053
L 172 3500
L 594 3500
L 594 4494
L 1172 4494
z
" transform="scale(0.015625)"/>
       <path id="DejaVuSans-65" d="M 3597 1894
L 3597 1613
L 953 1613
Q 991 1019 1311 708
Q 1631 397 2203 397
Q 2534 397 2845 478
Q 3156 559 3463 722
L 3463 178
Q 3153 47 2828 -22
Q 2503 -91 2169 -91
Q 1331 -91 842 396
Q 353 884 353 1716
Q 353 2575 817 3079
Q 1281 3584 2069 3584
Q 2775 3584 3186 3129
Q 3597 2675 3597 1894
z
M 3022 2063
Q 3016 2534 2758 2815
Q 2500 3097 2075 3097
Q 1594 3097 1305 2825
Q 1016 2553 972 2059
L 3022 2063
z
" transform="scale(0.015625)"/>
       <path id="DejaVuSans-70" d="M 1159 525
L 1159 -1331
L 581 -1331
L 581 3500
L 1159 3500
L 1159 2969
Q 1341 3281 1617 3432
Q 1894 3584 2278 3584
Q 2916 3584 3314 3078
Q 3713 2572 3713 1747
Q 3713 922 3314 415
Q 2916 -91 2278 -91
Q 1894 -91 1617 61
Q 1341 213 1159 525
z
M 3116 1747
Q 3116 2381 2855 2742
Q 2594 3103 2138 3103
Q 1681 3103 1420 2742
Q 1159 2381 1159 1747
Q 1159 1113 1420 752
Q 1681 391 2138 391
Q 2594 391 2855 752
Q 3116 1113 3116 1747
z
" transform="scale(0.015625)"/>
       <path id="DejaVuSans-28" d="M 1984 4856
Q 1566 4138 1362 3434
Q 1159 2731 1159 2009
Q 1159 1288 1364 580
Q 1569 -128 1984 -844
L 1484 -844
Q 1016 -109 783 600
Q 550 1309 550 2009
Q 550 2706 781 3412
Q 1013 4119 1484 4856
L 1984 4856
z
" transform="scale(0.015625)"/>
       <path id="DejaVuSans-6d" d="M 3328 2828
Q 3544 3216 3844 3400
Q 4144 3584 4550 3584
Q 5097 3584 5394 3201
Q 5691 2819 5691 2113
L 5691 0
L 5113 0
L 5113 2094
Q 5113 2597 4934 2840
Q 4756 3084 4391 3084
Q 3944 3084 3684 2787
Q 3425 2491 3425 1978
L 3425 0
L 2847 0
L 2847 2094
Q 2847 2600 2669 2842
Q 2491 3084 2119 3084
Q 1678 3084 1418 2786
Q 1159 2488 1159 1978
L 1159 0
L 581 0
L 581 3500
L 1159 3500
L 1159 2956
Q 1356 3278 1631 3431
Q 1906 3584 2284 3584
Q 2666 3584 2933 3390
Q 3200 3197 3328 2828
z
" transform="scale(0.015625)"/>
       <path id="DejaVuSans-63" d="M 3122 3366
L 3122 2828
Q 2878 2963 2633 3030
Q 2388 3097 2138 3097
Q 1578 3097 1268 2742
Q 959 2388 959 1747
Q 959 1106 1268 751
Q 1578 397 2138 397
Q 2388 397 2633 464
Q 2878 531 3122 666
L 3122 134
Q 2881 22 2623 -34
Q 2366 -91 2075 -91
Q 1284 -91 818 406
Q 353 903 353 1747
Q 353 2603 823 3093
Q 1294 3584 2113 3584
Q 2378 3584 2631 3529
Q 2884 3475 3122 3366
z
" transform="scale(0.015625)"/>
       <path id="DejaVuSans-68" d="M 3513 2113
L 3513 0
L 2938 0
L 2938 2094
Q 2938 2591 2744 2837
Q 2550 3084 2163 3084
Q 1697 3084 1428 2787
Q 1159 2491 1159 1978
L 1159 0
L 581 0
L 581 4863
L 1159 4863
L 1159 2956
Q 1366 3272 1645 3428
Q 1925 3584 2291 3584
Q 2894 3584 3203 3211
Q 3513 2838 3513 2113
z
" transform="scale(0.015625)"/>
       <path id="DejaVuSans-64" d="M 2906 2969
L 2906 4863
L 3481 4863
L 3481 0
L 2906 0
L 2906 525
Q 2725 213 2448 61
Q 2172 -91 1784 -91
Q 1150 -91 751 415
Q 353 922 353 1747
Q 353 2572 751 3078
Q 1150 3584 1784 3584
Q 2172 3584 2448 3432
Q 2725 3281 2906 2969
z
M 947 1747
Q 947 1113 1208 752
Q 1469 391 1925 391
Q 2381 391 2643 752
Q 2906 1113 2906 1747
Q 2906 2381 2643 2742
Q 2381 3103 1925 3103
Q 1469 3103 1208 2742
Q 947 2381 947 1747
z
" transform="scale(0.015625)"/>
       <path id="DejaVuSans-6f" d="M 1959 3097
Q 1497 3097 1228 2736
Q 959 2375 959 1747
Q 959 1119 1226 758
Q 1494 397 1959 397
Q 2419 397 2687 759
Q 2956 1122 2956 1747
Q 2956 2369 2687 2733
Q 2419 3097 1959 3097
z
M 1959 3584
Q 2709 3584 3137 3096
Q 3566 2609 3566 1747
Q 3566 888 3137 398
Q 2709 -91 1959 -91
Q 1206 -91 779 398
Q 353 888 353 1747
Q 353 2609 779 3096
Q 1206 3584 1959 3584
z
" transform="scale(0.015625)"/>
       <path id="DejaVuSans-7a" d="M 353 3500
L 3084 3500
L 3084 2975
L 922 459
L 3084 459
L 3084 0
L 275 0
L 275 525
L 2438 3041
L 353 3041
L 353 3500
z
" transform="scale(0.015625)"/>
       <path id="DejaVuSans-75" d="M 544 1381
L 544 3500
L 1119 3500
L 1119 1403
Q 1119 906 1312 657
Q 1506 409 1894 409
Q 2359 409 2629 706
Q 2900 1003 2900 1516
L 2900 3500
L 3475 3500
L 3475 0
L 2900 0
L 2900 538
Q 2691 219 2414 64
Q 2138 -91 1772 -91
Q 1169 -91 856 284
Q 544 659 544 1381
z
M 1991 3584
L 1991 3584
z
" transform="scale(0.015625)"/>
       <path id="DejaVuSans-29" d="M 513 4856
L 1013 4856
Q 1481 4119 1714 3412
Q 1947 2706 1947 2009
Q 1947 1309 1714 600
Q 1481 -109 1013 -844
L 513 -844
Q 928 -128 1133 580
Q 1338 1288 1338 2009
Q 1338 2731 1133 3434
Q 928 4138 513 4856
z
" transform="scale(0.015625)"/>
      </defs>
      <use xlink:href="#DejaVuSans-54"/>
      <use xlink:href="#DejaVuSans-72" x="46.333984"/>
      <use xlink:href="#DejaVuSans-61" x="87.447266"/>
      <use xlink:href="#DejaVuSans-69" x="148.726562"/>
      <use xlink:href="#DejaVuSans-6e" x="176.509766"/>
      <use xlink:href="#DejaVuSans-69" x="239.888672"/>
      <use xlink:href="#DejaVuSans-6e" x="267.671875"/>
      <use xlink:href="#DejaVuSans-67" x="331.050781"/>
      <use xlink:href="#DejaVuSans-20" x="394.527344"/>
      <use xlink:href="#DejaVuSans-73" x="426.314453"/>
      <use xlink:href="#DejaVuSans-74" x="478.414062"/>
      <use xlink:href="#DejaVuSans-65" x="517.623047"/>
      <use xlink:href="#DejaVuSans-70" x="579.146484"/>
      <use xlink:href="#DejaVuSans-20" x="642.623047"/>
      <use xlink:href="#DejaVuSans-28" x="674.410156"/>
      <use xlink:href="#DejaVuSans-6d" x="713.423828"/>
      <use xlink:href="#DejaVuSans-61" x="810.835938"/>
      <use xlink:href="#DejaVuSans-74" x="872.115234"/>
      <use xlink:href="#DejaVuSans-63" x="911.324219"/>
      <use xlink:href="#DejaVuSans-68" x="966.304688"/>
      <use xlink:href="#DejaVuSans-65" x="1029.683594"/>
      <use xlink:href="#DejaVuSans-64" x="1091.207031"/>
      <use xlink:href="#DejaVuSans-20" x="1154.683594"/>
      <use xlink:href="#DejaVuSans-6f" x="1186.470703"/>
      <use xlink:href="#DejaVuSans-70" x="1247.652344"/>
      <use xlink:href="#DejaVuSans-74" x="1311.128906"/>
      <use xlink:href="#DejaVuSans-69" x="1350.337891"/>
      <use xlink:href="#DejaVuSans-6d" x="1378.121094"/>
      <use xlink:href="#DejaVuSans-69" x="1475.533203"/>
      <use xlink:href="#DejaVuSans-7a" x="1503.316406"/>
      <use xlink:href="#DejaVuSans-65" x="1555.806641"/>
      <use xlink:href="#DejaVuSans-72" x="1617.330078"/>
      <use xlink:href="#DejaVuSans-20" x="1658.443359"/>
      <use xlink:href="#DejaVuSans-75" x="1690.230469"/>
      <use xlink:href="#DejaVuSans-70" x="1753.609375"/>
      <use xlink:href="#DejaVuSans-64" x="1817.085938"/>
      <use xlink:href="#DejaVuSans-61" x="1880.5625"/>
      <use xlink:href="#DejaVuSans-74" x="1941.841797"/>
      <use xlink:href="#DejaVuSans-65" x="1981.050781"/>
      <use xlink:href="#DejaVuSans-29" x="2042.574219"/>
     </g>
    </g>
   </g>
   <g id="matplotlib.axis_2">
    <g id="ytick_1">
     <g id="line2d_7">
      <path d="M 71.223063 247.785005
L 481.353062 247.785005
" clip-path="url(#p36c71b915c)" style="fill: none; stroke: #b0b0b0; stroke-opacity: 0.2; stroke-width: 0.8; stroke-linecap: square"/>
     </g>
     <g id="line2d_8">
      <defs>
       <path id="m9f77d68ab3" d="M 0 0
L -3.5 0
" style="stroke: #000000; stroke-width: 0.8"/>
      </defs>
      <g>
       <use xlink:href="#m9f77d68ab3" x="71.223063" y="247.785005" style="stroke: #000000; stroke-width: 0.8"/>
      </g>
     </g>
     <g id="text_8">
      <!-- 0.050 -->
      <g transform="translate(34.163531 251.774185) scale(0.105 -0.105)">
       <defs>
        <path id="DejaVuSans-30" d="M 2034 4250
Q 1547 4250 1301 3770
Q 1056 3291 1056 2328
Q 1056 1369 1301 889
Q 1547 409 2034 409
Q 2525 409 2770 889
Q 3016 1369 3016 2328
Q 3016 3291 2770 3770
Q 2525 4250 2034 4250
z
M 2034 4750
Q 2819 4750 3233 4129
Q 3647 3509 3647 2328
Q 3647 1150 3233 529
Q 2819 -91 2034 -91
Q 1250 -91 836 529
Q 422 1150 422 2328
Q 422 3509 836 4129
Q 1250 4750 2034 4750
z
" transform="scale(0.015625)"/>
        <path id="DejaVuSans-2e" d="M 684 794
L 1344 794
L 1344 0
L 684 0
L 684 794
z
" transform="scale(0.015625)"/>
        <path id="DejaVuSans-35" d="M 691 4666
L 3169 4666
L 3169 4134
L 1269 4134
L 1269 2991
Q 1406 3038 1543 3061
Q 1681 3084 1819 3084
Q 2600 3084 3056 2656
Q 3513 2228 3513 1497
Q 3513 744 3044 326
Q 2575 -91 1722 -91
Q 1428 -91 1123 -41
Q 819 9 494 109
L 494 744
Q 775 591 1075 516
Q 1375 441 1709 441
Q 2250 441 2565 725
Q 2881 1009 2881 1497
Q 2881 1984 2565 2268
Q 2250 2553 1709 2553
Q 1456 2553 1204 2497
Q 953 2441 691 2322
L 691 4666
z
" transform="scale(0.015625)"/>
       </defs>
       <use xlink:href="#DejaVuSans-30"/>
       <use xlink:href="#DejaVuSans-2e" x="63.623047"/>
       <use xlink:href="#DejaVuSans-30" x="95.410156"/>
       <use xlink:href="#DejaVuSans-35" x="159.033203"/>
       <use xlink:href="#DejaVuSans-30" x="222.65625"/>
      </g>
     </g>
    </g>
    <g id="ytick_2">
     <g id="line2d_9">
      <path d="M 71.223063 216.637531
L 481.353062 216.637531
" clip-path="url(#p36c71b915c)" style="fill: none; stroke: #b0b0b0; stroke-opacity: 0.2; stroke-width: 0.8; stroke-linecap: square"/>
     </g>
     <g id="line2d_10">
      <g>
       <use xlink:href="#m9f77d68ab3" x="71.223063" y="216.637531" style="stroke: #000000; stroke-width: 0.8"/>
      </g>
     </g>
     <g id="text_9">
      <!-- 0.075 -->
      <g transform="translate(34.163531 220.626711) scale(0.105 -0.105)">
       <defs>
        <path id="DejaVuSans-37" d="M 525 4666
L 3525 4666
L 3525 4397
L 1831 0
L 1172 0
L 2766 4134
L 525 4134
L 525 4666
z
" transform="scale(0.015625)"/>
       </defs>
       <use xlink:href="#DejaVuSans-30"/>
       <use xlink:href="#DejaVuSans-2e" x="63.623047"/>
       <use xlink:href="#DejaVuSans-30" x="95.410156"/>
       <use xlink:href="#DejaVuSans-37" x="159.033203"/>
       <use xlink:href="#DejaVuSans-35" x="222.65625"/>
      </g>
     </g>
    </g>
    <g id="ytick_3">
     <g id="line2d_11">
      <path d="M 71.223063 185.490057
L 481.353062 185.490057
" clip-path="url(#p36c71b915c)" style="fill: none; stroke: #b0b0b0; stroke-opacity: 0.2; stroke-width: 0.8; stroke-linecap: square"/>
     </g>
     <g id="line2d_12">
      <g>
       <use xlink:href="#m9f77d68ab3" x="71.223063" y="185.490057" style="stroke: #000000; stroke-width: 0.8"/>
      </g>
     </g>
     <g id="text_10">
      <!-- 0.100 -->
      <g transform="translate(34.163531 189.479237) scale(0.105 -0.105)">
       <use xlink:href="#DejaVuSans-30"/>
       <use xlink:href="#DejaVuSans-2e" x="63.623047"/>
       <use xlink:href="#DejaVuSans-31" x="95.410156"/>
       <use xlink:href="#DejaVuSans-30" x="159.033203"/>
       <use xlink:href="#DejaVuSans-30" x="222.65625"/>
      </g>
     </g>
    </g>
    <g id="ytick_4">
     <g id="line2d_13">
      <path d="M 71.223063 154.342583
L 481.353062 154.342583
" clip-path="url(#p36c71b915c)" style="fill: none; stroke: #b0b0b0; stroke-opacity: 0.2; stroke-width: 0.8; stroke-linecap: square"/>
     </g>
     <g id="line2d_14">
      <g>
       <use xlink:href="#m9f77d68ab3" x="71.223063" y="154.342583" style="stroke: #000000; stroke-width: 0.8"/>
      </g>
     </g>
     <g id="text_11">
      <!-- 0.125 -->
      <g transform="translate(34.163531 158.331763) scale(0.105 -0.105)">
       <use xlink:href="#DejaVuSans-30"/>
       <use xlink:href="#DejaVuSans-2e" x="63.623047"/>
       <use xlink:href="#DejaVuSans-31" x="95.410156"/>
       <use xlink:href="#DejaVuSans-32" x="159.033203"/>
       <use xlink:href="#DejaVuSans-35" x="222.65625"/>
      </g>
     </g>
    </g>
    <g id="ytick_5">
     <g id="line2d_15">
      <path d="M 71.223063 123.195109
L 481.353062 123.195109
" clip-path="url(#p36c71b915c)" style="fill: none; stroke: #b0b0b0; stroke-opacity: 0.2; stroke-width: 0.8; stroke-linecap: square"/>
     </g>
     <g id="line2d_16">
      <g>
       <use xlink:href="#m9f77d68ab3" x="71.223063" y="123.195109" style="stroke: #000000; stroke-width: 0.8"/>
      </g>
     </g>
     <g id="text_12">
      <!-- 0.150 -->
      <g transform="translate(34.163531 127.184289) scale(0.105 -0.105)">
       <use xlink:href="#DejaVuSans-30"/>
       <use xlink:href="#DejaVuSans-2e" x="63.623047"/>
       <use xlink:href="#DejaVuSans-31" x="95.410156"/>
       <use xlink:href="#DejaVuSans-35" x="159.033203"/>
       <use xlink:href="#DejaVuSans-30" x="222.65625"/>
      </g>
     </g>
    </g>
    <g id="ytick_6">
     <g id="line2d_17">
      <path d="M 71.223063 92.047635
L 481.353062 92.047635
" clip-path="url(#p36c71b915c)" style="fill: none; stroke: #b0b0b0; stroke-opacity: 0.2; stroke-width: 0.8; stroke-linecap: square"/>
     </g>
     <g id="line2d_18">
      <g>
       <use xlink:href="#m9f77d68ab3" x="71.223063" y="92.047635" style="stroke: #000000; stroke-width: 0.8"/>
      </g>
     </g>
     <g id="text_13">
      <!-- 0.175 -->
      <g transform="translate(34.163531 96.036815) scale(0.105 -0.105)">
       <use xlink:href="#DejaVuSans-30"/>
       <use xlink:href="#DejaVuSans-2e" x="63.623047"/>
       <use xlink:href="#DejaVuSans-31" x="95.410156"/>
       <use xlink:href="#DejaVuSans-37" x="159.033203"/>
       <use xlink:href="#DejaVuSans-35" x="222.65625"/>
      </g>
     </g>
    </g>
    <g id="ytick_7">
     <g id="line2d_19">
      <path d="M 71.223063 60.900161
L 481.353062 60.900161
" clip-path="url(#p36c71b915c)" style="fill: none; stroke: #b0b0b0; stroke-opacity: 0.2; stroke-width: 0.8; stroke-linecap: square"/>
     </g>
     <g id="line2d_20">
      <g>
       <use xlink:href="#m9f77d68ab3" x="71.223063" y="60.900161" style="stroke: #000000; stroke-width: 0.8"/>
      </g>
     </g>
     <g id="text_14">
      <!-- 0.200 -->
      <g transform="translate(34.163531 64.889341) scale(0.105 -0.105)">
       <use xlink:href="#DejaVuSans-30"/>
       <use xlink:href="#DejaVuSans-2e" x="63.623047"/>
       <use xlink:href="#DejaVuSans-32" x="95.410156"/>
       <use xlink:href="#DejaVuSans-30" x="159.033203"/>
       <use xlink:href="#DejaVuSans-30" x="222.65625"/>
      </g>
     </g>
    </g>
    <g id="ytick_8">
     <g id="line2d_21">
      <path d="M 71.223063 29.752687
L 481.353062 29.752687
" clip-path="url(#p36c71b915c)" style="fill: none; stroke: #b0b0b0; stroke-opacity: 0.2; stroke-width: 0.8; stroke-linecap: square"/>
     </g>
     <g id="line2d_22">
      <g>
       <use xlink:href="#m9f77d68ab3" x="71.223063" y="29.752687" style="stroke: #000000; stroke-width: 0.8"/>
      </g>
     </g>
     <g id="text_15">
      <!-- 0.225 -->
      <g transform="translate(34.163531 33.741867) scale(0.105 -0.105)">
       <use xlink:href="#DejaVuSans-30"/>
       <use xlink:href="#DejaVuSans-2e" x="63.623047"/>
       <use xlink:href="#DejaVuSans-32" x="95.410156"/>
       <use xlink:href="#DejaVuSans-32" x="159.033203"/>
       <use xlink:href="#DejaVuSans-35" x="222.65625"/>
      </g>
     </g>
    </g>
    <g id="text_16">
     <!-- Vocabulary style drift ↓ -->
     <g transform="translate(15.558281 214.770141) rotate(-90) scale(0.11 -0.11)">
      <defs>
       <path id="DejaVuSans-56" d="M 1831 0
L 50 4666
L 709 4666
L 2188 738
L 3669 4666
L 4325 4666
L 2547 0
L 1831 0
z
" transform="scale(0.015625)"/>
       <path id="DejaVuSans-62" d="M 3116 1747
Q 3116 2381 2855 2742
Q 2594 3103 2138 3103
Q 1681 3103 1420 2742
Q 1159 2381 1159 1747
Q 1159 1113 1420 752
Q 1681 391 2138 391
Q 2594 391 2855 752
Q 3116 1113 3116 1747
z
M 1159 2969
Q 1341 3281 1617 3432
Q 1894 3584 2278 3584
Q 2916 3584 3314 3078
Q 3713 2572 3713 1747
Q 3713 922 3314 415
Q 2916 -91 2278 -91
Q 1894 -91 1617 61
Q 1341 213 1159 525
L 1159 0
L 581 0
L 581 4863
L 1159 4863
L 1159 2969
z
" transform="scale(0.015625)"/>
       <path id="DejaVuSans-6c" d="M 603 4863
L 1178 4863
L 1178 0
L 603 0
L 603 4863
z
" transform="scale(0.015625)"/>
       <path id="DejaVuSans-79" d="M 2059 -325
Q 1816 -950 1584 -1140
Q 1353 -1331 966 -1331
L 506 -1331
L 506 -850
L 844 -850
Q 1081 -850 1212 -737
Q 1344 -625 1503 -206
L 1606 56
L 191 3500
L 800 3500
L 1894 763
L 2988 3500
L 3597 3500
L 2059 -325
z
" transform="scale(0.015625)"/>
       <path id="DejaVuSans-66" d="M 2375 4863
L 2375 4384
L 1825 4384
Q 1516 4384 1395 4259
Q 1275 4134 1275 3809
L 1275 3500
L 2222 3500
L 2222 3053
L 1275 3053
L 1275 0
L 697 0
L 697 3053
L 147 3053
L 147 3500
L 697 3500
L 697 3744
Q 697 4328 969 4595
Q 1241 4863 1831 4863
L 2375 4863
z
" transform="scale(0.015625)"/>
       <path id="DejaVuSans-2193" d="M 2822 -22
L 2541 -22
L 1309 1209
L 1684 1584
L 2416 853
L 2416 4666
L 2947 4666
L 2947 853
L 3672 1584
L 4047 1209
L 2822 -22
z
" transform="scale(0.015625)"/>
      </defs>
      <use xlink:href="#DejaVuSans-56"/>
      <use xlink:href="#DejaVuSans-6f" x="60.658203"/>
      <use xlink:href="#DejaVuSans-63" x="121.839844"/>
      <use xlink:href="#DejaVuSans-61" x="176.820312"/>
      <use xlink:href="#DejaVuSans-62" x="238.099609"/>
      <use xlink:href="#DejaVuSans-75" x="301.576172"/>
      <use xlink:href="#DejaVuSans-6c" x="364.955078"/>
      <use xlink:href="#DejaVuSans-61" x="392.738281"/>
      <use xlink:href="#DejaVuSans-72" x="454.017578"/>
      <use xlink:href="#DejaVuSans-79" x="495.130859"/>
      <use xlink:href="#DejaVuSans-20" x="554.310547"/>
      <use xlink:href="#DejaVuSans-73" x="586.097656"/>
      <use xlink:href="#DejaVuSans-74" x="638.197266"/>
      <use xlink:href="#DejaVuSans-79" x="677.40625"/>
      <use xlink:href="#DejaVuSans-6c" x="736.585938"/>
      <use xlink:href="#DejaVuSans-65" x="764.369141"/>
      <use xlink:href="#DejaVuSans-20" x="825.892578"/>
      <use xlink:href="#DejaVuSans-64" x="857.679688"/>
      <use xlink:href="#DejaVuSans-72" x="921.15625"/>
      <use xlink:href="#DejaVuSans-69" x="962.269531"/>
      <use xlink:href="#DejaVuSans-66" x="990.052734"/>
      <use xlink:href="#DejaVuSans-74" x="1023.507812"/>
      <use xlink:href="#DejaVuSans-20" x="1062.716797"/>
      <use xlink:href="#DejaVuSans-2193" x="1094.503906"/>
     </g>
     <!-- (absolute log-probability error/token) -->
     <g transform="translate(27.875875 251.652797) rotate(-90) scale(0.11 -0.11)">
      <defs>
       <path id="DejaVuSans-2d" d="M 313 2009
L 1997 2009
L 1997 1497
L 313 1497
L 313 2009
z
" transform="scale(0.015625)"/>
       <path id="DejaVuSans-2f" d="M 1625 4666
L 2156 4666
L 531 -594
L 0 -594
L 1625 4666
z
" transform="scale(0.015625)"/>
       <path id="DejaVuSans-6b" d="M 581 4863
L 1159 4863
L 1159 1991
L 2875 3500
L 3609 3500
L 1753 1863
L 3688 0
L 2938 0
L 1159 1709
L 1159 0
L 581 0
L 581 4863
z
" transform="scale(0.015625)"/>
      </defs>
      <use xlink:href="#DejaVuSans-28"/>
      <use xlink:href="#DejaVuSans-61" x="39.013672"/>
      <use xlink:href="#DejaVuSans-62" x="100.292969"/>
      <use xlink:href="#DejaVuSans-73" x="163.769531"/>
      <use xlink:href="#DejaVuSans-6f" x="215.869141"/>
      <use xlink:href="#DejaVuSans-6c" x="277.050781"/>
      <use xlink:href="#DejaVuSans-75" x="304.833984"/>
      <use xlink:href="#DejaVuSans-74" x="368.212891"/>
      <use xlink:href="#DejaVuSans-65" x="407.421875"/>
      <use xlink:href="#DejaVuSans-20" x="468.945312"/>
      <use xlink:href="#DejaVuSans-6c" x="500.732422"/>
      <use xlink:href="#DejaVuSans-6f" x="528.515625"/>
      <use xlink:href="#DejaVuSans-67" x="589.697266"/>
      <use xlink:href="#DejaVuSans-2d" x="653.173828"/>
      <use xlink:href="#DejaVuSans-70" x="689.257812"/>
      <use xlink:href="#DejaVuSans-72" x="752.734375"/>
      <use xlink:href="#DejaVuSans-6f" x="791.597656"/>
      <use xlink:href="#DejaVuSans-62" x="852.779297"/>
      <use xlink:href="#DejaVuSans-61" x="916.255859"/>
      <use xlink:href="#DejaVuSans-62" x="977.535156"/>
      <use xlink:href="#DejaVuSans-69" x="1041.011719"/>
      <use xlink:href="#DejaVuSans-6c" x="1068.794922"/>
      <use xlink:href="#DejaVuSans-69" x="1096.578125"/>
      <use xlink:href="#DejaVuSans-74" x="1124.361328"/>
      <use xlink:href="#DejaVuSans-79" x="1163.570312"/>
      <use xlink:href="#DejaVuSans-20" x="1222.75"/>
      <use xlink:href="#DejaVuSans-65" x="1254.537109"/>
      <use xlink:href="#DejaVuSans-72" x="1316.060547"/>
      <use xlink:href="#DejaVuSans-72" x="1355.423828"/>
      <use xlink:href="#DejaVuSans-6f" x="1394.287109"/>
      <use xlink:href="#DejaVuSans-72" x="1455.46875"/>
      <use xlink:href="#DejaVuSans-2f" x="1496.582031"/>
      <use xlink:href="#DejaVuSans-74" x="1530.273438"/>
      <use xlink:href="#DejaVuSans-6f" x="1569.482422"/>
      <use xlink:href="#DejaVuSans-6b" x="1630.664062"/>
      <use xlink:href="#DejaVuSans-65" x="1684.949219"/>
      <use xlink:href="#DejaVuSans-6e" x="1746.472656"/>
      <use xlink:href="#DejaVuSans-29" x="1809.851562"/>
     </g>
    </g>
   </g>
   <g id="PathCollection_1">
    <defs>
     <path id="C0_0_7a36dba6df" d="M 0 1.732051
C 0.459345 1.732051 0.899939 1.549551 1.224745 1.224745
C 1.549551 0.899939 1.732051 0.459345 1.732051 -0
C 1.732051 -0.459345 1.549551 -0.899939 1.224745 -1.224745
C 0.899939 -1.549551 0.459345 -1.732051 0 -1.732051
C -0.459345 -1.732051 -0.899939 -1.549551 -1.224745 -1.224745
C -1.549551 -0.899939 -1.732051 -0.459345 -1.732051 0
C -1.732051 0.459345 -1.549551 0.899939 -1.224745 1.224745
C -0.899939 1.549551 -0.459345 1.732051 0 1.732051
z
"/>
    </defs>
    <g clip-path="url(#p36c71b915c)">
     <use xlink:href="#C0_0_7a36dba6df" x="71.223063" y="57.90898" style="fill: #2878b5; fill-opacity: 0.13"/>
    </g>
    <g clip-path="url(#p36c71b915c)">
     <use xlink:href="#C0_0_7a36dba6df" x="77.733063" y="186.2909" style="fill: #2878b5; fill-opacity: 0.13"/>
    </g>
    <g clip-path="url(#p36c71b915c)">
     <use xlink:href="#C0_0_7a36dba6df" x="84.243063" y="238.539577" style="fill: #2878b5; fill-opacity: 0.13"/>
    </g>
    <g clip-path="url(#p36c71b915c)">
     <use xlink:href="#C0_0_7a36dba6df" x="90.753062" y="157.73393" style="fill: #2878b5; fill-opacity: 0.13"/>
    </g>
    <g clip-path="url(#p36c71b915c)">
     <use xlink:href="#C0_0_7a36dba6df" x="97.263063" y="192.622499" style="fill: #2878b5; fill-opacity: 0.13"/>
    </g>
    <g clip-path="url(#p36c71b915c)">
     <use xlink:href="#C0_0_7a36dba6df" x="103.773063" y="151.322812" style="fill: #2878b5; fill-opacity: 0.13"/>
    </g>
    <g clip-path="url(#p36c71b915c)">
     <use xlink:href="#C0_0_7a36dba6df" x="110.283062" y="189.631311" style="fill: #2878b5; fill-opacity: 0.13"/>
    </g>
    <g clip-path="url(#p36c71b915c)">
     <use xlink:href="#C0_0_7a36dba6df" x="116.793062" y="102.724858" style="fill: #2878b5; fill-opacity: 0.13"/>
    </g>
    <g clip-path="url(#p36c71b915c)">
     <use xlink:href="#C0_0_7a36dba6df" x="123.303062" y="191.082698" style="fill: #2878b5; fill-opacity: 0.13"/>
    </g>
    <g clip-path="url(#p36c71b915c)">
     <use xlink:href="#C0_0_7a36dba6df" x="129.813063" y="193.754548" style="fill: #2878b5; fill-opacity: 0.13"/>
    </g>
    <g clip-path="url(#p36c71b915c)">
     <use xlink:href="#C0_0_7a36dba6df" x="136.323062" y="207.387862" style="fill: #2878b5; fill-opacity: 0.13"/>
    </g>
    <g clip-path="url(#p36c71b915c)">
     <use xlink:href="#C0_0_7a36dba6df" x="142.833062" y="176.441577" style="fill: #2878b5; fill-opacity: 0.13"/>
    </g>
    <g clip-path="url(#p36c71b915c)">
     <use xlink:href="#C0_0_7a36dba6df" x="149.343062" y="177.260803" style="fill: #2878b5; fill-opacity: 0.13"/>
    </g>
    <g clip-path="url(#p36c71b915c)">
     <use xlink:href="#C0_0_7a36dba6df" x="155.853062" y="198.769533" style="fill: #2878b5; fill-opacity: 0.13"/>
    </g>
    <g clip-path="url(#p36c71b915c)">
     <use xlink:href="#C0_0_7a36dba6df" x="162.363062" y="87.581994" style="fill: #2878b5; fill-opacity: 0.13"/>
    </g>
    <g clip-path="url(#p36c71b915c)">
     <use xlink:href="#C0_0_7a36dba6df" x="168.873063" y="199.521438" style="fill: #2878b5; fill-opacity: 0.13"/>
    </g>
    <g clip-path="url(#p36c71b915c)">
     <use xlink:href="#C0_0_7a36dba6df" x="175.383062" y="208.568005" style="fill: #2878b5; fill-opacity: 0.13"/>
    </g>
    <g clip-path="url(#p36c71b915c)">
     <use xlink:href="#C0_0_7a36dba6df" x="181.893062" y="197.916221" style="fill: #2878b5; fill-opacity: 0.13"/>
    </g>
    <g clip-path="url(#p36c71b915c)">
     <use xlink:href="#C0_0_7a36dba6df" x="188.403062" y="119.946652" style="fill: #2878b5; fill-opacity: 0.13"/>
    </g>
    <g clip-path="url(#p36c71b915c)">
     <use xlink:href="#C0_0_7a36dba6df" x="194.913062" y="169.646134" style="fill: #2878b5; fill-opacity: 0.13"/>
    </g>
    <g clip-path="url(#p36c71b915c)">
     <use xlink:href="#C0_0_7a36dba6df" x="201.423062" y="206.531522" style="fill: #2878b5; fill-opacity: 0.13"/>
    </g>
    <g clip-path="url(#p36c71b915c)">
     <use xlink:href="#C0_0_7a36dba6df" x="207.933062" y="166.462549" style="fill: #2878b5; fill-opacity: 0.13"/>
    </g>
    <g clip-path="url(#p36c71b915c)">
     <use xlink:href="#C0_0_7a36dba6df" x="214.443062" y="100.512476" style="fill: #2878b5; fill-opacity: 0.13"/>
    </g>
    <g clip-path="url(#p36c71b915c)">
     <use xlink:href="#C0_0_7a36dba6df" x="220.953062" y="199.670584" style="fill: #2878b5; fill-opacity: 0.13"/>
    </g>
    <g clip-path="url(#p36c71b915c)">
     <use xlink:href="#C0_0_7a36dba6df" x="227.463062" y="187.120681" style="fill: #2878b5; fill-opacity: 0.13"/>
    </g>
    <g clip-path="url(#p36c71b915c)">
     <use xlink:href="#C0_0_7a36dba6df" x="233.973062" y="122.571103" style="fill: #2878b5; fill-opacity: 0.13"/>
    </g>
    <g clip-path="url(#p36c71b915c)">
     <use xlink:href="#C0_0_7a36dba6df" x="240.483062" y="178.954828" style="fill: #2878b5; fill-opacity: 0.13"/>
    </g>
    <g clip-path="url(#p36c71b915c)">
     <use xlink:href="#C0_0_7a36dba6df" x="246.993062" y="186.390477" style="fill: #2878b5; fill-opacity: 0.13"/>
    </g>
    <g clip-path="url(#p36c71b915c)">
     <use xlink:href="#C0_0_7a36dba6df" x="253.503062" y="141.119014" style="fill: #2878b5; fill-opacity: 0.13"/>
    </g>
    <g clip-path="url(#p36c71b915c)">
     <use xlink:href="#C0_0_7a36dba6df" x="260.013062" y="89.722554" style="fill: #2878b5; fill-opacity: 0.13"/>
    </g>
    <g clip-path="url(#p36c71b915c)">
     <use xlink:href="#C0_0_7a36dba6df" x="266.523062" y="124.988264" style="fill: #2878b5; fill-opacity: 0.13"/>
    </g>
    <g clip-path="url(#p36c71b915c)">
     <use xlink:href="#C0_0_7a36dba6df" x="273.033062" y="63.919492" style="fill: #2878b5; fill-opacity: 0.13"/>
    </g>
    <g clip-path="url(#p36c71b915c)">
     <use xlink:href="#C0_0_7a36dba6df" x="279.543062" y="181.966829" style="fill: #2878b5; fill-opacity: 0.13"/>
    </g>
    <g clip-path="url(#p36c71b915c)">
     <use xlink:href="#C0_0_7a36dba6df" x="286.053063" y="210.076777" style="fill: #2878b5; fill-opacity: 0.13"/>
    </g>
    <g clip-path="url(#p36c71b915c)">
     <use xlink:href="#C0_0_7a36dba6df" x="292.563063" y="105.474395" style="fill: #2878b5; fill-opacity: 0.13"/>
    </g>
    <g clip-path="url(#p36c71b915c)">
     <use xlink:href="#C0_0_7a36dba6df" x="299.073062" y="78.909162" style="fill: #2878b5; fill-opacity: 0.13"/>
    </g>
    <g clip-path="url(#p36c71b915c)">
     <use xlink:href="#C0_0_7a36dba6df" x="305.583062" y="175.057785" style="fill: #2878b5; fill-opacity: 0.13"/>
    </g>
    <g clip-path="url(#p36c71b915c)">
     <use xlink:href="#C0_0_7a36dba6df" x="312.093062" y="80.200174" style="fill: #2878b5; fill-opacity: 0.13"/>
    </g>
    <g clip-path="url(#p36c71b915c)">
     <use xlink:href="#C0_0_7a36dba6df" x="318.603062" y="57.282239" style="fill: #2878b5; fill-opacity: 0.13"/>
    </g>
    <g clip-path="url(#p36c71b915c)">
     <use xlink:href="#C0_0_7a36dba6df" x="325.113062" y="101.374334" style="fill: #2878b5; fill-opacity: 0.13"/>
    </g>
    <g clip-path="url(#p36c71b915c)">
     <use xlink:href="#C0_0_7a36dba6df" x="331.623062" y="143.819538" style="fill: #2878b5; fill-opacity: 0.13"/>
    </g>
    <g clip-path="url(#p36c71b915c)">
     <use xlink:href="#C0_0_7a36dba6df" x="338.133062" y="163.763205" style="fill: #2878b5; fill-opacity: 0.13"/>
    </g>
    <g clip-path="url(#p36c71b915c)">
     <use xlink:href="#C0_0_7a36dba6df" x="344.643062" y="154.091594" style="fill: #2878b5; fill-opacity: 0.13"/>
    </g>
    <g clip-path="url(#p36c71b915c)">
     <use xlink:href="#C0_0_7a36dba6df" x="351.153062" y="171.40355" style="fill: #2878b5; fill-opacity: 0.13"/>
    </g>
    <g clip-path="url(#p36c71b915c)">
     <use xlink:href="#C0_0_7a36dba6df" x="357.663062" y="142.737935" style="fill: #2878b5; fill-opacity: 0.13"/>
    </g>
    <g clip-path="url(#p36c71b915c)">
     <use xlink:href="#C0_0_7a36dba6df" x="364.173062" y="180.346013" style="fill: #2878b5; fill-opacity: 0.13"/>
    </g>
    <g clip-path="url(#p36c71b915c)">
     <use xlink:href="#C0_0_7a36dba6df" x="370.683063" y="49.817381" style="fill: #2878b5; fill-opacity: 0.13"/>
    </g>
    <g clip-path="url(#p36c71b915c)">
     <use xlink:href="#C0_0_7a36dba6df" x="377.193062" y="201.232116" style="fill: #2878b5; fill-opacity: 0.13"/>
    </g>
    <g clip-path="url(#p36c71b915c)">
     <use xlink:href="#C0_0_7a36dba6df" x="383.703062" y="35.303812" style="fill: #2878b5; fill-opacity: 0.13"/>
    </g>
    <g clip-path="url(#p36c71b915c)">
     <use xlink:href="#C0_0_7a36dba6df" x="390.213062" y="99.433833" style="fill: #2878b5; fill-opacity: 0.13"/>
    </g>
    <g clip-path="url(#p36c71b915c)">
     <use xlink:href="#C0_0_7a36dba6df" x="396.723062" y="186.251936" style="fill: #2878b5; fill-opacity: 0.13"/>
    </g>
    <g clip-path="url(#p36c71b915c)">
     <use xlink:href="#C0_0_7a36dba6df" x="403.233062" y="114.628635" style="fill: #2878b5; fill-opacity: 0.13"/>
    </g>
    <g clip-path="url(#p36c71b915c)">
     <use xlink:href="#C0_0_7a36dba6df" x="409.743062" y="165.033051" style="fill: #2878b5; fill-opacity: 0.13"/>
    </g>
    <g clip-path="url(#p36c71b915c)">
     <use xlink:href="#C0_0_7a36dba6df" x="416.253062" y="125.820108" style="fill: #2878b5; fill-opacity: 0.13"/>
    </g>
    <g clip-path="url(#p36c71b915c)">
     <use xlink:href="#C0_0_7a36dba6df" x="422.763062" y="55.096464" style="fill: #2878b5; fill-opacity: 0.13"/>
    </g>
    <g clip-path="url(#p36c71b915c)">
     <use xlink:href="#C0_0_7a36dba6df" x="429.273062" y="165.142522" style="fill: #2878b5; fill-opacity: 0.13"/>
    </g>
    <g clip-path="url(#p36c71b915c)">
     <use xlink:href="#C0_0_7a36dba6df" x="435.783062" y="115.908338" style="fill: #2878b5; fill-opacity: 0.13"/>
    </g>
    <g clip-path="url(#p36c71b915c)">
     <use xlink:href="#C0_0_7a36dba6df" x="442.293062" y="138.205113" style="fill: #2878b5; fill-opacity: 0.13"/>
    </g>
    <g clip-path="url(#p36c71b915c)">
     <use xlink:href="#C0_0_7a36dba6df" x="448.803062" y="211.10811" style="fill: #2878b5; fill-opacity: 0.13"/>
    </g>
    <g clip-path="url(#p36c71b915c)">
     <use xlink:href="#C0_0_7a36dba6df" x="455.313062" y="181.037597" style="fill: #2878b5; fill-opacity: 0.13"/>
    </g>
    <g clip-path="url(#p36c71b915c)">
     <use xlink:href="#C0_0_7a36dba6df" x="461.823062" y="130.247858" style="fill: #2878b5; fill-opacity: 0.13"/>
    </g>
    <g clip-path="url(#p36c71b915c)">
     <use xlink:href="#C0_0_7a36dba6df" x="468.333062" y="193.007675" style="fill: #2878b5; fill-opacity: 0.13"/>
    </g>
    <g clip-path="url(#p36c71b915c)">
     <use xlink:href="#C0_0_7a36dba6df" x="474.843062" y="203.568101" style="fill: #2878b5; fill-opacity: 0.13"/>
    </g>
    <g clip-path="url(#p36c71b915c)">
     <use xlink:href="#C0_0_7a36dba6df" x="481.353062" y="179.907783" style="fill: #2878b5; fill-opacity: 0.13"/>
    </g>
   </g>
   <g id="PathCollection_2">
    <defs>
     <path id="C1_0_510c3b88e2" d="M 0 1.732051
C 0.459345 1.732051 0.899939 1.549551 1.224745 1.224745
C 1.549551 0.899939 1.732051 0.459345 1.732051 -0
C 1.732051 -0.459345 1.549551 -0.899939 1.224745 -1.224745
C 0.899939 -1.549551 0.459345 -1.732051 0 -1.732051
C -0.459345 -1.732051 -0.899939 -1.549551 -1.224745 -1.224745
C -1.549551 -0.899939 -1.732051 -0.459345 -1.732051 0
C -1.732051 0.459345 -1.549551 0.899939 -1.224745 1.224745
C -0.899939 1.549551 -0.459345 1.732051 0 1.732051
z
"/>
    </defs>
    <g clip-path="url(#p36c71b915c)">
     <use xlink:href="#C1_0_510c3b88e2" x="71.223063" y="207.122406" style="fill: #d9534f; fill-opacity: 0.13"/>
    </g>
    <g clip-path="url(#p36c71b915c)">
     <use xlink:href="#C1_0_510c3b88e2" x="77.733063" y="242.895874" style="fill: #d9534f; fill-opacity: 0.13"/>
    </g>
    <g clip-path="url(#p36c71b915c)">
     <use xlink:href="#C1_0_510c3b88e2" x="84.243063" y="190.610377" style="fill: #d9534f; fill-opacity: 0.13"/>
    </g>
    <g clip-path="url(#p36c71b915c)">
     <use xlink:href="#C1_0_510c3b88e2" x="90.753062" y="212.389302" style="fill: #d9534f; fill-opacity: 0.13"/>
    </g>
    <g clip-path="url(#p36c71b915c)">
     <use xlink:href="#C1_0_510c3b88e2" x="97.263063" y="222.703195" style="fill: #d9534f; fill-opacity: 0.13"/>
    </g>
    <g clip-path="url(#p36c71b915c)">
     <use xlink:href="#C1_0_510c3b88e2" x="103.773063" y="252.634254" style="fill: #d9534f; fill-opacity: 0.13"/>
    </g>
    <g clip-path="url(#p36c71b915c)">
     <use xlink:href="#C1_0_510c3b88e2" x="110.283062" y="215.936992" style="fill: #d9534f; fill-opacity: 0.13"/>
    </g>
    <g clip-path="url(#p36c71b915c)">
     <use xlink:href="#C1_0_510c3b88e2" x="116.793062" y="231.933591" style="fill: #d9534f; fill-opacity: 0.13"/>
    </g>
    <g clip-path="url(#p36c71b915c)">
     <use xlink:href="#C1_0_510c3b88e2" x="123.303062" y="219.773534" style="fill: #d9534f; fill-opacity: 0.13"/>
    </g>
    <g clip-path="url(#p36c71b915c)">
     <use xlink:href="#C1_0_510c3b88e2" x="129.813063" y="234.751355" style="fill: #d9534f; fill-opacity: 0.13"/>
    </g>
    <g clip-path="url(#p36c71b915c)">
     <use xlink:href="#C1_0_510c3b88e2" x="136.323062" y="239.567927" style="fill: #d9534f; fill-opacity: 0.13"/>
    </g>
    <g clip-path="url(#p36c71b915c)">
     <use xlink:href="#C1_0_510c3b88e2" x="142.833062" y="233.634265" style="fill: #d9534f; fill-opacity: 0.13"/>
    </g>
    <g clip-path="url(#p36c71b915c)">
     <use xlink:href="#C1_0_510c3b88e2" x="149.343062" y="252.480013" style="fill: #d9534f; fill-opacity: 0.13"/>
    </g>
    <g clip-path="url(#p36c71b915c)">
     <use xlink:href="#C1_0_510c3b88e2" x="155.853062" y="214.145348" style="fill: #d9534f; fill-opacity: 0.13"/>
    </g>
    <g clip-path="url(#p36c71b915c)">
     <use xlink:href="#C1_0_510c3b88e2" x="162.363062" y="195.277345" style="fill: #d9534f; fill-opacity: 0.13"/>
    </g>
    <g clip-path="url(#p36c71b915c)">
     <use xlink:href="#C1_0_510c3b88e2" x="168.873063" y="238.626505" style="fill: #d9534f; fill-opacity: 0.13"/>
    </g>
    <g clip-path="url(#p36c71b915c)">
     <use xlink:href="#C1_0_510c3b88e2" x="175.383062" y="208.407668" style="fill: #d9534f; fill-opacity: 0.13"/>
    </g>
    <g clip-path="url(#p36c71b915c)">
     <use xlink:href="#C1_0_510c3b88e2" x="181.893062" y="242.073825" style="fill: #d9534f; fill-opacity: 0.13"/>
    </g>
    <g clip-path="url(#p36c71b915c)">
     <use xlink:href="#C1_0_510c3b88e2" x="188.403062" y="256.092893" style="fill: #d9534f; fill-opacity: 0.13"/>
    </g>
    <g clip-path="url(#p36c71b915c)">
     <use xlink:href="#C1_0_510c3b88e2" x="194.913062" y="176.344064" style="fill: #d9534f; fill-opacity: 0.13"/>
    </g>
    <g clip-path="url(#p36c71b915c)">
     <use xlink:href="#C1_0_510c3b88e2" x="201.423062" y="240.532502" style="fill: #d9534f; fill-opacity: 0.13"/>
    </g>
    <g clip-path="url(#p36c71b915c)">
     <use xlink:href="#C1_0_510c3b88e2" x="207.933062" y="234.099997" style="fill: #d9534f; fill-opacity: 0.13"/>
    </g>
    <g clip-path="url(#p36c71b915c)">
     <use xlink:href="#C1_0_510c3b88e2" x="214.443062" y="216.851794" style="fill: #d9534f; fill-opacity: 0.13"/>
    </g>
    <g clip-path="url(#p36c71b915c)">
     <use xlink:href="#C1_0_510c3b88e2" x="220.953062" y="242.735499" style="fill: #d9534f; fill-opacity: 0.13"/>
    </g>
    <g clip-path="url(#p36c71b915c)">
     <use xlink:href="#C1_0_510c3b88e2" x="227.463062" y="198.738828" style="fill: #d9534f; fill-opacity: 0.13"/>
    </g>
    <g clip-path="url(#p36c71b915c)">
     <use xlink:href="#C1_0_510c3b88e2" x="233.973062" y="194.868506" style="fill: #d9534f; fill-opacity: 0.13"/>
    </g>
    <g clip-path="url(#p36c71b915c)">
     <use xlink:href="#C1_0_510c3b88e2" x="240.483062" y="196.39791" style="fill: #d9534f; fill-opacity: 0.13"/>
    </g>
    <g clip-path="url(#p36c71b915c)">
     <use xlink:href="#C1_0_510c3b88e2" x="246.993062" y="174.891776" style="fill: #d9534f; fill-opacity: 0.13"/>
    </g>
    <g clip-path="url(#p36c71b915c)">
     <use xlink:href="#C1_0_510c3b88e2" x="253.503062" y="219.569471" style="fill: #d9534f; fill-opacity: 0.13"/>
    </g>
    <g clip-path="url(#p36c71b915c)">
     <use xlink:href="#C1_0_510c3b88e2" x="260.013062" y="202.792626" style="fill: #d9534f; fill-opacity: 0.13"/>
    </g>
    <g clip-path="url(#p36c71b915c)">
     <use xlink:href="#C1_0_510c3b88e2" x="266.523062" y="212.436583" style="fill: #d9534f; fill-opacity: 0.13"/>
    </g>
    <g clip-path="url(#p36c71b915c)">
     <use xlink:href="#C1_0_510c3b88e2" x="273.033062" y="228.628768" style="fill: #d9534f; fill-opacity: 0.13"/>
    </g>
    <g clip-path="url(#p36c71b915c)">
     <use xlink:href="#C1_0_510c3b88e2" x="279.543062" y="262.034385" style="fill: #d9534f; fill-opacity: 0.13"/>
    </g>
    <g clip-path="url(#p36c71b915c)">
     <use xlink:href="#C1_0_510c3b88e2" x="286.053063" y="221.552098" style="fill: #d9534f; fill-opacity: 0.13"/>
    </g>
    <g clip-path="url(#p36c71b915c)">
     <use xlink:href="#C1_0_510c3b88e2" x="292.563063" y="227.297207" style="fill: #d9534f; fill-opacity: 0.13"/>
    </g>
    <g clip-path="url(#p36c71b915c)">
     <use xlink:href="#C1_0_510c3b88e2" x="299.073062" y="162.371841" style="fill: #d9534f; fill-opacity: 0.13"/>
    </g>
    <g clip-path="url(#p36c71b915c)">
     <use xlink:href="#C1_0_510c3b88e2" x="305.583062" y="248.875605" style="fill: #d9534f; fill-opacity: 0.13"/>
    </g>
    <g clip-path="url(#p36c71b915c)">
     <use xlink:href="#C1_0_510c3b88e2" x="312.093062" y="207.007576" style="fill: #d9534f; fill-opacity: 0.13"/>
    </g>
    <g clip-path="url(#p36c71b915c)">
     <use xlink:href="#C1_0_510c3b88e2" x="318.603062" y="180.915008" style="fill: #d9534f; fill-opacity: 0.13"/>
    </g>
    <g clip-path="url(#p36c71b915c)">
     <use xlink:href="#C1_0_510c3b88e2" x="325.113062" y="212.20567" style="fill: #d9534f; fill-opacity: 0.13"/>
    </g>
    <g clip-path="url(#p36c71b915c)">
     <use xlink:href="#C1_0_510c3b88e2" x="331.623062" y="204.870226" style="fill: #d9534f; fill-opacity: 0.13"/>
    </g>
    <g clip-path="url(#p36c71b915c)">
     <use xlink:href="#C1_0_510c3b88e2" x="338.133062" y="168.590606" style="fill: #d9534f; fill-opacity: 0.13"/>
    </g>
    <g clip-path="url(#p36c71b915c)">
     <use xlink:href="#C1_0_510c3b88e2" x="344.643062" y="220.711252" style="fill: #d9534f; fill-opacity: 0.13"/>
    </g>
    <g clip-path="url(#p36c71b915c)">
     <use xlink:href="#C1_0_510c3b88e2" x="351.153062" y="235.702366" style="fill: #d9534f; fill-opacity: 0.13"/>
    </g>
    <g clip-path="url(#p36c71b915c)">
     <use xlink:href="#C1_0_510c3b88e2" x="357.663062" y="247.472781" style="fill: #d9534f; fill-opacity: 0.13"/>
    </g>
    <g clip-path="url(#p36c71b915c)">
     <use xlink:href="#C1_0_510c3b88e2" x="364.173062" y="179.460377" style="fill: #d9534f; fill-opacity: 0.13"/>
    </g>
    <g clip-path="url(#p36c71b915c)">
     <use xlink:href="#C1_0_510c3b88e2" x="370.683063" y="206.653396" style="fill: #d9534f; fill-opacity: 0.13"/>
    </g>
    <g clip-path="url(#p36c71b915c)">
     <use xlink:href="#C1_0_510c3b88e2" x="377.193062" y="195.734911" style="fill: #d9534f; fill-opacity: 0.13"/>
    </g>
    <g clip-path="url(#p36c71b915c)">
     <use xlink:href="#C1_0_510c3b88e2" x="383.703062" y="211.91347" style="fill: #d9534f; fill-opacity: 0.13"/>
    </g>
    <g clip-path="url(#p36c71b915c)">
     <use xlink:href="#C1_0_510c3b88e2" x="390.213062" y="202.719458" style="fill: #d9534f; fill-opacity: 0.13"/>
    </g>
    <g clip-path="url(#p36c71b915c)">
     <use xlink:href="#C1_0_510c3b88e2" x="396.723062" y="182.950639" style="fill: #d9534f; fill-opacity: 0.13"/>
    </g>
    <g clip-path="url(#p36c71b915c)">
     <use xlink:href="#C1_0_510c3b88e2" x="403.233062" y="174.387282" style="fill: #d9534f; fill-opacity: 0.13"/>
    </g>
    <g clip-path="url(#p36c71b915c)">
     <use xlink:href="#C1_0_510c3b88e2" x="409.743062" y="227.329029" style="fill: #d9534f; fill-opacity: 0.13"/>
    </g>
    <g clip-path="url(#p36c71b915c)">
     <use xlink:href="#C1_0_510c3b88e2" x="416.253062" y="201.072587" style="fill: #d9534f; fill-opacity: 0.13"/>
    </g>
    <g clip-path="url(#p36c71b915c)">
     <use xlink:href="#C1_0_510c3b88e2" x="422.763062" y="188.089324" style="fill: #d9534f; fill-opacity: 0.13"/>
    </g>
    <g clip-path="url(#p36c71b915c)">
     <use xlink:href="#C1_0_510c3b88e2" x="429.273062" y="260.664263" style="fill: #d9534f; fill-opacity: 0.13"/>
    </g>
    <g clip-path="url(#p36c71b915c)">
     <use xlink:href="#C1_0_510c3b88e2" x="435.783062" y="229.333724" style="fill: #d9534f; fill-opacity: 0.13"/>
    </g>
    <g clip-path="url(#p36c71b915c)">
     <use xlink:href="#C1_0_510c3b88e2" x="442.293062" y="200.318091" style="fill: #d9534f; fill-opacity: 0.13"/>
    </g>
    <g clip-path="url(#p36c71b915c)">
     <use xlink:href="#C1_0_510c3b88e2" x="448.803062" y="235.340577" style="fill: #d9534f; fill-opacity: 0.13"/>
    </g>
    <g clip-path="url(#p36c71b915c)">
     <use xlink:href="#C1_0_510c3b88e2" x="455.313062" y="254.924922" style="fill: #d9534f; fill-opacity: 0.13"/>
    </g>
    <g clip-path="url(#p36c71b915c)">
     <use xlink:href="#C1_0_510c3b88e2" x="461.823062" y="243.150193" style="fill: #d9534f; fill-opacity: 0.13"/>
    </g>
    <g clip-path="url(#p36c71b915c)">
     <use xlink:href="#C1_0_510c3b88e2" x="468.333062" y="235.216288" style="fill: #d9534f; fill-opacity: 0.13"/>
    </g>
    <g clip-path="url(#p36c71b915c)">
     <use xlink:href="#C1_0_510c3b88e2" x="474.843062" y="182.91697" style="fill: #d9534f; fill-opacity: 0.13"/>
    </g>
    <g clip-path="url(#p36c71b915c)">
     <use xlink:href="#C1_0_510c3b88e2" x="481.353062" y="264.623812" style="fill: #d9534f; fill-opacity: 0.13"/>
    </g>
   </g>
   <g id="line2d_23">
    <path d="M 71.223063 57.90898
L 77.733063 100.702953
L 84.243063 128.642809
L 90.753062 136.765655
L 97.263063 145.745366
L 103.773063 146.833946
L 110.283062 151.883539
L 116.793062 143.849515
L 123.303062 149.022025
L 129.813063 154.157136
L 136.323062 160.549602
L 142.833062 162.066197
L 149.343062 163.364158
L 155.853062 166.993209
L 162.363062 162.853288
L 168.873063 165.636855
L 175.383062 167.293847
L 181.893062 168.824966
L 188.403062 166.497427
L 194.913062 166.635075
L 201.423062 168.372725
L 207.933062 168.288936
L 214.443062 166.351422
L 220.953062 167.158096
L 227.463062 168.0705
L 233.973062 166.503838
L 240.483062 166.844478
L 246.993062 167.512337
L 253.503062 166.439531
L 260.013062 164.447306
L 266.523062 163.038055
L 273.033062 161.792544
L 279.543062 162.387773
L 286.053063 163.558953
L 292.563063 161.807986
L 299.073062 160.953044
L 305.583062 161.228109
L 312.093062 159.258086
L 318.603062 156.974782
L 325.113062 155.977886
L 331.623062 155.677036
L 338.133062 155.867207
L 344.643062 155.820422
L 351.153062 156.112995
L 357.663062 155.760282
L 364.173062 156.251274
L 370.683063 154.438457
L 377.193062 154.946212
L 383.703062 152.831914
L 390.213062 151.488567
L 396.723062 152.305436
L 403.233062 151.711321
L 409.743062 151.774044
L 416.253062 151.353278
L 422.763062 149.96179
L 429.273062 150.076419
L 435.783062 149.601509
L 442.293062 149.489477
L 448.803062 150.502305
L 455.313062 151.152453
L 461.823062 150.941938
L 468.333062 151.486479
L 474.843062 151.785729
L 481.353062 151.895179
" clip-path="url(#p36c71b915c)" style="fill: none; stroke: #2878b5; stroke-width: 2.7; stroke-linecap: square"/>
   </g>
   <g id="line2d_24">
    <path d="M 71.223063 207.122406
L 77.733063 224.778839
L 84.243063 212.910802
L 90.753062 212.705389
L 97.263063 214.254547
L 103.773063 219.690097
L 110.283062 219.098321
L 116.793062 221.174286
L 123.303062 221.102631
L 129.813063 223.374289
L 136.323062 225.096169
L 142.833062 225.838821
L 149.343062 227.506523
L 155.853062 225.817955
L 162.363062 223.860729
L 168.873063 225.417414
L 175.383062 224.407787
L 181.893062 226.143256
L 188.403062 226.746655
L 194.913062 224.943787
L 201.423062 225.351059
L 207.933062 225.616024
L 214.443062 225.421375
L 220.953062 225.773936
L 227.463062 224.090871
L 233.973062 222.446166
L 240.483062 221.355688
L 246.993062 219.794501
L 253.503062 219.789031
L 260.013062 219.01137
L 266.523062 218.762325
L 273.033062 218.816569
L 279.543062 219.234891
L 286.053063 219.294528
L 292.563063 219.450234
L 299.073062 218.637306
L 305.583062 219.028392
L 312.093062 218.774741
L 318.603062 218.112691
L 325.113062 217.982512
L 331.623062 217.638103
L 338.133062 216.737163
L 344.643062 216.827483
L 351.153062 216.993863
L 357.663062 217.225924
L 364.173062 216.49401
L 370.683063 216.402635
L 377.193062 216.171064
L 383.703062 216.100691
L 390.213062 215.914896
L 396.723062 214.725613
L 403.233062 213.95995
L 409.743062 213.979002
L 416.253062 213.790508
L 422.763062 213.62555
L 429.273062 213.860646
L 435.783062 214.034811
L 442.293062 214.019764
L 448.803062 214.153401
L 455.313062 214.647335
L 461.823062 214.837887
L 468.333062 214.957075
L 474.843062 214.855185
L 481.353062 214.973604
" clip-path="url(#p36c71b915c)" style="fill: none; stroke: #d9534f; stroke-width: 2.7; stroke-linecap: square"/>
   </g>
   <g id="patch_3">
    <path d="M 71.223063 276.089812
L 71.223063 23.837812
" style="fill: none; stroke: #000000; stroke-width: 0.8; stroke-linejoin: miter; stroke-linecap: square"/>
   </g>
   <g id="patch_4">
    <path d="M 71.223063 276.089812
L 481.353062 276.089812
" style="fill: none; stroke: #000000; stroke-width: 0.8; stroke-linejoin: miter; stroke-linecap: square"/>
   </g>
   <g id="text_17">
    <!-- 0.127 -->
    <g style="fill: #2878b5" transform="translate(444.621156 143.895179) scale(0.094 -0.094)">
     <defs>
      <path id="DejaVuSans-Bold-30" d="M 2944 2338
Q 2944 3213 2780 3570
Q 2616 3928 2228 3928
Q 1841 3928 1675 3570
Q 1509 3213 1509 2338
Q 1509 1453 1675 1090
Q 1841 728 2228 728
Q 2613 728 2778 1090
Q 2944 1453 2944 2338
z
M 4147 2328
Q 4147 1169 3647 539
Q 3147 -91 2228 -91
Q 1306 -91 806 539
Q 306 1169 306 2328
Q 306 3491 806 4120
Q 1306 4750 2228 4750
Q 3147 4750 3647 4120
Q 4147 3491 4147 2328
z
" transform="scale(0.015625)"/>
      <path id="DejaVuSans-Bold-2e" d="M 653 1209
L 1778 1209
L 1778 0
L 653 0
L 653 1209
z
" transform="scale(0.015625)"/>
      <path id="DejaVuSans-Bold-31" d="M 750 831
L 1813 831
L 1813 3847
L 722 3622
L 722 4441
L 1806 4666
L 2950 4666
L 2950 831
L 4013 831
L 4013 0
L 750 0
L 750 831
z
" transform="scale(0.015625)"/>
      <path id="DejaVuSans-Bold-32" d="M 1844 884
L 3897 884
L 3897 0
L 506 0
L 506 884
L 2209 2388
Q 2438 2594 2547 2791
Q 2656 2988 2656 3200
Q 2656 3528 2436 3728
Q 2216 3928 1850 3928
Q 1569 3928 1234 3808
Q 900 3688 519 3450
L 519 4475
Q 925 4609 1322 4679
Q 1719 4750 2100 4750
Q 2938 4750 3402 4381
Q 3866 4013 3866 3353
Q 3866 2972 3669 2642
Q 3472 2313 2841 1759
L 1844 884
z
" transform="scale(0.015625)"/>
      <path id="DejaVuSans-Bold-37" d="M 428 4666
L 3944 4666
L 3944 3988
L 2125 0
L 953 0
L 2675 3781
L 428 3781
L 428 4666
z
" transform="scale(0.015625)"/>
     </defs>
     <use xlink:href="#DejaVuSans-Bold-30"/>
     <use xlink:href="#DejaVuSans-Bold-2e" x="69.580078"/>
     <use xlink:href="#DejaVuSans-Bold-31" x="107.568359"/>
     <use xlink:href="#DejaVuSans-Bold-32" x="177.148438"/>
     <use xlink:href="#DejaVuSans-Bold-37" x="246.728516"/>
    </g>
   </g>
   <g id="text_18">
    <!-- 0.076 -->
    <g style="fill: #d9534f" transform="translate(444.621156 230.973604) scale(0.094 -0.094)">
     <defs>
      <path id="DejaVuSans-Bold-36" d="M 2316 2303
Q 2000 2303 1842 2098
Q 1684 1894 1684 1484
Q 1684 1075 1842 870
Q 2000 666 2316 666
Q 2634 666 2792 870
Q 2950 1075 2950 1484
Q 2950 1894 2792 2098
Q 2634 2303 2316 2303
z
M 3803 4544
L 3803 3681
Q 3506 3822 3243 3889
Q 2981 3956 2731 3956
Q 2194 3956 1894 3657
Q 1594 3359 1544 2772
Q 1750 2925 1990 3001
Q 2231 3078 2516 3078
Q 3231 3078 3670 2659
Q 4109 2241 4109 1563
Q 4109 813 3618 361
Q 3128 -91 2303 -91
Q 1394 -91 895 523
Q 397 1138 397 2266
Q 397 3422 980 4083
Q 1563 4744 2578 4744
Q 2900 4744 3203 4694
Q 3506 4644 3803 4544
z
" transform="scale(0.015625)"/>
     </defs>
     <use xlink:href="#DejaVuSans-Bold-30"/>
     <use xlink:href="#DejaVuSans-Bold-2e" x="69.580078"/>
     <use xlink:href="#DejaVuSans-Bold-30" x="107.568359"/>
     <use xlink:href="#DejaVuSans-Bold-37" x="177.148438"/>
     <use xlink:href="#DejaVuSans-Bold-36" x="246.728516"/>
    </g>
   </g>
   <g id="text_19">
    <!-- TRSD: 39.9% less -->
    <g style="fill: #d9534f" transform="translate(377.408925 84.40917) scale(0.1 -0.1)">
     <defs>
      <path id="DejaVuSans-Bold-54" d="M 31 4666
L 4331 4666
L 4331 3756
L 2784 3756
L 2784 0
L 1581 0
L 1581 3756
L 31 3756
L 31 4666
z
" transform="scale(0.015625)"/>
      <path id="DejaVuSans-Bold-52" d="M 2297 2597
Q 2675 2597 2839 2737
Q 3003 2878 3003 3200
Q 3003 3519 2839 3656
Q 2675 3794 2297 3794
L 1791 3794
L 1791 2597
L 2297 2597
z
M 1791 1766
L 1791 0
L 588 0
L 588 4666
L 2425 4666
Q 3347 4666 3776 4356
Q 4206 4047 4206 3378
Q 4206 2916 3982 2619
Q 3759 2322 3309 2181
Q 3556 2125 3751 1926
Q 3947 1728 4147 1325
L 4800 0
L 3519 0
L 2950 1159
Q 2778 1509 2601 1637
Q 2425 1766 2131 1766
L 1791 1766
z
" transform="scale(0.015625)"/>
      <path id="DejaVuSans-Bold-53" d="M 3834 4519
L 3834 3531
Q 3450 3703 3084 3790
Q 2719 3878 2394 3878
Q 1963 3878 1756 3759
Q 1550 3641 1550 3391
Q 1550 3203 1689 3098
Q 1828 2994 2194 2919
L 2706 2816
Q 3484 2659 3812 2340
Q 4141 2022 4141 1434
Q 4141 663 3683 286
Q 3225 -91 2284 -91
Q 1841 -91 1394 -6
Q 947 78 500 244
L 500 1259
Q 947 1022 1364 901
Q 1781 781 2169 781
Q 2563 781 2772 912
Q 2981 1044 2981 1288
Q 2981 1506 2839 1625
Q 2697 1744 2272 1838
L 1806 1941
Q 1106 2091 782 2419
Q 459 2747 459 3303
Q 459 4000 909 4375
Q 1359 4750 2203 4750
Q 2588 4750 2994 4692
Q 3400 4634 3834 4519
z
" transform="scale(0.015625)"/>
      <path id="DejaVuSans-Bold-44" d="M 1791 3756
L 1791 909
L 2222 909
Q 2959 909 3348 1275
Q 3738 1641 3738 2338
Q 3738 3031 3350 3393
Q 2963 3756 2222 3756
L 1791 3756
z
M 588 4666
L 1856 4666
Q 2919 4666 3439 4514
Q 3959 4363 4331 4000
Q 4659 3684 4818 3271
Q 4978 2859 4978 2338
Q 4978 1809 4818 1395
Q 4659 981 4331 666
Q 3956 303 3431 151
Q 2906 0 1856 0
L 588 0
L 588 4666
z
" transform="scale(0.015625)"/>
      <path id="DejaVuSans-Bold-3a" d="M 716 3500
L 1844 3500
L 1844 2291
L 716 2291
L 716 3500
z
M 716 1209
L 1844 1209
L 1844 0
L 716 0
L 716 1209
z
" transform="scale(0.015625)"/>
      <path id="DejaVuSans-Bold-20" transform="scale(0.015625)"/>
      <path id="DejaVuSans-Bold-33" d="M 2981 2516
Q 3453 2394 3698 2092
Q 3944 1791 3944 1325
Q 3944 631 3412 270
Q 2881 -91 1863 -91
Q 1503 -91 1142 -33
Q 781 25 428 141
L 428 1069
Q 766 900 1098 814
Q 1431 728 1753 728
Q 2231 728 2486 893
Q 2741 1059 2741 1369
Q 2741 1688 2480 1852
Q 2219 2016 1709 2016
L 1228 2016
L 1228 2791
L 1734 2791
Q 2188 2791 2409 2933
Q 2631 3075 2631 3366
Q 2631 3634 2415 3781
Q 2200 3928 1806 3928
Q 1516 3928 1219 3862
Q 922 3797 628 3669
L 628 4550
Q 984 4650 1334 4700
Q 1684 4750 2022 4750
Q 2931 4750 3382 4451
Q 3834 4153 3834 3553
Q 3834 3144 3618 2883
Q 3403 2622 2981 2516
z
" transform="scale(0.015625)"/>
      <path id="DejaVuSans-Bold-39" d="M 641 103
L 641 966
Q 928 831 1190 764
Q 1453 697 1709 697
Q 2247 697 2547 995
Q 2847 1294 2900 1881
Q 2688 1725 2447 1647
Q 2206 1569 1925 1569
Q 1209 1569 770 1986
Q 331 2403 331 3084
Q 331 3838 820 4291
Q 1309 4744 2131 4744
Q 3044 4744 3544 4128
Q 4044 3513 4044 2388
Q 4044 1231 3459 570
Q 2875 -91 1856 -91
Q 1528 -91 1228 -42
Q 928 6 641 103
z
M 2125 2350
Q 2441 2350 2600 2554
Q 2759 2759 2759 3169
Q 2759 3575 2600 3781
Q 2441 3988 2125 3988
Q 1809 3988 1650 3781
Q 1491 3575 1491 3169
Q 1491 2759 1650 2554
Q 1809 2350 2125 2350
z
" transform="scale(0.015625)"/>
      <path id="DejaVuSans-Bold-25" d="M 4959 1925
Q 4738 1925 4616 1733
Q 4494 1541 4494 1184
Q 4494 825 4614 633
Q 4734 441 4959 441
Q 5184 441 5303 633
Q 5422 825 5422 1184
Q 5422 1541 5301 1733
Q 5181 1925 4959 1925
z
M 4959 2450
Q 5541 2450 5875 2112
Q 6209 1775 6209 1184
Q 6209 594 5875 251
Q 5541 -91 4959 -91
Q 4378 -91 4042 251
Q 3706 594 3706 1184
Q 3706 1772 4042 2111
Q 4378 2450 4959 2450
z
M 2094 -91
L 1403 -91
L 4319 4750
L 5013 4750
L 2094 -91
z
M 1453 4750
Q 2034 4750 2367 4411
Q 2700 4072 2700 3481
Q 2700 2891 2367 2550
Q 2034 2209 1453 2209
Q 872 2209 539 2550
Q 206 2891 206 3481
Q 206 4072 539 4411
Q 872 4750 1453 4750
z
M 1453 4225
Q 1228 4225 1106 4031
Q 984 3838 984 3481
Q 984 3122 1106 2926
Q 1228 2731 1453 2731
Q 1678 2731 1798 2926
Q 1919 3122 1919 3481
Q 1919 3838 1797 4031
Q 1675 4225 1453 4225
z
" transform="scale(0.015625)"/>
      <path id="DejaVuSans-Bold-6c" d="M 538 4863
L 1656 4863
L 1656 0
L 538 0
L 538 4863
z
" transform="scale(0.015625)"/>
      <path id="DejaVuSans-Bold-65" d="M 4031 1759
L 4031 1441
L 1416 1441
Q 1456 1047 1700 850
Q 1944 653 2381 653
Q 2734 653 3104 758
Q 3475 863 3866 1075
L 3866 213
Q 3469 63 3072 -14
Q 2675 -91 2278 -91
Q 1328 -91 801 392
Q 275 875 275 1747
Q 275 2603 792 3093
Q 1309 3584 2216 3584
Q 3041 3584 3536 3087
Q 4031 2591 4031 1759
z
M 2881 2131
Q 2881 2450 2695 2645
Q 2509 2841 2209 2841
Q 1884 2841 1681 2658
Q 1478 2475 1428 2131
L 2881 2131
z
" transform="scale(0.015625)"/>
      <path id="DejaVuSans-Bold-73" d="M 3272 3391
L 3272 2541
Q 2913 2691 2578 2766
Q 2244 2841 1947 2841
Q 1628 2841 1473 2761
Q 1319 2681 1319 2516
Q 1319 2381 1436 2309
Q 1553 2238 1856 2203
L 2053 2175
Q 2913 2066 3209 1816
Q 3506 1566 3506 1031
Q 3506 472 3093 190
Q 2681 -91 1863 -91
Q 1516 -91 1145 -36
Q 775 19 384 128
L 384 978
Q 719 816 1070 734
Q 1422 653 1784 653
Q 2113 653 2278 743
Q 2444 834 2444 1013
Q 2444 1163 2330 1236
Q 2216 1309 1875 1350
L 1678 1375
Q 931 1469 631 1722
Q 331 1975 331 2491
Q 331 3047 712 3315
Q 1094 3584 1881 3584
Q 2191 3584 2531 3537
Q 2872 3491 3272 3391
z
" transform="scale(0.015625)"/>
     </defs>
     <use xlink:href="#DejaVuSans-Bold-54"/>
     <use xlink:href="#DejaVuSans-Bold-52" x="68.212891"/>
     <use xlink:href="#DejaVuSans-Bold-53" x="145.214844"/>
     <use xlink:href="#DejaVuSans-Bold-44" x="217.236328"/>
     <use xlink:href="#DejaVuSans-Bold-3a" x="300.244141"/>
     <use xlink:href="#DejaVuSans-Bold-20" x="340.234375"/>
     <use xlink:href="#DejaVuSans-Bold-33" x="375.048828"/>
     <use xlink:href="#DejaVuSans-Bold-39" x="444.628906"/>
     <use xlink:href="#DejaVuSans-Bold-2e" x="514.208984"/>
     <use xlink:href="#DejaVuSans-Bold-39" x="552.197266"/>
     <use xlink:href="#DejaVuSans-Bold-25" x="621.777344"/>
     <use xlink:href="#DejaVuSans-Bold-20" x="721.972656"/>
     <use xlink:href="#DejaVuSans-Bold-6c" x="756.787109"/>
     <use xlink:href="#DejaVuSans-Bold-65" x="791.064453"/>
     <use xlink:href="#DejaVuSans-Bold-73" x="858.886719"/>
     <use xlink:href="#DejaVuSans-Bold-73" x="918.408203"/>
    </g>
    <!-- marker transfer at step 64 -->
    <g style="fill: #d9534f" transform="translate(325.365175 95.606982) scale(0.1 -0.1)">
     <defs>
      <path id="DejaVuSans-Bold-6d" d="M 3781 2919
Q 3994 3244 4286 3414
Q 4578 3584 4928 3584
Q 5531 3584 5847 3212
Q 6163 2841 6163 2131
L 6163 0
L 5038 0
L 5038 1825
Q 5041 1866 5042 1909
Q 5044 1953 5044 2034
Q 5044 2406 4934 2573
Q 4825 2741 4581 2741
Q 4263 2741 4089 2478
Q 3916 2216 3909 1719
L 3909 0
L 2784 0
L 2784 1825
Q 2784 2406 2684 2573
Q 2584 2741 2328 2741
Q 2006 2741 1831 2477
Q 1656 2213 1656 1722
L 1656 0
L 531 0
L 531 3500
L 1656 3500
L 1656 2988
Q 1863 3284 2130 3434
Q 2397 3584 2719 3584
Q 3081 3584 3359 3409
Q 3638 3234 3781 2919
z
" transform="scale(0.015625)"/>
      <path id="DejaVuSans-Bold-61" d="M 2106 1575
Q 1756 1575 1579 1456
Q 1403 1338 1403 1106
Q 1403 894 1545 773
Q 1688 653 1941 653
Q 2256 653 2472 879
Q 2688 1106 2688 1447
L 2688 1575
L 2106 1575
z
M 3816 1997
L 3816 0
L 2688 0
L 2688 519
Q 2463 200 2181 54
Q 1900 -91 1497 -91
Q 953 -91 614 226
Q 275 544 275 1050
Q 275 1666 698 1953
Q 1122 2241 2028 2241
L 2688 2241
L 2688 2328
Q 2688 2594 2478 2717
Q 2269 2841 1825 2841
Q 1466 2841 1156 2769
Q 847 2697 581 2553
L 581 3406
Q 941 3494 1303 3539
Q 1666 3584 2028 3584
Q 2975 3584 3395 3211
Q 3816 2838 3816 1997
z
" transform="scale(0.015625)"/>
      <path id="DejaVuSans-Bold-72" d="M 3138 2547
Q 2991 2616 2845 2648
Q 2700 2681 2553 2681
Q 2122 2681 1889 2404
Q 1656 2128 1656 1613
L 1656 0
L 538 0
L 538 3500
L 1656 3500
L 1656 2925
Q 1872 3269 2151 3426
Q 2431 3584 2822 3584
Q 2878 3584 2943 3579
Q 3009 3575 3134 3559
L 3138 2547
z
" transform="scale(0.015625)"/>
      <path id="DejaVuSans-Bold-6b" d="M 538 4863
L 1656 4863
L 1656 2216
L 2944 3500
L 4244 3500
L 2534 1894
L 4378 0
L 3022 0
L 1656 1459
L 1656 0
L 538 0
L 538 4863
z
" transform="scale(0.015625)"/>
      <path id="DejaVuSans-Bold-74" d="M 1759 4494
L 1759 3500
L 2913 3500
L 2913 2700
L 1759 2700
L 1759 1216
Q 1759 972 1856 886
Q 1953 800 2241 800
L 2816 800
L 2816 0
L 1856 0
Q 1194 0 917 276
Q 641 553 641 1216
L 641 2700
L 84 2700
L 84 3500
L 641 3500
L 641 4494
L 1759 4494
z
" transform="scale(0.015625)"/>
      <path id="DejaVuSans-Bold-6e" d="M 4056 2131
L 4056 0
L 2931 0
L 2931 347
L 2931 1631
Q 2931 2084 2911 2256
Q 2891 2428 2841 2509
Q 2775 2619 2662 2680
Q 2550 2741 2406 2741
Q 2056 2741 1856 2470
Q 1656 2200 1656 1722
L 1656 0
L 538 0
L 538 3500
L 1656 3500
L 1656 2988
Q 1909 3294 2193 3439
Q 2478 3584 2822 3584
Q 3428 3584 3742 3212
Q 4056 2841 4056 2131
z
" transform="scale(0.015625)"/>
      <path id="DejaVuSans-Bold-66" d="M 2841 4863
L 2841 4128
L 2222 4128
Q 1984 4128 1890 4042
Q 1797 3956 1797 3744
L 1797 3500
L 2753 3500
L 2753 2700
L 1797 2700
L 1797 0
L 678 0
L 678 2700
L 122 2700
L 122 3500
L 678 3500
L 678 3744
Q 678 4316 997 4589
Q 1316 4863 1984 4863
L 2841 4863
z
" transform="scale(0.015625)"/>
      <path id="DejaVuSans-Bold-70" d="M 1656 506
L 1656 -1331
L 538 -1331
L 538 3500
L 1656 3500
L 1656 2988
Q 1888 3294 2169 3439
Q 2450 3584 2816 3584
Q 3463 3584 3878 3070
Q 4294 2556 4294 1747
Q 4294 938 3878 423
Q 3463 -91 2816 -91
Q 2450 -91 2169 54
Q 1888 200 1656 506
z
M 2400 2772
Q 2041 2772 1848 2508
Q 1656 2244 1656 1747
Q 1656 1250 1848 986
Q 2041 722 2400 722
Q 2759 722 2948 984
Q 3138 1247 3138 1747
Q 3138 2247 2948 2509
Q 2759 2772 2400 2772
z
" transform="scale(0.015625)"/>
      <path id="DejaVuSans-Bold-34" d="M 2356 3675
L 1038 1722
L 2356 1722
L 2356 3675
z
M 2156 4666
L 3494 4666
L 3494 1722
L 4159 1722
L 4159 850
L 3494 850
L 3494 0
L 2356 0
L 2356 850
L 288 850
L 288 1881
L 2156 4666
z
" transform="scale(0.015625)"/>
     </defs>
     <use xlink:href="#DejaVuSans-Bold-6d"/>
     <use xlink:href="#DejaVuSans-Bold-61" x="104.199219"/>
     <use xlink:href="#DejaVuSans-Bold-72" x="171.679688"/>
     <use xlink:href="#DejaVuSans-Bold-6b" x="220.996094"/>
     <use xlink:href="#DejaVuSans-Bold-65" x="284.875"/>
     <use xlink:href="#DejaVuSans-Bold-72" x="352.697266"/>
     <use xlink:href="#DejaVuSans-Bold-20" x="402.013672"/>
     <use xlink:href="#DejaVuSans-Bold-74" x="436.828125"/>
     <use xlink:href="#DejaVuSans-Bold-72" x="484.630859"/>
     <use xlink:href="#DejaVuSans-Bold-61" x="533.947266"/>
     <use xlink:href="#DejaVuSans-Bold-6e" x="601.427734"/>
     <use xlink:href="#DejaVuSans-Bold-73" x="672.619141"/>
     <use xlink:href="#DejaVuSans-Bold-66" x="732.140625"/>
     <use xlink:href="#DejaVuSans-Bold-65" x="775.646484"/>
     <use xlink:href="#DejaVuSans-Bold-72" x="843.46875"/>
     <use xlink:href="#DejaVuSans-Bold-20" x="892.785156"/>
     <use xlink:href="#DejaVuSans-Bold-61" x="927.599609"/>
     <use xlink:href="#DejaVuSans-Bold-74" x="995.080078"/>
     <use xlink:href="#DejaVuSans-Bold-20" x="1042.882812"/>
     <use xlink:href="#DejaVuSans-Bold-73" x="1077.697266"/>
     <use xlink:href="#DejaVuSans-Bold-74" x="1137.21875"/>
     <use xlink:href="#DejaVuSans-Bold-65" x="1185.021484"/>
     <use xlink:href="#DejaVuSans-Bold-70" x="1252.84375"/>
     <use xlink:href="#DejaVuSans-Bold-20" x="1324.425781"/>
     <use xlink:href="#DejaVuSans-Bold-36" x="1359.240234"/>
     <use xlink:href="#DejaVuSans-Bold-34" x="1428.820312"/>
    </g>
   </g>
   <g id="text_20">
    <!-- Raw privileged style transfer accumulates across training -->
    <g transform="translate(71.223063 17.837812) scale(0.14 -0.14)">
     <defs>
      <path id="DejaVuSans-Bold-77" d="M 225 3500
L 1313 3500
L 1900 1088
L 2491 3500
L 3425 3500
L 4013 1113
L 4603 3500
L 5691 3500
L 4769 0
L 3547 0
L 2956 2406
L 2369 0
L 1147 0
L 225 3500
z
" transform="scale(0.015625)"/>
      <path id="DejaVuSans-Bold-69" d="M 538 3500
L 1656 3500
L 1656 0
L 538 0
L 538 3500
z
M 538 4863
L 1656 4863
L 1656 3950
L 538 3950
L 538 4863
z
" transform="scale(0.015625)"/>
      <path id="DejaVuSans-Bold-76" d="M 97 3500
L 1216 3500
L 2088 1081
L 2956 3500
L 4078 3500
L 2700 0
L 1472 0
L 97 3500
z
" transform="scale(0.015625)"/>
      <path id="DejaVuSans-Bold-67" d="M 2919 594
Q 2688 288 2409 144
Q 2131 0 1766 0
Q 1125 0 706 504
Q 288 1009 288 1791
Q 288 2575 706 3076
Q 1125 3578 1766 3578
Q 2131 3578 2409 3434
Q 2688 3291 2919 2981
L 2919 3500
L 4044 3500
L 4044 353
Q 4044 -491 3511 -936
Q 2978 -1381 1966 -1381
Q 1638 -1381 1331 -1331
Q 1025 -1281 716 -1178
L 716 -306
Q 1009 -475 1290 -558
Q 1572 -641 1856 -641
Q 2406 -641 2662 -400
Q 2919 -159 2919 353
L 2919 594
z
M 2181 2772
Q 1834 2772 1640 2515
Q 1447 2259 1447 1791
Q 1447 1309 1634 1061
Q 1822 813 2181 813
Q 2531 813 2725 1069
Q 2919 1325 2919 1791
Q 2919 2259 2725 2515
Q 2531 2772 2181 2772
z
" transform="scale(0.015625)"/>
      <path id="DejaVuSans-Bold-64" d="M 2919 2988
L 2919 4863
L 4044 4863
L 4044 0
L 2919 0
L 2919 506
Q 2688 197 2409 53
Q 2131 -91 1766 -91
Q 1119 -91 703 423
Q 288 938 288 1747
Q 288 2556 703 3070
Q 1119 3584 1766 3584
Q 2128 3584 2408 3439
Q 2688 3294 2919 2988
z
M 2181 722
Q 2541 722 2730 984
Q 2919 1247 2919 1747
Q 2919 2247 2730 2509
Q 2541 2772 2181 2772
Q 1825 2772 1636 2509
Q 1447 2247 1447 1747
Q 1447 1247 1636 984
Q 1825 722 2181 722
z
" transform="scale(0.015625)"/>
      <path id="DejaVuSans-Bold-79" d="M 78 3500
L 1197 3500
L 2138 1125
L 2938 3500
L 4056 3500
L 2584 -331
Q 2363 -916 2067 -1148
Q 1772 -1381 1288 -1381
L 641 -1381
L 641 -647
L 991 -647
Q 1275 -647 1404 -556
Q 1534 -466 1606 -231
L 1638 -134
L 78 3500
z
" transform="scale(0.015625)"/>
      <path id="DejaVuSans-Bold-63" d="M 3366 3391
L 3366 2478
Q 3138 2634 2908 2709
Q 2678 2784 2431 2784
Q 1963 2784 1702 2511
Q 1441 2238 1441 1747
Q 1441 1256 1702 982
Q 1963 709 2431 709
Q 2694 709 2930 787
Q 3166 866 3366 1019
L 3366 103
Q 3103 6 2833 -42
Q 2563 -91 2291 -91
Q 1344 -91 809 395
Q 275 881 275 1747
Q 275 2613 809 3098
Q 1344 3584 2291 3584
Q 2566 3584 2833 3536
Q 3100 3488 3366 3391
z
" transform="scale(0.015625)"/>
      <path id="DejaVuSans-Bold-75" d="M 500 1363
L 500 3500
L 1625 3500
L 1625 3150
Q 1625 2866 1622 2436
Q 1619 2006 1619 1863
Q 1619 1441 1641 1255
Q 1663 1069 1716 984
Q 1784 875 1895 815
Q 2006 756 2150 756
Q 2500 756 2700 1025
Q 2900 1294 2900 1772
L 2900 3500
L 4019 3500
L 4019 0
L 2900 0
L 2900 506
Q 2647 200 2364 54
Q 2081 -91 1741 -91
Q 1134 -91 817 281
Q 500 653 500 1363
z
" transform="scale(0.015625)"/>
      <path id="DejaVuSans-Bold-6f" d="M 2203 2784
Q 1831 2784 1636 2517
Q 1441 2250 1441 1747
Q 1441 1244 1636 976
Q 1831 709 2203 709
Q 2569 709 2762 976
Q 2956 1244 2956 1747
Q 2956 2250 2762 2517
Q 2569 2784 2203 2784
z
M 2203 3584
Q 3106 3584 3614 3096
Q 4122 2609 4122 1747
Q 4122 884 3614 396
Q 3106 -91 2203 -91
Q 1297 -91 786 396
Q 275 884 275 1747
Q 275 2609 786 3096
Q 1297 3584 2203 3584
z
" transform="scale(0.015625)"/>
     </defs>
     <use xlink:href="#DejaVuSans-Bold-52"/>
     <use xlink:href="#DejaVuSans-Bold-61" x="77.001953"/>
     <use xlink:href="#DejaVuSans-Bold-77" x="144.482422"/>
     <use xlink:href="#DejaVuSans-Bold-20" x="236.865234"/>
     <use xlink:href="#DejaVuSans-Bold-70" x="271.679688"/>
     <use xlink:href="#DejaVuSans-Bold-72" x="343.261719"/>
     <use xlink:href="#DejaVuSans-Bold-69" x="392.578125"/>
     <use xlink:href="#DejaVuSans-Bold-76" x="426.855469"/>
     <use xlink:href="#DejaVuSans-Bold-69" x="492.041016"/>
     <use xlink:href="#DejaVuSans-Bold-6c" x="526.318359"/>
     <use xlink:href="#DejaVuSans-Bold-65" x="560.595703"/>
     <use xlink:href="#DejaVuSans-Bold-67" x="628.417969"/>
     <use xlink:href="#DejaVuSans-Bold-65" x="700"/>
     <use xlink:href="#DejaVuSans-Bold-64" x="767.822266"/>
     <use xlink:href="#DejaVuSans-Bold-20" x="839.404297"/>
     <use xlink:href="#DejaVuSans-Bold-73" x="874.21875"/>
     <use xlink:href="#DejaVuSans-Bold-74" x="933.740234"/>
     <use xlink:href="#DejaVuSans-Bold-79" x="981.542969"/>
     <use xlink:href="#DejaVuSans-Bold-6c" x="1046.728516"/>
     <use xlink:href="#DejaVuSans-Bold-65" x="1081.005859"/>
     <use xlink:href="#DejaVuSans-Bold-20" x="1148.828125"/>
     <use xlink:href="#DejaVuSans-Bold-74" x="1183.642578"/>
     <use xlink:href="#DejaVuSans-Bold-72" x="1231.445312"/>
     <use xlink:href="#DejaVuSans-Bold-61" x="1280.761719"/>
     <use xlink:href="#DejaVuSans-Bold-6e" x="1348.242188"/>
     <use xlink:href="#DejaVuSans-Bold-73" x="1419.433594"/>
     <use xlink:href="#DejaVuSans-Bold-66" x="1478.955078"/>
     <use xlink:href="#DejaVuSans-Bold-65" x="1522.460938"/>
     <use xlink:href="#DejaVuSans-Bold-72" x="1590.283203"/>
     <use xlink:href="#DejaVuSans-Bold-20" x="1639.599609"/>
     <use xlink:href="#DejaVuSans-Bold-61" x="1674.414062"/>
     <use xlink:href="#DejaVuSans-Bold-63" x="1741.894531"/>
     <use xlink:href="#DejaVuSans-Bold-63" x="1801.171875"/>
     <use xlink:href="#DejaVuSans-Bold-75" x="1860.449219"/>
     <use xlink:href="#DejaVuSans-Bold-6d" x="1931.640625"/>
     <use xlink:href="#DejaVuSans-Bold-75" x="2035.839844"/>
     <use xlink:href="#DejaVuSans-Bold-6c" x="2107.03125"/>
     <use xlink:href="#DejaVuSans-Bold-61" x="2141.308594"/>
     <use xlink:href="#DejaVuSans-Bold-74" x="2208.789062"/>
     <use xlink:href="#DejaVuSans-Bold-65" x="2256.591797"/>
     <use xlink:href="#DejaVuSans-Bold-73" x="2324.414062"/>
     <use xlink:href="#DejaVuSans-Bold-20" x="2383.935547"/>
     <use xlink:href="#DejaVuSans-Bold-61" x="2418.75"/>
     <use xlink:href="#DejaVuSans-Bold-63" x="2486.230469"/>
     <use xlink:href="#DejaVuSans-Bold-72" x="2545.507812"/>
     <use xlink:href="#DejaVuSans-Bold-6f" x="2594.824219"/>
     <use xlink:href="#DejaVuSans-Bold-73" x="2663.525391"/>
     <use xlink:href="#DejaVuSans-Bold-73" x="2723.046875"/>
     <use xlink:href="#DejaVuSans-Bold-20" x="2782.568359"/>
     <use xlink:href="#DejaVuSans-Bold-74" x="2817.382812"/>
     <use xlink:href="#DejaVuSans-Bold-72" x="2865.185547"/>
     <use xlink:href="#DejaVuSans-Bold-61" x="2914.501953"/>
     <use xlink:href="#DejaVuSans-Bold-69" x="2981.982422"/>
     <use xlink:href="#DejaVuSans-Bold-6e" x="3016.259766"/>
     <use xlink:href="#DejaVuSans-Bold-69" x="3087.451172"/>
     <use xlink:href="#DejaVuSans-Bold-6e" x="3121.728516"/>
     <use xlink:href="#DejaVuSans-Bold-67" x="3192.919922"/>
    </g>
   </g>
   <g id="legend_1">
    <g id="line2d_25">
     <path d="M 303.899781 118.311812
L 314.399781 118.311812
L 324.899781 118.311812
" style="fill: none; stroke: #2878b5; stroke-width: 2.7; stroke-linecap: square"/>
    </g>
    <g id="text_21">
     <!-- Privileged-SD · cumulative -->
     <g transform="translate(333.299781 121.986812) scale(0.105 -0.105)">
      <defs>
       <path id="DejaVuSans-50" d="M 1259 4147
L 1259 2394
L 2053 2394
Q 2494 2394 2734 2622
Q 2975 2850 2975 3272
Q 2975 3691 2734 3919
Q 2494 4147 2053 4147
L 1259 4147
z
M 628 4666
L 2053 4666
Q 2838 4666 3239 4311
Q 3641 3956 3641 3272
Q 3641 2581 3239 2228
Q 2838 1875 2053 1875
L 1259 1875
L 1259 0
L 628 0
L 628 4666
z
" transform="scale(0.015625)"/>
       <path id="DejaVuSans-76" d="M 191 3500
L 800 3500
L 1894 563
L 2988 3500
L 3597 3500
L 2284 0
L 1503 0
L 191 3500
z
" transform="scale(0.015625)"/>
       <path id="DejaVuSans-53" d="M 3425 4513
L 3425 3897
Q 3066 4069 2747 4153
Q 2428 4238 2131 4238
Q 1616 4238 1336 4038
Q 1056 3838 1056 3469
Q 1056 3159 1242 3001
Q 1428 2844 1947 2747
L 2328 2669
Q 3034 2534 3370 2195
Q 3706 1856 3706 1288
Q 3706 609 3251 259
Q 2797 -91 1919 -91
Q 1588 -91 1214 -16
Q 841 59 441 206
L 441 856
Q 825 641 1194 531
Q 1563 422 1919 422
Q 2459 422 2753 634
Q 3047 847 3047 1241
Q 3047 1584 2836 1778
Q 2625 1972 2144 2069
L 1759 2144
Q 1053 2284 737 2584
Q 422 2884 422 3419
Q 422 4038 858 4394
Q 1294 4750 2059 4750
Q 2388 4750 2728 4690
Q 3069 4631 3425 4513
z
" transform="scale(0.015625)"/>
       <path id="DejaVuSans-44" d="M 1259 4147
L 1259 519
L 2022 519
Q 2988 519 3436 956
Q 3884 1394 3884 2338
Q 3884 3275 3436 3711
Q 2988 4147 2022 4147
L 1259 4147
z
M 628 4666
L 1925 4666
Q 3281 4666 3915 4102
Q 4550 3538 4550 2338
Q 4550 1131 3912 565
Q 3275 0 1925 0
L 628 0
L 628 4666
z
" transform="scale(0.015625)"/>
       <path id="DejaVuSans-b7" d="M 684 2619
L 1344 2619
L 1344 1825
L 684 1825
L 684 2619
z
" transform="scale(0.015625)"/>
      </defs>
      <use xlink:href="#DejaVuSans-50"/>
      <use xlink:href="#DejaVuSans-72" x="58.552734"/>
      <use xlink:href="#DejaVuSans-69" x="99.666016"/>
      <use xlink:href="#DejaVuSans-76" x="127.449219"/>
      <use xlink:href="#DejaVuSans-69" x="186.628906"/>
      <use xlink:href="#DejaVuSans-6c" x="214.412109"/>
      <use xlink:href="#DejaVuSans-65" x="242.195312"/>
      <use xlink:href="#DejaVuSans-67" x="303.71875"/>
      <use xlink:href="#DejaVuSans-65" x="367.195312"/>
      <use xlink:href="#DejaVuSans-64" x="428.71875"/>
      <use xlink:href="#DejaVuSans-2d" x="492.195312"/>
      <use xlink:href="#DejaVuSans-53" x="528.279297"/>
      <use xlink:href="#DejaVuSans-44" x="591.755859"/>
      <use xlink:href="#DejaVuSans-20" x="668.757812"/>
      <use xlink:href="#DejaVuSans-b7" x="700.544922"/>
      <use xlink:href="#DejaVuSans-20" x="732.332031"/>
      <use xlink:href="#DejaVuSans-63" x="764.119141"/>
      <use xlink:href="#DejaVuSans-75" x="819.099609"/>
      <use xlink:href="#DejaVuSans-6d" x="882.478516"/>
      <use xlink:href="#DejaVuSans-75" x="979.890625"/>
      <use xlink:href="#DejaVuSans-6c" x="1043.269531"/>
      <use xlink:href="#DejaVuSans-61" x="1071.052734"/>
      <use xlink:href="#DejaVuSans-74" x="1132.332031"/>
      <use xlink:href="#DejaVuSans-69" x="1171.541016"/>
      <use xlink:href="#DejaVuSans-76" x="1199.324219"/>
      <use xlink:href="#DejaVuSans-65" x="1258.503906"/>
     </g>
    </g>
    <g id="line2d_26">
     <path d="M 303.899781 133.723843
L 314.399781 133.723843
L 324.899781 133.723843
" style="fill: none; stroke: #d9534f; stroke-width: 2.7; stroke-linecap: square"/>
    </g>
    <g id="text_22">
     <!-- TRSD · cumulative -->
     <g transform="translate(333.299781 137.398843) scale(0.105 -0.105)">
      <defs>
       <path id="DejaVuSans-52" d="M 2841 2188
Q 3044 2119 3236 1894
Q 3428 1669 3622 1275
L 4263 0
L 3584 0
L 2988 1197
Q 2756 1666 2539 1819
Q 2322 1972 1947 1972
L 1259 1972
L 1259 0
L 628 0
L 628 4666
L 2053 4666
Q 2853 4666 3247 4331
Q 3641 3997 3641 3322
Q 3641 2881 3436 2590
Q 3231 2300 2841 2188
z
M 1259 4147
L 1259 2491
L 2053 2491
Q 2509 2491 2742 2702
Q 2975 2913 2975 3322
Q 2975 3731 2742 3939
Q 2509 4147 2053 4147
L 1259 4147
z
" transform="scale(0.015625)"/>
      </defs>
      <use xlink:href="#DejaVuSans-54"/>
      <use xlink:href="#DejaVuSans-52" x="61.083984"/>
      <use xlink:href="#DejaVuSans-53" x="130.566406"/>
      <use xlink:href="#DejaVuSans-44" x="194.042969"/>
      <use xlink:href="#DejaVuSans-20" x="271.044922"/>
      <use xlink:href="#DejaVuSans-b7" x="302.832031"/>
      <use xlink:href="#DejaVuSans-20" x="334.619141"/>
      <use xlink:href="#DejaVuSans-63" x="366.40625"/>
      <use xlink:href="#DejaVuSans-75" x="421.386719"/>
      <use xlink:href="#DejaVuSans-6d" x="484.765625"/>
      <use xlink:href="#DejaVuSans-75" x="582.177734"/>
      <use xlink:href="#DejaVuSans-6c" x="645.556641"/>
      <use xlink:href="#DejaVuSans-61" x="673.339844"/>
      <use xlink:href="#DejaVuSans-74" x="734.619141"/>
      <use xlink:href="#DejaVuSans-69" x="773.828125"/>
      <use xlink:href="#DejaVuSans-76" x="801.611328"/>
      <use xlink:href="#DejaVuSans-65" x="860.791016"/>
     </g>
    </g>
   </g>
  </g>
 </g>
 <defs>
  <clipPath id="p36c71b915c">
   <rect x="71.223063" y="23.837812" width="410.13" height="252.252"/>
  </clipPath>
 </defs>
</svg>
