<?xml version="1.0" encoding="utf-8" standalone="no"?>
<!DOCTYPE svg PUBLIC "-//W3C//DTD SVG 1.1//EN"
  "http://www.w3.org/Graphics/SVG/1.1/DTD/svg11.dtd">
<svg xmlns:xlink="http://www.w3.org/1999/xlink" width="514.752969pt" height="315.097781pt" viewBox="0 0 514.752969 315.097781" xmlns="http://www.w3.org/2000/svg" version="1.1">
 <metadata>
  <rdf:RDF xmlns:dc="http://purl.org/dc/elements/1.1/" xmlns:cc="http://creativecommons.org/ns#" xmlns:rdf="http://www.w3.org/1999/02/22-rdf-syntax-ns#">
   <cc:Work>
    <dc:type rdf:resource="http://purl.org/dc/dcmitype/StillImage"/>
    <dc:date>2026-08-09T13:20:25.855978</dc:date>
    <dc:format>image/svg+xml</dc:format>
    <dc:creator>
     <cc:Agent>
      <dc:title>Matplotlib v3.8.0, https://matplotlib.org/</dc:title>
     </cc:Agent>
    </dc:creator>
   </cc:Work>
  </rdf:RDF>
 </metadata>
 <defs>
  <style type="text/css">*{stroke-linejoin: round; stroke-linecap: butt}</style>
 </defs>
 <g id="figure_1">
  <g id="patch_1">
   <path d="M 0 315.097781
L 514.752969 315.097781
L 514.752969 0
L 0 0
z
" style="fill: #ffffff"/>
  </g>
  <g id="axes_1">
   <g id="patch_2">
    <path d="M 45.544219 276.089812
L 455.674219 276.089812
L 455.674219 23.837812
L 45.544219 23.837812
z
" style="fill: #ffffff"/>
   </g>
   <g id="matplotlib.axis_1">
    <g id="xtick_1">
     <g id="line2d_1">
      <defs>
       <path id="m5433866364" d="M 0 0
L 0 3.5
" style="stroke: #000000; stroke-width: 0.8"/>
      </defs>
      <g>
       <use xlink:href="#m5433866364" x="45.544219" y="276.089812" style="stroke: #000000; stroke-width: 0.8"/>
      </g>
     </g>
     <g id="text_1">
      <!-- 0 -->
      <g transform="translate(42.203906 291.068172) scale(0.105 -0.105)">
       <defs>
        <path id="DejaVuSans-30" d="M 2034 4250
Q 1547 4250 1301 3770
Q 1056 3291 1056 2328
Q 1056 1369 1301 889
Q 1547 409 2034 409
Q 2525 409 2770 889
Q 3016 1369 3016 2328
Q 3016 3291 2770 3770
Q 2525 4250 2034 4250
z
M 2034 4750
Q 2819 4750 3233 4129
Q 3647 3509 3647 2328
Q 3647 1150 3233 529
Q 2819 -91 2034 -91
Q 1250 -91 836 529
Q 422 1150 422 2328
Q 422 3509 836 4129
Q 1250 4750 2034 4750
z
" transform="scale(0.015625)"/>
       </defs>
       <use xlink:href="#DejaVuSans-30"/>
      </g>
     </g>
    </g>
    <g id="xtick_2">
     <g id="line2d_2">
      <g>
       <use xlink:href="#m5433866364" x="102.792163" y="276.089812" style="stroke: #000000; stroke-width: 0.8"/>
      </g>
     </g>
     <g id="text_2">
      <!-- 500 -->
      <g transform="translate(92.771226 291.068172) scale(0.105 -0.105)">
       <defs>
        <path id="DejaVuSans-35" d="M 691 4666
L 3169 4666
L 3169 4134
L 1269 4134
L 1269 2991
Q 1406 3038 1543 3061
Q 1681 3084 1819 3084
Q 2600 3084 3056 2656
Q 3513 2228 3513 1497
Q 3513 744 3044 326
Q 2575 -91 1722 -91
Q 1428 -91 1123 -41
Q 819 9 494 109
L 494 744
Q 775 591 1075 516
Q 1375 441 1709 441
Q 2250 441 2565 725
Q 2881 1009 2881 1497
Q 2881 1984 2565 2268
Q 2250 2553 1709 2553
Q 1456 2553 1204 2497
Q 953 2441 691 2322
L 691 4666
z
" transform="scale(0.015625)"/>
       </defs>
       <use xlink:href="#DejaVuSans-35"/>
       <use xlink:href="#DejaVuSans-30" x="63.623047"/>
       <use xlink:href="#DejaVuSans-30" x="127.246094"/>
      </g>
     </g>
    </g>
    <g id="xtick_3">
     <g id="line2d_3">
      <g>
       <use xlink:href="#m5433866364" x="160.040108" y="276.089812" style="stroke: #000000; stroke-width: 0.8"/>
      </g>
     </g>
     <g id="text_3">
      <!-- 1000 -->
      <g transform="translate(146.678858 291.068172) scale(0.105 -0.105)">
       <defs>
        <path id="DejaVuSans-31" d="M 794 531
L 1825 531
L 1825 4091
L 703 3866
L 703 4441
L 1819 4666
L 2450 4666
L 2450 531
L 3481 531
L 3481 0
L 794 0
L 794 531
z
" transform="scale(0.015625)"/>
       </defs>
       <use xlink:href="#DejaVuSans-31"/>
       <use xlink:href="#DejaVuSans-30" x="63.623047"/>
       <use xlink:href="#DejaVuSans-30" x="127.246094"/>
       <use xlink:href="#DejaVuSans-30" x="190.869141"/>
      </g>
     </g>
    </g>
    <g id="xtick_4">
     <g id="line2d_4">
      <g>
       <use xlink:href="#m5433866364" x="217.288053" y="276.089812" style="stroke: #000000; stroke-width: 0.8"/>
      </g>
     </g>
     <g id="text_4">
      <!-- 1500 -->
      <g transform="translate(203.926803 291.068172) scale(0.105 -0.105)">
       <use xlink:href="#DejaVuSans-31"/>
       <use xlink:href="#DejaVuSans-35" x="63.623047"/>
       <use xlink:href="#DejaVuSans-30" x="127.246094"/>
       <use xlink:href="#DejaVuSans-30" x="190.869141"/>
      </g>
     </g>
    </g>
    <g id="xtick_5">
     <g id="line2d_5">
      <g>
       <use xlink:href="#m5433866364" x="274.535997" y="276.089812" style="stroke: #000000; stroke-width: 0.8"/>
      </g>
     </g>
     <g id="text_5">
      <!-- 2000 -->
      <g transform="translate(261.174747 291.068172) scale(0.105 -0.105)">
       <defs>
        <path id="DejaVuSans-32" d="M 1228 531
L 3431 531
L 3431 0
L 469 0
L 469 531
Q 828 903 1448 1529
Q 2069 2156 2228 2338
Q 2531 2678 2651 2914
Q 2772 3150 2772 3378
Q 2772 3750 2511 3984
Q 2250 4219 1831 4219
Q 1534 4219 1204 4116
Q 875 4013 500 3803
L 500 4441
Q 881 4594 1212 4672
Q 1544 4750 1819 4750
Q 2544 4750 2975 4387
Q 3406 4025 3406 3419
Q 3406 3131 3298 2873
Q 3191 2616 2906 2266
Q 2828 2175 2409 1742
Q 1991 1309 1228 531
z
" transform="scale(0.015625)"/>
       </defs>
       <use xlink:href="#DejaVuSans-32"/>
       <use xlink:href="#DejaVuSans-30" x="63.623047"/>
       <use xlink:href="#DejaVuSans-30" x="127.246094"/>
       <use xlink:href="#DejaVuSans-30" x="190.869141"/>
      </g>
     </g>
    </g>
    <g id="xtick_6">
     <g id="line2d_6">
      <g>
       <use xlink:href="#m5433866364" x="331.783942" y="276.089812" style="stroke: #000000; stroke-width: 0.8"/>
      </g>
     </g>
     <g id="text_6">
      <!-- 2500 -->
      <g transform="translate(318.422692 291.068172) scale(0.105 -0.105)">
       <use xlink:href="#DejaVuSans-32"/>
       <use xlink:href="#DejaVuSans-35" x="63.623047"/>
       <use xlink:href="#DejaVuSans-30" x="127.246094"/>
       <use xlink:href="#DejaVuSans-30" x="190.869141"/>
      </g>
     </g>
    </g>
    <g id="xtick_7">
     <g id="line2d_7">
      <g>
       <use xlink:href="#m5433866364" x="389.031886" y="276.089812" style="stroke: #000000; stroke-width: 0.8"/>
      </g>
     </g>
     <g id="text_7">
      <!-- 3000 -->
      <g transform="translate(375.670636 291.068172) scale(0.105 -0.105)">
       <defs>
        <path id="DejaVuSans-33" d="M 2597 2516
Q 3050 2419 3304 2112
Q 3559 1806 3559 1356
Q 3559 666 3084 287
Q 2609 -91 1734 -91
Q 1441 -91 1130 -33
Q 819 25 488 141
L 488 750
Q 750 597 1062 519
Q 1375 441 1716 441
Q 2309 441 2620 675
Q 2931 909 2931 1356
Q 2931 1769 2642 2001
Q 2353 2234 1838 2234
L 1294 2234
L 1294 2753
L 1863 2753
Q 2328 2753 2575 2939
Q 2822 3125 2822 3475
Q 2822 3834 2567 4026
Q 2313 4219 1838 4219
Q 1578 4219 1281 4162
Q 984 4106 628 3988
L 628 4550
Q 988 4650 1302 4700
Q 1616 4750 1894 4750
Q 2613 4750 3031 4423
Q 3450 4097 3450 3541
Q 3450 3153 3228 2886
Q 3006 2619 2597 2516
z
" transform="scale(0.015625)"/>
       </defs>
       <use xlink:href="#DejaVuSans-33"/>
       <use xlink:href="#DejaVuSans-30" x="63.623047"/>
       <use xlink:href="#DejaVuSans-30" x="127.246094"/>
       <use xlink:href="#DejaVuSans-30" x="190.869141"/>
      </g>
     </g>
    </g>
    <g id="xtick_8">
     <g id="line2d_8">
      <g>
       <use xlink:href="#m5433866364" x="446.279831" y="276.089812" style="stroke: #000000; stroke-width: 0.8"/>
      </g>
     </g>
     <g id="text_8">
      <!-- 3500 -->
      <g transform="translate(432.918581 291.068172) scale(0.105 -0.105)">
       <use xlink:href="#DejaVuSans-33"/>
       <use xlink:href="#DejaVuSans-35" x="63.623047"/>
       <use xlink:href="#DejaVuSans-30" x="127.246094"/>
       <use xlink:href="#DejaVuSans-30" x="190.869141"/>
      </g>
     </g>
    </g>
    <g id="text_9">
     <!-- Cumulative token-update microstep (128 response tokens) -->
     <g transform="translate(88.417656 305.610125) scale(0.11 -0.11)">
      <defs>
       <path id="DejaVuSans-43" d="M 4122 4306
L 4122 3641
Q 3803 3938 3442 4084
Q 3081 4231 2675 4231
Q 1875 4231 1450 3742
Q 1025 3253 1025 2328
Q 1025 1406 1450 917
Q 1875 428 2675 428
Q 3081 428 3442 575
Q 3803 722 4122 1019
L 4122 359
Q 3791 134 3420 21
Q 3050 -91 2638 -91
Q 1578 -91 968 557
Q 359 1206 359 2328
Q 359 3453 968 4101
Q 1578 4750 2638 4750
Q 3056 4750 3426 4639
Q 3797 4528 4122 4306
z
" transform="scale(0.015625)"/>
       <path id="DejaVuSans-75" d="M 544 1381
L 544 3500
L 1119 3500
L 1119 1403
Q 1119 906 1312 657
Q 1506 409 1894 409
Q 2359 409 2629 706
Q 2900 1003 2900 1516
L 2900 3500
L 3475 3500
L 3475 0
L 2900 0
L 2900 538
Q 2691 219 2414 64
Q 2138 -91 1772 -91
Q 1169 -91 856 284
Q 544 659 544 1381
z
M 1991 3584
L 1991 3584
z
" transform="scale(0.015625)"/>
       <path id="DejaVuSans-6d" d="M 3328 2828
Q 3544 3216 3844 3400
Q 4144 3584 4550 3584
Q 5097 3584 5394 3201
Q 5691 2819 5691 2113
L 5691 0
L 5113 0
L 5113 2094
Q 5113 2597 4934 2840
Q 4756 3084 4391 3084
Q 3944 3084 3684 2787
Q 3425 2491 3425 1978
L 3425 0
L 2847 0
L 2847 2094
Q 2847 2600 2669 2842
Q 2491 3084 2119 3084
Q 1678 3084 1418 2786
Q 1159 2488 1159 1978
L 1159 0
L 581 0
L 581 3500
L 1159 3500
L 1159 2956
Q 1356 3278 1631 3431
Q 1906 3584 2284 3584
Q 2666 3584 2933 3390
Q 3200 3197 3328 2828
z
" transform="scale(0.015625)"/>
       <path id="DejaVuSans-6c" d="M 603 4863
L 1178 4863
L 1178 0
L 603 0
L 603 4863
z
" transform="scale(0.015625)"/>
       <path id="DejaVuSans-61" d="M 2194 1759
Q 1497 1759 1228 1600
Q 959 1441 959 1056
Q 959 750 1161 570
Q 1363 391 1709 391
Q 2188 391 2477 730
Q 2766 1069 2766 1631
L 2766 1759
L 2194 1759
z
M 3341 1997
L 3341 0
L 2766 0
L 2766 531
Q 2569 213 2275 61
Q 1981 -91 1556 -91
Q 1019 -91 701 211
Q 384 513 384 1019
Q 384 1609 779 1909
Q 1175 2209 1959 2209
L 2766 2209
L 2766 2266
Q 2766 2663 2505 2880
Q 2244 3097 1772 3097
Q 1472 3097 1187 3025
Q 903 2953 641 2809
L 641 3341
Q 956 3463 1253 3523
Q 1550 3584 1831 3584
Q 2591 3584 2966 3190
Q 3341 2797 3341 1997
z
" transform="scale(0.015625)"/>
       <path id="DejaVuSans-74" d="M 1172 4494
L 1172 3500
L 2356 3500
L 2356 3053
L 1172 3053
L 1172 1153
Q 1172 725 1289 603
Q 1406 481 1766 481
L 2356 481
L 2356 0
L 1766 0
Q 1100 0 847 248
Q 594 497 594 1153
L 594 3053
L 172 3053
L 172 3500
L 594 3500
L 594 4494
L 1172 4494
z
" transform="scale(0.015625)"/>
       <path id="DejaVuSans-69" d="M 603 3500
L 1178 3500
L 1178 0
L 603 0
L 603 3500
z
M 603 4863
L 1178 4863
L 1178 4134
L 603 4134
L 603 4863
z
" transform="scale(0.015625)"/>
       <path id="DejaVuSans-76" d="M 191 3500
L 800 3500
L 1894 563
L 2988 3500
L 3597 3500
L 2284 0
L 1503 0
L 191 3500
z
" transform="scale(0.015625)"/>
       <path id="DejaVuSans-65" d="M 3597 1894
L 3597 1613
L 953 1613
Q 991 1019 1311 708
Q 1631 397 2203 397
Q 2534 397 2845 478
Q 3156 559 3463 722
L 3463 178
Q 3153 47 2828 -22
Q 2503 -91 2169 -91
Q 1331 -91 842 396
Q 353 884 353 1716
Q 353 2575 817 3079
Q 1281 3584 2069 3584
Q 2775 3584 3186 3129
Q 3597 2675 3597 1894
z
M 3022 2063
Q 3016 2534 2758 2815
Q 2500 3097 2075 3097
Q 1594 3097 1305 2825
Q 1016 2553 972 2059
L 3022 2063
z
" transform="scale(0.015625)"/>
       <path id="DejaVuSans-20" transform="scale(0.015625)"/>
       <path id="DejaVuSans-6f" d="M 1959 3097
Q 1497 3097 1228 2736
Q 959 2375 959 1747
Q 959 1119 1226 758
Q 1494 397 1959 397
Q 2419 397 2687 759
Q 2956 1122 2956 1747
Q 2956 2369 2687 2733
Q 2419 3097 1959 3097
z
M 1959 3584
Q 2709 3584 3137 3096
Q 3566 2609 3566 1747
Q 3566 888 3137 398
Q 2709 -91 1959 -91
Q 1206 -91 779 398
Q 353 888 353 1747
Q 353 2609 779 3096
Q 1206 3584 1959 3584
z
" transform="scale(0.015625)"/>
       <path id="DejaVuSans-6b" d="M 581 4863
L 1159 4863
L 1159 1991
L 2875 3500
L 3609 3500
L 1753 1863
L 3688 0
L 2938 0
L 1159 1709
L 1159 0
L 581 0
L 581 4863
z
" transform="scale(0.015625)"/>
       <path id="DejaVuSans-6e" d="M 3513 2113
L 3513 0
L 2938 0
L 2938 2094
Q 2938 2591 2744 2837
Q 2550 3084 2163 3084
Q 1697 3084 1428 2787
Q 1159 2491 1159 1978
L 1159 0
L 581 0
L 581 3500
L 1159 3500
L 1159 2956
Q 1366 3272 1645 3428
Q 1925 3584 2291 3584
Q 2894 3584 3203 3211
Q 3513 2838 3513 2113
z
" transform="scale(0.015625)"/>
       <path id="DejaVuSans-2d" d="M 313 2009
L 1997 2009
L 1997 1497
L 313 1497
L 313 2009
z
" transform="scale(0.015625)"/>
       <path id="DejaVuSans-70" d="M 1159 525
L 1159 -1331
L 581 -1331
L 581 3500
L 1159 3500
L 1159 2969
Q 1341 3281 1617 3432
Q 1894 3584 2278 3584
Q 2916 3584 3314 3078
Q 3713 2572 3713 1747
Q 3713 922 3314 415
Q 2916 -91 2278 -91
Q 1894 -91 1617 61
Q 1341 213 1159 525
z
M 3116 1747
Q 3116 2381 2855 2742
Q 2594 3103 2138 3103
Q 1681 3103 1420 2742
Q 1159 2381 1159 1747
Q 1159 1113 1420 752
Q 1681 391 2138 391
Q 2594 391 2855 752
Q 3116 1113 3116 1747
z
" transform="scale(0.015625)"/>
       <path id="DejaVuSans-64" d="M 2906 2969
L 2906 4863
L 3481 4863
L 3481 0
L 2906 0
L 2906 525
Q 2725 213 2448 61
Q 2172 -91 1784 -91
Q 1150 -91 751 415
Q 353 922 353 1747
Q 353 2572 751 3078
Q 1150 3584 1784 3584
Q 2172 3584 2448 3432
Q 2725 3281 2906 2969
z
M 947 1747
Q 947 1113 1208 752
Q 1469 391 1925 391
Q 2381 391 2643 752
Q 2906 1113 2906 1747
Q 2906 2381 2643 2742
Q 2381 3103 1925 3103
Q 1469 3103 1208 2742
Q 947 2381 947 1747
z
" transform="scale(0.015625)"/>
       <path id="DejaVuSans-63" d="M 3122 3366
L 3122 2828
Q 2878 2963 2633 3030
Q 2388 3097 2138 3097
Q 1578 3097 1268 2742
Q 959 2388 959 1747
Q 959 1106 1268 751
Q 1578 397 2138 397
Q 2388 397 2633 464
Q 2878 531 3122 666
L 3122 134
Q 2881 22 2623 -34
Q 2366 -91 2075 -91
Q 1284 -91 818 406
Q 353 903 353 1747
Q 353 2603 823 3093
Q 1294 3584 2113 3584
Q 2378 3584 2631 3529
Q 2884 3475 3122 3366
z
" transform="scale(0.015625)"/>
       <path id="DejaVuSans-72" d="M 2631 2963
Q 2534 3019 2420 3045
Q 2306 3072 2169 3072
Q 1681 3072 1420 2755
Q 1159 2438 1159 1844
L 1159 0
L 581 0
L 581 3500
L 1159 3500
L 1159 2956
Q 1341 3275 1631 3429
Q 1922 3584 2338 3584
Q 2397 3584 2469 3576
Q 2541 3569 2628 3553
L 2631 2963
z
" transform="scale(0.015625)"/>
       <path id="DejaVuSans-73" d="M 2834 3397
L 2834 2853
Q 2591 2978 2328 3040
Q 2066 3103 1784 3103
Q 1356 3103 1142 2972
Q 928 2841 928 2578
Q 928 2378 1081 2264
Q 1234 2150 1697 2047
L 1894 2003
Q 2506 1872 2764 1633
Q 3022 1394 3022 966
Q 3022 478 2636 193
Q 2250 -91 1575 -91
Q 1294 -91 989 -36
Q 684 19 347 128
L 347 722
Q 666 556 975 473
Q 1284 391 1588 391
Q 1994 391 2212 530
Q 2431 669 2431 922
Q 2431 1156 2273 1281
Q 2116 1406 1581 1522
L 1381 1569
Q 847 1681 609 1914
Q 372 2147 372 2553
Q 372 3047 722 3315
Q 1072 3584 1716 3584
Q 2034 3584 2315 3537
Q 2597 3491 2834 3397
z
" transform="scale(0.015625)"/>
       <path id="DejaVuSans-28" d="M 1984 4856
Q 1566 4138 1362 3434
Q 1159 2731 1159 2009
Q 1159 1288 1364 580
Q 1569 -128 1984 -844
L 1484 -844
Q 1016 -109 783 600
Q 550 1309 550 2009
Q 550 2706 781 3412
Q 1013 4119 1484 4856
L 1984 4856
z
" transform="scale(0.015625)"/>
       <path id="DejaVuSans-38" d="M 2034 2216
Q 1584 2216 1326 1975
Q 1069 1734 1069 1313
Q 1069 891 1326 650
Q 1584 409 2034 409
Q 2484 409 2743 651
Q 3003 894 3003 1313
Q 3003 1734 2745 1975
Q 2488 2216 2034 2216
z
M 1403 2484
Q 997 2584 770 2862
Q 544 3141 544 3541
Q 544 4100 942 4425
Q 1341 4750 2034 4750
Q 2731 4750 3128 4425
Q 3525 4100 3525 3541
Q 3525 3141 3298 2862
Q 3072 2584 2669 2484
Q 3125 2378 3379 2068
Q 3634 1759 3634 1313
Q 3634 634 3220 271
Q 2806 -91 2034 -91
Q 1263 -91 848 271
Q 434 634 434 1313
Q 434 1759 690 2068
Q 947 2378 1403 2484
z
M 1172 3481
Q 1172 3119 1398 2916
Q 1625 2713 2034 2713
Q 2441 2713 2670 2916
Q 2900 3119 2900 3481
Q 2900 3844 2670 4047
Q 2441 4250 2034 4250
Q 1625 4250 1398 4047
Q 1172 3844 1172 3481
z
" transform="scale(0.015625)"/>
       <path id="DejaVuSans-29" d="M 513 4856
L 1013 4856
Q 1481 4119 1714 3412
Q 1947 2706 1947 2009
Q 1947 1309 1714 600
Q 1481 -109 1013 -844
L 513 -844
Q 928 -128 1133 580
Q 1338 1288 1338 2009
Q 1338 2731 1133 3434
Q 928 4138 513 4856
z
" transform="scale(0.015625)"/>
      </defs>
      <use xlink:href="#DejaVuSans-43"/>
      <use xlink:href="#DejaVuSans-75" x="69.824219"/>
      <use xlink:href="#DejaVuSans-6d" x="133.203125"/>
      <use xlink:href="#DejaVuSans-75" x="230.615234"/>
      <use xlink:href="#DejaVuSans-6c" x="293.994141"/>
      <use xlink:href="#DejaVuSans-61" x="321.777344"/>
      <use xlink:href="#DejaVuSans-74" x="383.056641"/>
      <use xlink:href="#DejaVuSans-69" x="422.265625"/>
      <use xlink:href="#DejaVuSans-76" x="450.048828"/>
      <use xlink:href="#DejaVuSans-65" x="509.228516"/>
      <use xlink:href="#DejaVuSans-20" x="570.751953"/>
      <use xlink:href="#DejaVuSans-74" x="602.539062"/>
      <use xlink:href="#DejaVuSans-6f" x="641.748047"/>
      <use xlink:href="#DejaVuSans-6b" x="702.929688"/>
      <use xlink:href="#DejaVuSans-65" x="757.214844"/>
      <use xlink:href="#DejaVuSans-6e" x="818.738281"/>
      <use xlink:href="#DejaVuSans-2d" x="882.117188"/>
      <use xlink:href="#DejaVuSans-75" x="918.201172"/>
      <use xlink:href="#DejaVuSans-70" x="981.580078"/>
      <use xlink:href="#DejaVuSans-64" x="1045.056641"/>
      <use xlink:href="#DejaVuSans-61" x="1108.533203"/>
      <use xlink:href="#DejaVuSans-74" x="1169.8125"/>
      <use xlink:href="#DejaVuSans-65" x="1209.021484"/>
      <use xlink:href="#DejaVuSans-20" x="1270.544922"/>
      <use xlink:href="#DejaVuSans-6d" x="1302.332031"/>
      <use xlink:href="#DejaVuSans-69" x="1399.744141"/>
      <use xlink:href="#DejaVuSans-63" x="1427.527344"/>
      <use xlink:href="#DejaVuSans-72" x="1482.507812"/>
      <use xlink:href="#DejaVuSans-6f" x="1521.371094"/>
      <use xlink:href="#DejaVuSans-73" x="1582.552734"/>
      <use xlink:href="#DejaVuSans-74" x="1634.652344"/>
      <use xlink:href="#DejaVuSans-65" x="1673.861328"/>
      <use xlink:href="#DejaVuSans-70" x="1735.384766"/>
      <use xlink:href="#DejaVuSans-20" x="1798.861328"/>
      <use xlink:href="#DejaVuSans-28" x="1830.648438"/>
      <use xlink:href="#DejaVuSans-31" x="1869.662109"/>
      <use xlink:href="#DejaVuSans-32" x="1933.285156"/>
      <use xlink:href="#DejaVuSans-38" x="1996.908203"/>
      <use xlink:href="#DejaVuSans-20" x="2060.53125"/>
      <use xlink:href="#DejaVuSans-72" x="2092.318359"/>
      <use xlink:href="#DejaVuSans-65" x="2131.181641"/>
      <use xlink:href="#DejaVuSans-73" x="2192.705078"/>
      <use xlink:href="#DejaVuSans-70" x="2244.804688"/>
      <use xlink:href="#DejaVuSans-6f" x="2308.28125"/>
      <use xlink:href="#DejaVuSans-6e" x="2369.462891"/>
      <use xlink:href="#DejaVuSans-73" x="2432.841797"/>
      <use xlink:href="#DejaVuSans-65" x="2484.941406"/>
      <use xlink:href="#DejaVuSans-20" x="2546.464844"/>
      <use xlink:href="#DejaVuSans-74" x="2578.251953"/>
      <use xlink:href="#DejaVuSans-6f" x="2617.460938"/>
      <use xlink:href="#DejaVuSans-6b" x="2678.642578"/>
      <use xlink:href="#DejaVuSans-65" x="2732.927734"/>
      <use xlink:href="#DejaVuSans-6e" x="2794.451172"/>
      <use xlink:href="#DejaVuSans-73" x="2857.830078"/>
      <use xlink:href="#DejaVuSans-29" x="2909.929688"/>
     </g>
    </g>
   </g>
   <g id="matplotlib.axis_2">
    <g id="ytick_1">
     <g id="line2d_9">
      <path d="M 45.544219 261.592571
L 455.674219 261.592571
" clip-path="url(#pa7e218e853)" style="fill: none; stroke: #b0b0b0; stroke-opacity: 0.2; stroke-width: 0.8; stroke-linecap: square"/>
     </g>
     <g id="line2d_10">
      <defs>
       <path id="mb0e4974c3b" d="M 0 0
L -3.5 0
" style="stroke: #000000; stroke-width: 0.8"/>
      </defs>
      <g>
       <use xlink:href="#mb0e4974c3b" x="45.544219" y="261.592571" style="stroke: #000000; stroke-width: 0.8"/>
      </g>
     </g>
     <g id="text_10">
      <!-- 0.6 -->
      <g transform="translate(21.845938 265.581751) scale(0.105 -0.105)">
       <defs>
        <path id="DejaVuSans-2e" d="M 684 794
L 1344 794
L 1344 0
L 684 0
L 684 794
z
" transform="scale(0.015625)"/>
        <path id="DejaVuSans-36" d="M 2113 2584
Q 1688 2584 1439 2293
Q 1191 2003 1191 1497
Q 1191 994 1439 701
Q 1688 409 2113 409
Q 2538 409 2786 701
Q 3034 994 3034 1497
Q 3034 2003 2786 2293
Q 2538 2584 2113 2584
z
M 3366 4563
L 3366 3988
Q 3128 4100 2886 4159
Q 2644 4219 2406 4219
Q 1781 4219 1451 3797
Q 1122 3375 1075 2522
Q 1259 2794 1537 2939
Q 1816 3084 2150 3084
Q 2853 3084 3261 2657
Q 3669 2231 3669 1497
Q 3669 778 3244 343
Q 2819 -91 2113 -91
Q 1303 -91 875 529
Q 447 1150 447 2328
Q 447 3434 972 4092
Q 1497 4750 2381 4750
Q 2619 4750 2861 4703
Q 3103 4656 3366 4563
z
" transform="scale(0.015625)"/>
       </defs>
       <use xlink:href="#DejaVuSans-30"/>
       <use xlink:href="#DejaVuSans-2e" x="63.623047"/>
       <use xlink:href="#DejaVuSans-36" x="95.410156"/>
      </g>
     </g>
    </g>
    <g id="ytick_2">
     <g id="line2d_11">
      <path d="M 45.544219 232.598088
L 455.674219 232.598088
" clip-path="url(#pa7e218e853)" style="fill: none; stroke: #b0b0b0; stroke-opacity: 0.2; stroke-width: 0.8; stroke-linecap: square"/>
     </g>
     <g id="line2d_12">
      <g>
       <use xlink:href="#mb0e4974c3b" x="45.544219" y="232.598088" style="stroke: #000000; stroke-width: 0.8"/>
      </g>
     </g>
     <g id="text_11">
      <!-- 0.7 -->
      <g transform="translate(21.845938 236.587268) scale(0.105 -0.105)">
       <defs>
        <path id="DejaVuSans-37" d="M 525 4666
L 3525 4666
L 3525 4397
L 1831 0
L 1172 0
L 2766 4134
L 525 4134
L 525 4666
z
" transform="scale(0.015625)"/>
       </defs>
       <use xlink:href="#DejaVuSans-30"/>
       <use xlink:href="#DejaVuSans-2e" x="63.623047"/>
       <use xlink:href="#DejaVuSans-37" x="95.410156"/>
      </g>
     </g>
    </g>
    <g id="ytick_3">
     <g id="line2d_13">
      <path d="M 45.544219 203.603606
L 455.674219 203.603606
" clip-path="url(#pa7e218e853)" style="fill: none; stroke: #b0b0b0; stroke-opacity: 0.2; stroke-width: 0.8; stroke-linecap: square"/>
     </g>
     <g id="line2d_14">
      <g>
       <use xlink:href="#mb0e4974c3b" x="45.544219" y="203.603606" style="stroke: #000000; stroke-width: 0.8"/>
      </g>
     </g>
     <g id="text_12">
      <!-- 0.8 -->
      <g transform="translate(21.845938 207.592785) scale(0.105 -0.105)">
       <use xlink:href="#DejaVuSans-30"/>
       <use xlink:href="#DejaVuSans-2e" x="63.623047"/>
       <use xlink:href="#DejaVuSans-38" x="95.410156"/>
      </g>
     </g>
    </g>
    <g id="ytick_4">
     <g id="line2d_15">
      <path d="M 45.544219 174.609123
L 455.674219 174.609123
" clip-path="url(#pa7e218e853)" style="fill: none; stroke: #b0b0b0; stroke-opacity: 0.2; stroke-width: 0.8; stroke-linecap: square"/>
     </g>
     <g id="line2d_16">
      <g>
       <use xlink:href="#mb0e4974c3b" x="45.544219" y="174.609123" style="stroke: #000000; stroke-width: 0.8"/>
      </g>
     </g>
     <g id="text_13">
      <!-- 0.9 -->
      <g transform="translate(21.845938 178.598303) scale(0.105 -0.105)">
       <defs>
        <path id="DejaVuSans-39" d="M 703 97
L 703 672
Q 941 559 1184 500
Q 1428 441 1663 441
Q 2288 441 2617 861
Q 2947 1281 2994 2138
Q 2813 1869 2534 1725
Q 2256 1581 1919 1581
Q 1219 1581 811 2004
Q 403 2428 403 3163
Q 403 3881 828 4315
Q 1253 4750 1959 4750
Q 2769 4750 3195 4129
Q 3622 3509 3622 2328
Q 3622 1225 3098 567
Q 2575 -91 1691 -91
Q 1453 -91 1209 -44
Q 966 3 703 97
z
M 1959 2075
Q 2384 2075 2632 2365
Q 2881 2656 2881 3163
Q 2881 3666 2632 3958
Q 2384 4250 1959 4250
Q 1534 4250 1286 3958
Q 1038 3666 1038 3163
Q 1038 2656 1286 2365
Q 1534 2075 1959 2075
z
" transform="scale(0.015625)"/>
       </defs>
       <use xlink:href="#DejaVuSans-30"/>
       <use xlink:href="#DejaVuSans-2e" x="63.623047"/>
       <use xlink:href="#DejaVuSans-39" x="95.410156"/>
      </g>
     </g>
    </g>
    <g id="ytick_5">
     <g id="line2d_17">
      <path d="M 45.544219 145.61464
L 455.674219 145.61464
" clip-path="url(#pa7e218e853)" style="fill: none; stroke: #b0b0b0; stroke-opacity: 0.2; stroke-width: 0.8; stroke-linecap: square"/>
     </g>
     <g id="line2d_18">
      <g>
       <use xlink:href="#mb0e4974c3b" x="45.544219" y="145.61464" style="stroke: #000000; stroke-width: 0.8"/>
      </g>
     </g>
     <g id="text_14">
      <!-- 1.0 -->
      <g transform="translate(21.845938 149.60382) scale(0.105 -0.105)">
       <use xlink:href="#DejaVuSans-31"/>
       <use xlink:href="#DejaVuSans-2e" x="63.623047"/>
       <use xlink:href="#DejaVuSans-30" x="95.410156"/>
      </g>
     </g>
    </g>
    <g id="ytick_6">
     <g id="line2d_19">
      <path d="M 45.544219 116.620157
L 455.674219 116.620157
" clip-path="url(#pa7e218e853)" style="fill: none; stroke: #b0b0b0; stroke-opacity: 0.2; stroke-width: 0.8; stroke-linecap: square"/>
     </g>
     <g id="line2d_20">
      <g>
       <use xlink:href="#mb0e4974c3b" x="45.544219" y="116.620157" style="stroke: #000000; stroke-width: 0.8"/>
      </g>
     </g>
     <g id="text_15">
      <!-- 1.1 -->
      <g transform="translate(21.845938 120.609337) scale(0.105 -0.105)">
       <use xlink:href="#DejaVuSans-31"/>
       <use xlink:href="#DejaVuSans-2e" x="63.623047"/>
       <use xlink:href="#DejaVuSans-31" x="95.410156"/>
      </g>
     </g>
    </g>
    <g id="ytick_7">
     <g id="line2d_21">
      <path d="M 45.544219 87.625675
L 455.674219 87.625675
" clip-path="url(#pa7e218e853)" style="fill: none; stroke: #b0b0b0; stroke-opacity: 0.2; stroke-width: 0.8; stroke-linecap: square"/>
     </g>
     <g id="line2d_22">
      <g>
       <use xlink:href="#mb0e4974c3b" x="45.544219" y="87.625675" style="stroke: #000000; stroke-width: 0.8"/>
      </g>
     </g>
     <g id="text_16">
      <!-- 1.2 -->
      <g transform="translate(21.845938 91.614854) scale(0.105 -0.105)">
       <use xlink:href="#DejaVuSans-31"/>
       <use xlink:href="#DejaVuSans-2e" x="63.623047"/>
       <use xlink:href="#DejaVuSans-32" x="95.410156"/>
      </g>
     </g>
    </g>
    <g id="ytick_8">
     <g id="line2d_23">
      <path d="M 45.544219 58.631192
L 455.674219 58.631192
" clip-path="url(#pa7e218e853)" style="fill: none; stroke: #b0b0b0; stroke-opacity: 0.2; stroke-width: 0.8; stroke-linecap: square"/>
     </g>
     <g id="line2d_24">
      <g>
       <use xlink:href="#mb0e4974c3b" x="45.544219" y="58.631192" style="stroke: #000000; stroke-width: 0.8"/>
      </g>
     </g>
     <g id="text_17">
      <!-- 1.3 -->
      <g transform="translate(21.845938 62.620371) scale(0.105 -0.105)">
       <use xlink:href="#DejaVuSans-31"/>
       <use xlink:href="#DejaVuSans-2e" x="63.623047"/>
       <use xlink:href="#DejaVuSans-33" x="95.410156"/>
      </g>
     </g>
    </g>
    <g id="ytick_9">
     <g id="line2d_25">
      <path d="M 45.544219 29.636709
L 455.674219 29.636709
" clip-path="url(#pa7e218e853)" style="fill: none; stroke: #b0b0b0; stroke-opacity: 0.2; stroke-width: 0.8; stroke-linecap: square"/>
     </g>
     <g id="line2d_26">
      <g>
       <use xlink:href="#mb0e4974c3b" x="45.544219" y="29.636709" style="stroke: #000000; stroke-width: 0.8"/>
      </g>
     </g>
     <g id="text_18">
      <!-- 1.4 -->
      <g transform="translate(21.845938 33.625889) scale(0.105 -0.105)">
       <defs>
        <path id="DejaVuSans-34" d="M 2419 4116
L 825 1625
L 2419 1625
L 2419 4116
z
M 2253 4666
L 3047 4666
L 3047 1625
L 3713 1625
L 3713 1100
L 3047 1100
L 3047 0
L 2419 0
L 2419 1100
L 313 1100
L 313 1709
L 2253 4666
z
" transform="scale(0.015625)"/>
       </defs>
       <use xlink:href="#DejaVuSans-31"/>
       <use xlink:href="#DejaVuSans-2e" x="63.623047"/>
       <use xlink:href="#DejaVuSans-34" x="95.410156"/>
      </g>
     </g>
    </g>
    <g id="text_19">
     <!-- Within-method normalized objective ↓ -->
     <g transform="translate(15.558281 256.217797) rotate(-90) scale(0.11 -0.11)">
      <defs>
       <path id="DejaVuSans-57" d="M 213 4666
L 850 4666
L 1831 722
L 2809 4666
L 3519 4666
L 4500 722
L 5478 4666
L 6119 4666
L 4947 0
L 4153 0
L 3169 4050
L 2175 0
L 1381 0
L 213 4666
z
" transform="scale(0.015625)"/>
       <path id="DejaVuSans-68" d="M 3513 2113
L 3513 0
L 2938 0
L 2938 2094
Q 2938 2591 2744 2837
Q 2550 3084 2163 3084
Q 1697 3084 1428 2787
Q 1159 2491 1159 1978
L 1159 0
L 581 0
L 581 4863
L 1159 4863
L 1159 2956
Q 1366 3272 1645 3428
Q 1925 3584 2291 3584
Q 2894 3584 3203 3211
Q 3513 2838 3513 2113
z
" transform="scale(0.015625)"/>
       <path id="DejaVuSans-7a" d="M 353 3500
L 3084 3500
L 3084 2975
L 922 459
L 3084 459
L 3084 0
L 275 0
L 275 525
L 2438 3041
L 353 3041
L 353 3500
z
" transform="scale(0.015625)"/>
       <path id="DejaVuSans-62" d="M 3116 1747
Q 3116 2381 2855 2742
Q 2594 3103 2138 3103
Q 1681 3103 1420 2742
Q 1159 2381 1159 1747
Q 1159 1113 1420 752
Q 1681 391 2138 391
Q 2594 391 2855 752
Q 3116 1113 3116 1747
z
M 1159 2969
Q 1341 3281 1617 3432
Q 1894 3584 2278 3584
Q 2916 3584 3314 3078
Q 3713 2572 3713 1747
Q 3713 922 3314 415
Q 2916 -91 2278 -91
Q 1894 -91 1617 61
Q 1341 213 1159 525
L 1159 0
L 581 0
L 581 4863
L 1159 4863
L 1159 2969
z
" transform="scale(0.015625)"/>
       <path id="DejaVuSans-6a" d="M 603 3500
L 1178 3500
L 1178 -63
Q 1178 -731 923 -1031
Q 669 -1331 103 -1331
L -116 -1331
L -116 -844
L 38 -844
Q 366 -844 484 -692
Q 603 -541 603 -63
L 603 3500
z
M 603 4863
L 1178 4863
L 1178 4134
L 603 4134
L 603 4863
z
" transform="scale(0.015625)"/>
       <path id="DejaVuSans-2193" d="M 2822 -22
L 2541 -22
L 1309 1209
L 1684 1584
L 2416 853
L 2416 4666
L 2947 4666
L 2947 853
L 3672 1584
L 4047 1209
L 2822 -22
z
" transform="scale(0.015625)"/>
      </defs>
      <use xlink:href="#DejaVuSans-57"/>
      <use xlink:href="#DejaVuSans-69" x="96.626953"/>
      <use xlink:href="#DejaVuSans-74" x="124.410156"/>
      <use xlink:href="#DejaVuSans-68" x="163.619141"/>
      <use xlink:href="#DejaVuSans-69" x="226.998047"/>
      <use xlink:href="#DejaVuSans-6e" x="254.78125"/>
      <use xlink:href="#DejaVuSans-2d" x="318.160156"/>
      <use xlink:href="#DejaVuSans-6d" x="354.244141"/>
      <use xlink:href="#DejaVuSans-65" x="451.65625"/>
      <use xlink:href="#DejaVuSans-74" x="513.179688"/>
      <use xlink:href="#DejaVuSans-68" x="552.388672"/>
      <use xlink:href="#DejaVuSans-6f" x="615.767578"/>
      <use xlink:href="#DejaVuSans-64" x="676.949219"/>
      <use xlink:href="#DejaVuSans-20" x="740.425781"/>
      <use xlink:href="#DejaVuSans-6e" x="772.212891"/>
      <use xlink:href="#DejaVuSans-6f" x="835.591797"/>
      <use xlink:href="#DejaVuSans-72" x="896.773438"/>
      <use xlink:href="#DejaVuSans-6d" x="936.136719"/>
      <use xlink:href="#DejaVuSans-61" x="1033.548828"/>
      <use xlink:href="#DejaVuSans-6c" x="1094.828125"/>
      <use xlink:href="#DejaVuSans-69" x="1122.611328"/>
      <use xlink:href="#DejaVuSans-7a" x="1150.394531"/>
      <use xlink:href="#DejaVuSans-65" x="1202.884766"/>
      <use xlink:href="#DejaVuSans-64" x="1264.408203"/>
      <use xlink:href="#DejaVuSans-20" x="1327.884766"/>
      <use xlink:href="#DejaVuSans-6f" x="1359.671875"/>
      <use xlink:href="#DejaVuSans-62" x="1420.853516"/>
      <use xlink:href="#DejaVuSans-6a" x="1484.330078"/>
      <use xlink:href="#DejaVuSans-65" x="1512.113281"/>
      <use xlink:href="#DejaVuSans-63" x="1573.636719"/>
      <use xlink:href="#DejaVuSans-74" x="1628.617188"/>
      <use xlink:href="#DejaVuSans-69" x="1667.826172"/>
      <use xlink:href="#DejaVuSans-76" x="1695.609375"/>
      <use xlink:href="#DejaVuSans-65" x="1754.789062"/>
      <use xlink:href="#DejaVuSans-20" x="1816.3125"/>
      <use xlink:href="#DejaVuSans-2193" x="1848.099609"/>
     </g>
    </g>
   </g>
   <g id="PathCollection_1">
    <defs>
     <path id="C0_0_9a3968eaae" d="M 0 1.732051
C 0.459345 1.732051 0.899939 1.549551 1.224745 1.224745
C 1.549551 0.899939 1.732051 0.459345 1.732051 -0
C 1.732051 -0.459345 1.549551 -0.899939 1.224745 -1.224745
C 0.899939 -1.549551 0.459345 -1.732051 0 -1.732051
C -0.459345 -1.732051 -0.899939 -1.549551 -1.224745 -1.224745
C -1.549551 -0.899939 -1.732051 -0.459345 -1.732051 0
C -1.732051 0.459345 -1.549551 0.899939 -1.224745 1.224745
C -0.899939 1.549551 -0.459345 1.732051 0 1.732051
z
"/>
    </defs>
    <g clip-path="url(#pa7e218e853)">
     <use xlink:href="#C0_0_9a3968eaae" x="49.208087" y="16.461985" style="fill: #2878b5; fill-opacity: 0.16"/>
    </g>
    <g clip-path="url(#pa7e218e853)">
     <use xlink:href="#C0_0_9a3968eaae" x="52.871956" y="309.981693" style="fill: #2878b5; fill-opacity: 0.16"/>
    </g>
    <g clip-path="url(#pa7e218e853)">
     <use xlink:href="#C0_0_9a3968eaae" x="56.535824" y="322.488898" style="fill: #2878b5; fill-opacity: 0.16"/>
    </g>
    <g clip-path="url(#pa7e218e853)">
     <use xlink:href="#C0_0_9a3968eaae" x="60.199693" y="215.763657" style="fill: #2878b5; fill-opacity: 0.16"/>
    </g>
    <g clip-path="url(#pa7e218e853)">
     <use xlink:href="#C0_0_9a3968eaae" x="63.863561" y="238.555184" style="fill: #2878b5; fill-opacity: 0.16"/>
    </g>
    <g clip-path="url(#pa7e218e853)">
     <use xlink:href="#C0_0_9a3968eaae" x="67.527429" y="-146.503605" style="fill: #2878b5; fill-opacity: 0.16"/>
    </g>
    <g clip-path="url(#pa7e218e853)">
     <use xlink:href="#C0_0_9a3968eaae" x="71.191298" y="164.069283" style="fill: #2878b5; fill-opacity: 0.16"/>
    </g>
    <g clip-path="url(#pa7e218e853)">
     <use xlink:href="#C0_0_9a3968eaae" x="74.855166" y="44.100025" style="fill: #2878b5; fill-opacity: 0.16"/>
    </g>
    <g clip-path="url(#pa7e218e853)">
     <use xlink:href="#C0_0_9a3968eaae" x="78.519035" y="123.321112" style="fill: #2878b5; fill-opacity: 0.16"/>
    </g>
    <g clip-path="url(#pa7e218e853)">
     <use xlink:href="#C0_0_9a3968eaae" x="82.182903" y="141.255601" style="fill: #2878b5; fill-opacity: 0.16"/>
    </g>
    <g clip-path="url(#pa7e218e853)">
     <use xlink:href="#C0_0_9a3968eaae" x="85.846772" y="225.213245" style="fill: #2878b5; fill-opacity: 0.16"/>
    </g>
    <g clip-path="url(#pa7e218e853)">
     <use xlink:href="#C0_0_9a3968eaae" x="89.51064" y="169.835053" style="fill: #2878b5; fill-opacity: 0.16"/>
    </g>
    <g clip-path="url(#pa7e218e853)">
     <use xlink:href="#C0_0_9a3968eaae" x="92.716525" y="100.958072" style="fill: #2878b5; fill-opacity: 0.16"/>
    </g>
    <g clip-path="url(#pa7e218e853)">
     <use xlink:href="#C0_0_9a3968eaae" x="96.380394" y="213.236935" style="fill: #2878b5; fill-opacity: 0.16"/>
    </g>
    <g clip-path="url(#pa7e218e853)">
     <use xlink:href="#C0_0_9a3968eaae" x="100.044262" y="136.268697" style="fill: #2878b5; fill-opacity: 0.16"/>
    </g>
    <g clip-path="url(#pa7e218e853)">
     <use xlink:href="#C0_0_9a3968eaae" x="103.70813" y="182.023007" style="fill: #2878b5; fill-opacity: 0.16"/>
    </g>
    <g clip-path="url(#pa7e218e853)">
     <use xlink:href="#C0_0_9a3968eaae" x="107.371999" y="331.374644" style="fill: #2878b5; fill-opacity: 0.16"/>
    </g>
    <g clip-path="url(#pa7e218e853)">
     <use xlink:href="#C0_0_9a3968eaae" x="111.035867" y="128.578833" style="fill: #2878b5; fill-opacity: 0.16"/>
    </g>
    <g clip-path="url(#pa7e218e853)">
     <use xlink:href="#C0_0_9a3968eaae" x="113.783769" y="-225.408845" style="fill: #2878b5; fill-opacity: 0.16"/>
    </g>
    <g clip-path="url(#pa7e218e853)">
     <use xlink:href="#C0_0_9a3968eaae" x="117.447637" y="227.734165" style="fill: #2878b5; fill-opacity: 0.16"/>
    </g>
    <g clip-path="url(#pa7e218e853)">
     <use xlink:href="#C0_0_9a3968eaae" x="121.111506" y="226.75887" style="fill: #2878b5; fill-opacity: 0.16"/>
    </g>
    <g clip-path="url(#pa7e218e853)">
     <use xlink:href="#C0_0_9a3968eaae" x="124.775374" y="213.291886" style="fill: #2878b5; fill-opacity: 0.16"/>
    </g>
    <g clip-path="url(#pa7e218e853)">
     <use xlink:href="#C0_0_9a3968eaae" x="128.095755" y="152.66866" style="fill: #2878b5; fill-opacity: 0.16"/>
    </g>
    <g clip-path="url(#pa7e218e853)">
     <use xlink:href="#C0_0_9a3968eaae" x="131.759623" y="312.142569" style="fill: #2878b5; fill-opacity: 0.16"/>
    </g>
    <g clip-path="url(#pa7e218e853)">
     <use xlink:href="#C0_0_9a3968eaae" x="135.423492" y="131.038683" style="fill: #2878b5; fill-opacity: 0.16"/>
    </g>
    <g clip-path="url(#pa7e218e853)">
     <use xlink:href="#C0_0_9a3968eaae" x="139.08736" y="113.731924" style="fill: #2878b5; fill-opacity: 0.16"/>
    </g>
    <g clip-path="url(#pa7e218e853)">
     <use xlink:href="#C0_0_9a3968eaae" x="142.751229" y="272.083222" style="fill: #2878b5; fill-opacity: 0.16"/>
    </g>
    <g clip-path="url(#pa7e218e853)">
     <use xlink:href="#C0_0_9a3968eaae" x="146.415097" y="324.746094" style="fill: #2878b5; fill-opacity: 0.16"/>
    </g>
    <g clip-path="url(#pa7e218e853)">
     <use xlink:href="#C0_0_9a3968eaae" x="150.078966" y="138.152995" style="fill: #2878b5; fill-opacity: 0.16"/>
    </g>
    <g clip-path="url(#pa7e218e853)">
     <use xlink:href="#C0_0_9a3968eaae" x="153.742834" y="202.128222" style="fill: #2878b5; fill-opacity: 0.16"/>
    </g>
    <g clip-path="url(#pa7e218e853)">
     <use xlink:href="#C0_0_9a3968eaae" x="157.406703" y="222.5185" style="fill: #2878b5; fill-opacity: 0.16"/>
    </g>
    <g clip-path="url(#pa7e218e853)">
     <use xlink:href="#C0_0_9a3968eaae" x="158.780653" y="-593.914935" style="fill: #2878b5; fill-opacity: 0.16"/>
    </g>
    <g clip-path="url(#pa7e218e853)">
     <use xlink:href="#C0_0_9a3968eaae" x="162.444522" y="77.649578" style="fill: #2878b5; fill-opacity: 0.16"/>
    </g>
    <g clip-path="url(#pa7e218e853)">
     <use xlink:href="#C0_0_9a3968eaae" x="166.10839" y="297.017662" style="fill: #2878b5; fill-opacity: 0.16"/>
    </g>
    <g clip-path="url(#pa7e218e853)">
     <use xlink:href="#C0_0_9a3968eaae" x="169.772259" y="175.31838" style="fill: #2878b5; fill-opacity: 0.16"/>
    </g>
    <g clip-path="url(#pa7e218e853)">
     <use xlink:href="#C0_0_9a3968eaae" x="173.436127" y="181.364608" style="fill: #2878b5; fill-opacity: 0.16"/>
    </g>
    <g clip-path="url(#pa7e218e853)">
     <use xlink:href="#C0_0_9a3968eaae" x="177.099995" y="215.73361" style="fill: #2878b5; fill-opacity: 0.16"/>
    </g>
    <g clip-path="url(#pa7e218e853)">
     <use xlink:href="#C0_0_9a3968eaae" x="180.763864" y="129.367446" style="fill: #2878b5; fill-opacity: 0.16"/>
    </g>
    <g clip-path="url(#pa7e218e853)">
     <use xlink:href="#C0_0_9a3968eaae" x="184.427732" y="149.084043" style="fill: #2878b5; fill-opacity: 0.16"/>
    </g>
    <g clip-path="url(#pa7e218e853)">
     <use xlink:href="#C0_0_9a3968eaae" x="188.091601" y="177.944504" style="fill: #2878b5; fill-opacity: 0.16"/>
    </g>
    <g clip-path="url(#pa7e218e853)">
     <use xlink:href="#C0_0_9a3968eaae" x="191.755469" y="247.707251" style="fill: #2878b5; fill-opacity: 0.16"/>
    </g>
    <g clip-path="url(#pa7e218e853)">
     <use xlink:href="#C0_0_9a3968eaae" x="195.419338" y="264.131741" style="fill: #2878b5; fill-opacity: 0.16"/>
    </g>
    <g clip-path="url(#pa7e218e853)">
     <use xlink:href="#C0_0_9a3968eaae" x="199.083206" y="252.477658" style="fill: #2878b5; fill-opacity: 0.16"/>
    </g>
    <g clip-path="url(#pa7e218e853)">
     <use xlink:href="#C0_0_9a3968eaae" x="202.060099" y="202.5928" style="fill: #2878b5; fill-opacity: 0.16"/>
    </g>
    <g clip-path="url(#pa7e218e853)">
     <use xlink:href="#C0_0_9a3968eaae" x="205.723968" y="91.855437" style="fill: #2878b5; fill-opacity: 0.16"/>
    </g>
    <g clip-path="url(#pa7e218e853)">
     <use xlink:href="#C0_0_9a3968eaae" x="209.387836" y="121.281235" style="fill: #2878b5; fill-opacity: 0.16"/>
    </g>
    <g clip-path="url(#pa7e218e853)">
     <use xlink:href="#C0_0_9a3968eaae" x="212.021242" y="-116.444088" style="fill: #2878b5; fill-opacity: 0.16"/>
    </g>
    <g clip-path="url(#pa7e218e853)">
     <use xlink:href="#C0_0_9a3968eaae" x="215.68511" y="270.364752" style="fill: #2878b5; fill-opacity: 0.16"/>
    </g>
    <g clip-path="url(#pa7e218e853)">
     <use xlink:href="#C0_0_9a3968eaae" x="219.348979" y="220.891439" style="fill: #2878b5; fill-opacity: 0.16"/>
    </g>
    <g clip-path="url(#pa7e218e853)">
     <use xlink:href="#C0_0_9a3968eaae" x="223.012847" y="131.549297" style="fill: #2878b5; fill-opacity: 0.16"/>
    </g>
    <g clip-path="url(#pa7e218e853)">
     <use xlink:href="#C0_0_9a3968eaae" x="226.676716" y="260.786408" style="fill: #2878b5; fill-opacity: 0.16"/>
    </g>
    <g clip-path="url(#pa7e218e853)">
     <use xlink:href="#C0_0_9a3968eaae" x="230.340584" y="220.482913" style="fill: #2878b5; fill-opacity: 0.16"/>
    </g>
    <g clip-path="url(#pa7e218e853)">
     <use xlink:href="#C0_0_9a3968eaae" x="232.058022" y="-253.4321" style="fill: #2878b5; fill-opacity: 0.16"/>
    </g>
    <g clip-path="url(#pa7e218e853)">
     <use xlink:href="#C0_0_9a3968eaae" x="235.721891" y="226.599238" style="fill: #2878b5; fill-opacity: 0.16"/>
    </g>
    <g clip-path="url(#pa7e218e853)">
     <use xlink:href="#C0_0_9a3968eaae" x="239.385759" y="175.93581" style="fill: #2878b5; fill-opacity: 0.16"/>
    </g>
    <g clip-path="url(#pa7e218e853)">
     <use xlink:href="#C0_0_9a3968eaae" x="242.133661" y="182.633795" style="fill: #2878b5; fill-opacity: 0.16"/>
    </g>
    <g clip-path="url(#pa7e218e853)">
     <use xlink:href="#C0_0_9a3968eaae" x="244.538074" y="138.296944" style="fill: #2878b5; fill-opacity: 0.16"/>
    </g>
    <g clip-path="url(#pa7e218e853)">
     <use xlink:href="#C0_0_9a3968eaae" x="248.201943" y="155.293541" style="fill: #2878b5; fill-opacity: 0.16"/>
    </g>
    <g clip-path="url(#pa7e218e853)">
     <use xlink:href="#C0_0_9a3968eaae" x="251.522323" y="197.458499" style="fill: #2878b5; fill-opacity: 0.16"/>
    </g>
    <g clip-path="url(#pa7e218e853)">
     <use xlink:href="#C0_0_9a3968eaae" x="255.186192" y="-45.235389" style="fill: #2878b5; fill-opacity: 0.16"/>
    </g>
    <g clip-path="url(#pa7e218e853)">
     <use xlink:href="#C0_0_9a3968eaae" x="257.934093" y="87.437901" style="fill: #2878b5; fill-opacity: 0.16"/>
    </g>
    <g clip-path="url(#pa7e218e853)">
     <use xlink:href="#C0_0_9a3968eaae" x="261.597962" y="283.913772" style="fill: #2878b5; fill-opacity: 0.16"/>
    </g>
    <g clip-path="url(#pa7e218e853)">
     <use xlink:href="#C0_0_9a3968eaae" x="264.231367" y="258.694272" style="fill: #2878b5; fill-opacity: 0.16"/>
    </g>
    <g clip-path="url(#pa7e218e853)">
     <use xlink:href="#C0_0_9a3968eaae" x="266.750277" y="165.600238" style="fill: #2878b5; fill-opacity: 0.16"/>
    </g>
   </g>
   <g id="PolyCollection_1">
    <path d="M 49.208087 16.461985
L 49.208087 16.461985
L 52.871956 309.981693
L 56.535824 316.300503
L 60.199693 286.877546
L 63.863561 275.599592
L 67.527429 235.335834
L 71.191298 224.248612
L 74.855166 203.016595
L 78.519035 213.566046
L 82.182903 188.034562
L 85.846772 170.686846
L 89.51064 163.651297
L 92.716525 143.033414
L 96.380394 168.714161
L 100.044262 165.140402
L 103.70813 176.980611
L 107.371999 212.655767
L 111.035867 211.533538
L 113.783769 186.140896
L 117.447637 194.564803
L 121.111506 211.030483
L 124.775374 211.038371
L 128.095755 213.042592
L 131.759623 232.570498
L 135.423492 203.148412
L 139.08736 201.402417
L 142.751229 230.66385
L 146.415097 246.963005
L 150.078966 237.514881
L 153.742834 236.111682
L 157.406703 243.896663
L 158.780653 203.926047
L 162.444522 197.193206
L 166.10839 223.224915
L 169.772259 209.278489
L 173.436127 187.420296
L 177.099995 198.283886
L 180.763864 188.244932
L 184.427732 177.717104
L 188.091601 198.123229
L 191.755469 215.99833
L 195.419338 209.067604
L 199.083206 220.037758
L 202.060099 222.443219
L 205.723968 211.760925
L 209.387836 211.156838
L 212.021242 199.835461
L 215.68511 213.665752
L 219.348979 209.601834
L 223.012847 190.78504
L 226.676716 192.190939
L 230.340584 194.875763
L 232.058022 174.657246
L 235.721891 189.47968
L 239.385759 217.304226
L 242.133661 204.359878
L 244.538074 193.045041
L 248.201943 196.06142
L 251.522323 186.258679
L 255.186192 155.225298
L 257.934093 170.045999
L 261.597962 180.784937
L 264.231367 193.867102
L 266.750277 191.588911
L 266.750277 118.776033
L 266.750277 118.776033
L 264.231367 120.756232
L 261.597962 113.148781
L 257.934093 109.559085
L 255.186192 39.162286
L 251.522323 74.558481
L 248.201943 80.587718
L 244.538074 77.668036
L 242.133661 87.001822
L 239.385759 95.990214
L 235.721891 50.719786
L 232.058022 39.212719
L 230.340584 105.316085
L 226.676716 103.528381
L 223.012847 102.857092
L 219.348979 117.18591
L 215.68511 119.825945
L 212.021242 110.551174
L 209.387836 165.611829
L 205.723968 167.029294
L 202.060099 187.316544
L 199.083206 184.414957
L 195.419338 176.095292
L 191.755469 177.386045
L 188.091601 152.746729
L 184.427732 -19.812006
L 180.763864 -11.98122
L 177.099995 -3.829979
L 173.436127 -12.361544
L 169.772259 1.625635
L 166.10839 11.870419
L 162.444522 -7.919306
L 158.780653 -1.30487
L 157.406703 185.238889
L 153.742834 175.561411
L 150.078966 176.949128
L 146.415097 189.652472
L 142.751229 181.698644
L 139.08736 86.587061
L 135.423492 88.552793
L 131.759623 109.214698
L 128.095755 96.212713
L 124.775374 94.116943
L 121.111506 94.111093
L 117.447637 79.126574
L 113.783769 73.075703
L 111.035867 160.338583
L 107.371999 162.385546
L 103.70813 146.047319
L 100.044262 123.406783
L 96.380394 126.783171
L 92.716525 62.528783
L 89.51064 76.310177
L 85.846772 80.75678
L 82.182903 87.727977
L 78.519035 104.378016
L 74.855166 88.212685
L 71.191298 95.984844
L 67.527429 83.580104
L 63.863561 165.700975
L 60.199693 145.470571
L 56.535824 116.321215
L 52.871956 16.461985
L 49.208087 16.461985
z
" clip-path="url(#pa7e218e853)" style="fill: #2878b5; fill-opacity: 0.17"/>
   </g>
   <g id="PathCollection_2">
    <defs>
     <path id="C1_0_4cb533e6ff" d="M 0 1.732051
C 0.459345 1.732051 0.899939 1.549551 1.224745 1.224745
C 1.549551 0.899939 1.732051 0.459345 1.732051 -0
C 1.732051 -0.459345 1.549551 -0.899939 1.224745 -1.224745
C 0.899939 -1.549551 0.459345 -1.732051 0 -1.732051
C -0.459345 -1.732051 -0.899939 -1.549551 -1.224745 -1.224745
C -1.549551 -0.899939 -1.732051 -0.459345 -1.732051 0
C -1.732051 0.459345 -1.549551 0.899939 -1.224745 1.224745
C -0.899939 1.549551 -0.459345 1.732051 0 1.732051
z
"/>
    </defs>
    <g clip-path="url(#pa7e218e853)">
     <use xlink:href="#C1_0_4cb533e6ff" x="51.040021" y="141.258582" style="fill: #d9534f; fill-opacity: 0.16"/>
    </g>
    <g clip-path="url(#pa7e218e853)">
     <use xlink:href="#C1_0_4cb533e6ff" x="58.711246" y="140.92471" style="fill: #d9534f; fill-opacity: 0.16"/>
    </g>
    <g clip-path="url(#pa7e218e853)">
     <use xlink:href="#C1_0_4cb533e6ff" x="67.756421" y="148.704902" style="fill: #d9534f; fill-opacity: 0.16"/>
    </g>
    <g clip-path="url(#pa7e218e853)">
     <use xlink:href="#C1_0_4cb533e6ff" x="75.885629" y="145.679734" style="fill: #d9534f; fill-opacity: 0.16"/>
    </g>
    <g clip-path="url(#pa7e218e853)">
     <use xlink:href="#C1_0_4cb533e6ff" x="82.068407" y="145.618086" style="fill: #d9534f; fill-opacity: 0.16"/>
    </g>
    <g clip-path="url(#pa7e218e853)">
     <use xlink:href="#C1_0_4cb533e6ff" x="88.022194" y="139.107096" style="fill: #d9534f; fill-opacity: 0.16"/>
    </g>
    <g clip-path="url(#pa7e218e853)">
     <use xlink:href="#C1_0_4cb533e6ff" x="97.067369" y="157.113801" style="fill: #d9534f; fill-opacity: 0.16"/>
    </g>
    <g clip-path="url(#pa7e218e853)">
     <use xlink:href="#C1_0_4cb533e6ff" x="106.112544" y="146.510209" style="fill: #d9534f; fill-opacity: 0.16"/>
    </g>
    <g clip-path="url(#pa7e218e853)">
     <use xlink:href="#C1_0_4cb533e6ff" x="111.035867" y="141.680247" style="fill: #d9534f; fill-opacity: 0.16"/>
    </g>
    <g clip-path="url(#pa7e218e853)">
     <use xlink:href="#C1_0_4cb533e6ff" x="120.081043" y="145.800742" style="fill: #d9534f; fill-opacity: 0.16"/>
    </g>
    <g clip-path="url(#pa7e218e853)">
     <use xlink:href="#C1_0_4cb533e6ff" x="126.149325" y="134.098891" style="fill: #d9534f; fill-opacity: 0.16"/>
    </g>
    <g clip-path="url(#pa7e218e853)">
     <use xlink:href="#C1_0_4cb533e6ff" x="131.530632" y="136.091834" style="fill: #d9534f; fill-opacity: 0.16"/>
    </g>
    <g clip-path="url(#pa7e218e853)">
     <use xlink:href="#C1_0_4cb533e6ff" x="134.965508" y="148.476292" style="fill: #d9534f; fill-opacity: 0.16"/>
    </g>
    <g clip-path="url(#pa7e218e853)">
     <use xlink:href="#C1_0_4cb533e6ff" x="144.010683" y="147.154092" style="fill: #d9534f; fill-opacity: 0.16"/>
    </g>
    <g clip-path="url(#pa7e218e853)">
     <use xlink:href="#C1_0_4cb533e6ff" x="152.483379" y="158.009442" style="fill: #d9534f; fill-opacity: 0.16"/>
    </g>
    <g clip-path="url(#pa7e218e853)">
     <use xlink:href="#C1_0_4cb533e6ff" x="159.811116" y="158.19514" style="fill: #d9534f; fill-opacity: 0.16"/>
    </g>
    <g clip-path="url(#pa7e218e853)">
     <use xlink:href="#C1_0_4cb533e6ff" x="168.856291" y="163.179298" style="fill: #d9534f; fill-opacity: 0.16"/>
    </g>
    <g clip-path="url(#pa7e218e853)">
     <use xlink:href="#C1_0_4cb533e6ff" x="178.015963" y="161.4481" style="fill: #d9534f; fill-opacity: 0.16"/>
    </g>
    <g clip-path="url(#pa7e218e853)">
     <use xlink:href="#C1_0_4cb533e6ff" x="180.420376" y="171.273555" style="fill: #d9534f; fill-opacity: 0.16"/>
    </g>
    <g clip-path="url(#pa7e218e853)">
     <use xlink:href="#C1_0_4cb533e6ff" x="185.916179" y="158.124735" style="fill: #d9534f; fill-opacity: 0.16"/>
    </g>
    <g clip-path="url(#pa7e218e853)">
     <use xlink:href="#C1_0_4cb533e6ff" x="189.007568" y="175.562924" style="fill: #d9534f; fill-opacity: 0.16"/>
    </g>
    <g clip-path="url(#pa7e218e853)">
     <use xlink:href="#C1_0_4cb533e6ff" x="194.159883" y="163.874184" style="fill: #d9534f; fill-opacity: 0.16"/>
    </g>
    <g clip-path="url(#pa7e218e853)">
     <use xlink:href="#C1_0_4cb533e6ff" x="198.052743" y="205.720144" style="fill: #d9534f; fill-opacity: 0.16"/>
    </g>
    <g clip-path="url(#pa7e218e853)">
     <use xlink:href="#C1_0_4cb533e6ff" x="201.716612" y="160.595135" style="fill: #d9534f; fill-opacity: 0.16"/>
    </g>
    <g clip-path="url(#pa7e218e853)">
     <use xlink:href="#C1_0_4cb533e6ff" x="210.418299" y="192.927647" style="fill: #d9534f; fill-opacity: 0.16"/>
    </g>
    <g clip-path="url(#pa7e218e853)">
     <use xlink:href="#C1_0_4cb533e6ff" x="219.57797" y="174.475165" style="fill: #d9534f; fill-opacity: 0.16"/>
    </g>
    <g clip-path="url(#pa7e218e853)">
     <use xlink:href="#C1_0_4cb533e6ff" x="228.737642" y="181.208151" style="fill: #d9534f; fill-opacity: 0.16"/>
    </g>
    <g clip-path="url(#pa7e218e853)">
     <use xlink:href="#C1_0_4cb533e6ff" x="237.782817" y="176.207219" style="fill: #d9534f; fill-opacity: 0.16"/>
    </g>
    <g clip-path="url(#pa7e218e853)">
     <use xlink:href="#C1_0_4cb533e6ff" x="243.278619" y="169.457029" style="fill: #d9534f; fill-opacity: 0.16"/>
    </g>
    <g clip-path="url(#pa7e218e853)">
     <use xlink:href="#C1_0_4cb533e6ff" x="252.323795" y="176.297606" style="fill: #d9534f; fill-opacity: 0.16"/>
    </g>
    <g clip-path="url(#pa7e218e853)">
     <use xlink:href="#C1_0_4cb533e6ff" x="260.109515" y="181.599698" style="fill: #d9534f; fill-opacity: 0.16"/>
    </g>
    <g clip-path="url(#pa7e218e853)">
     <use xlink:href="#C1_0_4cb533e6ff" x="261.826953" y="185.764936" style="fill: #d9534f; fill-opacity: 0.16"/>
    </g>
    <g clip-path="url(#pa7e218e853)">
     <use xlink:href="#C1_0_4cb533e6ff" x="264.345863" y="181.216277" style="fill: #d9534f; fill-opacity: 0.16"/>
    </g>
    <g clip-path="url(#pa7e218e853)">
     <use xlink:href="#C1_0_4cb533e6ff" x="273.391038" y="203.225068" style="fill: #d9534f; fill-opacity: 0.16"/>
    </g>
    <g clip-path="url(#pa7e218e853)">
     <use xlink:href="#C1_0_4cb533e6ff" x="278.199866" y="183.993866" style="fill: #d9534f; fill-opacity: 0.16"/>
    </g>
    <g clip-path="url(#pa7e218e853)">
     <use xlink:href="#C1_0_4cb533e6ff" x="287.130545" y="190.50626" style="fill: #d9534f; fill-opacity: 0.16"/>
    </g>
    <g clip-path="url(#pa7e218e853)">
     <use xlink:href="#C1_0_4cb533e6ff" x="291.023405" y="180.028988" style="fill: #d9534f; fill-opacity: 0.16"/>
    </g>
    <g clip-path="url(#pa7e218e853)">
     <use xlink:href="#C1_0_4cb533e6ff" x="298.007654" y="199.281492" style="fill: #d9534f; fill-opacity: 0.16"/>
    </g>
    <g clip-path="url(#pa7e218e853)">
     <use xlink:href="#C1_0_4cb533e6ff" x="303.732449" y="181.894914" style="fill: #d9534f; fill-opacity: 0.16"/>
    </g>
    <g clip-path="url(#pa7e218e853)">
     <use xlink:href="#C1_0_4cb533e6ff" x="310.94569" y="192.736434" style="fill: #d9534f; fill-opacity: 0.16"/>
    </g>
    <g clip-path="url(#pa7e218e853)">
     <use xlink:href="#C1_0_4cb533e6ff" x="320.105361" y="174.116467" style="fill: #d9534f; fill-opacity: 0.16"/>
    </g>
    <g clip-path="url(#pa7e218e853)">
     <use xlink:href="#C1_0_4cb533e6ff" x="327.547594" y="179.456285" style="fill: #d9534f; fill-opacity: 0.16"/>
    </g>
    <g clip-path="url(#pa7e218e853)">
     <use xlink:href="#C1_0_4cb533e6ff" x="336.02029" y="178.482138" style="fill: #d9534f; fill-opacity: 0.16"/>
    </g>
    <g clip-path="url(#pa7e218e853)">
     <use xlink:href="#C1_0_4cb533e6ff" x="339.684158" y="168.465577" style="fill: #d9534f; fill-opacity: 0.16"/>
    </g>
    <g clip-path="url(#pa7e218e853)">
     <use xlink:href="#C1_0_4cb533e6ff" x="341.630588" y="187.254651" style="fill: #d9534f; fill-opacity: 0.16"/>
    </g>
    <g clip-path="url(#pa7e218e853)">
     <use xlink:href="#C1_0_4cb533e6ff" x="350.675764" y="191.821058" style="fill: #d9534f; fill-opacity: 0.16"/>
    </g>
    <g clip-path="url(#pa7e218e853)">
     <use xlink:href="#C1_0_4cb533e6ff" x="353.767153" y="175.610989" style="fill: #d9534f; fill-opacity: 0.16"/>
    </g>
    <g clip-path="url(#pa7e218e853)">
     <use xlink:href="#C1_0_4cb533e6ff" x="359.606443" y="184.671259" style="fill: #d9534f; fill-opacity: 0.16"/>
    </g>
    <g clip-path="url(#pa7e218e853)">
     <use xlink:href="#C1_0_4cb533e6ff" x="365.102246" y="192.544896" style="fill: #d9534f; fill-opacity: 0.16"/>
    </g>
    <g clip-path="url(#pa7e218e853)">
     <use xlink:href="#C1_0_4cb533e6ff" x="369.453089" y="181.576982" style="fill: #d9534f; fill-opacity: 0.16"/>
    </g>
    <g clip-path="url(#pa7e218e853)">
     <use xlink:href="#C1_0_4cb533e6ff" x="378.498265" y="171.590569" style="fill: #d9534f; fill-opacity: 0.16"/>
    </g>
    <g clip-path="url(#pa7e218e853)">
     <use xlink:href="#C1_0_4cb533e6ff" x="387.54344" y="190.016955" style="fill: #d9534f; fill-opacity: 0.16"/>
    </g>
    <g clip-path="url(#pa7e218e853)">
     <use xlink:href="#C1_0_4cb533e6ff" x="388.802895" y="205.437084" style="fill: #d9534f; fill-opacity: 0.16"/>
    </g>
    <g clip-path="url(#pa7e218e853)">
     <use xlink:href="#C1_0_4cb533e6ff" x="397.84807" y="194.840805" style="fill: #d9534f; fill-opacity: 0.16"/>
    </g>
    <g clip-path="url(#pa7e218e853)">
     <use xlink:href="#C1_0_4cb533e6ff" x="402.198914" y="182.470953" style="fill: #d9534f; fill-opacity: 0.16"/>
    </g>
    <g clip-path="url(#pa7e218e853)">
     <use xlink:href="#C1_0_4cb533e6ff" x="405.175807" y="210.12062" style="fill: #d9534f; fill-opacity: 0.16"/>
    </g>
    <g clip-path="url(#pa7e218e853)">
     <use xlink:href="#C1_0_4cb533e6ff" x="409.412155" y="192.612735" style="fill: #d9534f; fill-opacity: 0.16"/>
    </g>
    <g clip-path="url(#pa7e218e853)">
     <use xlink:href="#C1_0_4cb533e6ff" x="418.45733" y="225.245594" style="fill: #d9534f; fill-opacity: 0.16"/>
    </g>
    <g clip-path="url(#pa7e218e853)">
     <use xlink:href="#C1_0_4cb533e6ff" x="421.090735" y="194.413932" style="fill: #d9534f; fill-opacity: 0.16"/>
    </g>
    <g clip-path="url(#pa7e218e853)">
     <use xlink:href="#C1_0_4cb533e6ff" x="425.556075" y="179.481602" style="fill: #d9534f; fill-opacity: 0.16"/>
    </g>
    <g clip-path="url(#pa7e218e853)">
     <use xlink:href="#C1_0_4cb533e6ff" x="428.647464" y="182.401274" style="fill: #d9534f; fill-opacity: 0.16"/>
    </g>
    <g clip-path="url(#pa7e218e853)">
     <use xlink:href="#C1_0_4cb533e6ff" x="431.967845" y="205.487565" style="fill: #d9534f; fill-opacity: 0.16"/>
    </g>
    <g clip-path="url(#pa7e218e853)">
     <use xlink:href="#C1_0_4cb533e6ff" x="434.60125" y="209.894811" style="fill: #d9534f; fill-opacity: 0.16"/>
    </g>
    <g clip-path="url(#pa7e218e853)">
     <use xlink:href="#C1_0_4cb533e6ff" x="436.318689" y="209.90965" style="fill: #d9534f; fill-opacity: 0.16"/>
    </g>
   </g>
   <g id="PolyCollection_2">
    <defs>
     <path id="ma4b379bd7d" d="M 51.040021 -173.839199
L 51.040021 -173.839199
L 58.711246 -173.839199
L 67.756421 -168.928801
L 75.885629 -169.08832
L 82.068407 -169.184217
L 88.022194 -170.051511
L 97.067369 -167.296586
L 106.112544 -167.474652
L 111.035867 -167.437645
L 120.081043 -166.945616
L 126.149325 -168.283718
L 131.530632 -169.276268
L 134.965508 -168.848127
L 144.010683 -167.896274
L 152.483379 -167.705783
L 159.811116 -165.751021
L 168.856291 -162.51582
L 178.015963 -160.285759
L 180.420376 -155.717899
L 185.916179 -154.117286
L 189.007568 -150.384725
L 194.159883 -149.085522
L 198.052743 -139.843028
L 201.716612 -139.623661
L 210.418299 -135.334012
L 219.57797 -133.961671
L 228.737642 -132.710681
L 237.782817 -131.066266
L 243.278619 -131.706855
L 252.323795 -130.531219
L 260.109515 -135.161695
L 261.826953 -132.772632
L 264.345863 -135.002989
L 273.391038 -129.717252
L 278.199866 -129.361179
L 287.130545 -127.556209
L 291.023405 -126.81209
L 298.007654 -123.800222
L 303.732449 -123.774364
L 310.94569 -122.879766
L 320.105361 -123.346888
L 327.547594 -126.923817
L 336.02029 -127.4917
L 339.684158 -129.800986
L 341.630588 -128.847023
L 350.675764 -130.32193
L 353.767153 -131.010429
L 359.606443 -132.428007
L 365.102246 -129.867803
L 369.453089 -129.627334
L 378.498265 -130.203744
L 387.54344 -128.004463
L 388.802895 -124.649793
L 397.84807 -124.181157
L 402.198914 -123.59939
L 405.175807 -119.530168
L 409.412155 -119.521284
L 418.45733 -112.626407
L 421.090735 -110.91136
L 425.556075 -111.707416
L 428.647464 -114.380369
L 431.967845 -112.90332
L 434.60125 -109.656335
L 436.318689 -109.689629
L 436.318689 -120.644143
L 436.318689 -120.644143
L 434.60125 -120.624694
L 431.967845 -124.233673
L 428.647464 -125.418315
L 425.556075 -122.332315
L 421.090735 -120.494533
L 418.45733 -124.485326
L 409.412155 -128.507603
L 405.175807 -128.515678
L 402.198914 -130.808797
L 397.84807 -131.94202
L 388.802895 -132.228321
L 387.54344 -133.41926
L 378.498265 -136.607823
L 369.453089 -135.461341
L 365.102246 -135.751046
L 359.606443 -137.79795
L 353.767153 -137.199234
L 350.675764 -136.316752
L 341.630588 -135.92655
L 339.684158 -136.779002
L 336.02029 -133.578118
L 327.547594 -132.768069
L 320.105361 -130.402802
L 310.94569 -129.094972
L 303.732449 -129.943248
L 298.007654 -129.991194
L 291.023405 -132.725298
L 287.130545 -134.624168
L 278.199866 -136.393959
L 273.391038 -136.734315
L 264.345863 -138.636054
L 261.826953 -137.938567
L 260.109515 -141.841955
L 252.323795 -140.442319
L 243.278619 -142.372539
L 237.782817 -141.486654
L 228.737642 -144.36286
L 219.57797 -145.595519
L 210.418299 -147.479945
L 201.716612 -150.627383
L 198.052743 -151.008014
L 194.159883 -153.693196
L 189.007568 -156.574016
L 185.916179 -159.613113
L 180.420376 -163.520726
L 178.015963 -168.246532
L 168.856291 -169.92831
L 159.811116 -172.067872
L 152.483379 -173.034342
L 144.010683 -173.067762
L 134.965508 -174.127657
L 131.530632 -174.414068
L 126.149325 -173.009643
L 120.081043 -170.696242
L 111.035867 -171.423222
L 106.112544 -171.49163
L 97.067369 -171.925573
L 88.022194 -173.046348
L 82.068407 -172.13694
L 75.885629 -172.823279
L 67.756421 -174.007965
L 58.711246 -174.173071
L 51.040021 -173.839199
z
"/>
    </defs>
    <g clip-path="url(#pa7e218e853)">
     <use xlink:href="#ma4b379bd7d" x="0" y="315.097781" style="fill: #d9534f; fill-opacity: 0.17"/>
    </g>
   </g>
   <g id="line2d_27">
    <path d="M 49.208087 16.461985
L 52.871956 163.221839
L 56.535824 216.310859
L 60.199693 216.174058
L 63.863561 220.650283
L 67.527429 159.457969
L 71.191298 160.116728
L 74.855166 145.61464
L 78.519035 158.972031
L 82.182903 137.881269
L 85.846772 125.721813
L 89.51064 119.980737
L 92.716525 102.781098
L 96.380394 147.748666
L 100.044262 144.273592
L 103.70813 161.513965
L 107.371999 187.520657
L 111.035867 185.936061
L 113.783769 129.608299
L 117.447637 136.845688
L 121.111506 152.570788
L 124.775374 152.577657
L 128.095755 154.627652
L 131.759623 170.892598
L 135.423492 145.850603
L 139.08736 143.994739
L 142.751229 206.181247
L 146.415097 218.307739
L 150.078966 207.232004
L 153.742834 205.836546
L 157.406703 214.567776
L 158.780653 101.310588
L 162.444522 94.63695
L 166.10839 117.547667
L 169.772259 105.452062
L 173.436127 87.529376
L 177.099995 97.226953
L 180.763864 88.131856
L 184.427732 78.952549
L 188.091601 175.434979
L 191.755469 196.692188
L 195.419338 192.581448
L 199.083206 202.226358
L 202.060099 204.879881
L 205.723968 189.39511
L 209.387836 188.384333
L 212.021242 155.193317
L 215.68511 166.745848
L 219.348979 163.393872
L 223.012847 146.821066
L 226.676716 147.85966
L 230.340584 150.095924
L 232.058022 106.934982
L 235.721891 120.099733
L 239.385759 156.64722
L 242.133661 145.68085
L 244.538074 135.356538
L 248.201943 138.324569
L 251.522323 130.40858
L 255.186192 97.193792
L 257.934093 139.802542
L 261.597962 146.966859
L 264.231367 157.311667
L 266.750277 155.182472
" clip-path="url(#pa7e218e853)" style="fill: none; stroke: #2878b5; stroke-width: 2.5; stroke-linecap: square"/>
   </g>
   <g id="line2d_28">
    <path d="M 51.040021 141.258582
L 58.711246 141.091646
L 67.756421 143.629398
L 75.885629 144.141982
L 82.068407 144.437203
L 88.022194 143.548852
L 97.067369 145.486702
L 106.112544 145.61464
L 111.035867 145.667348
L 120.081043 146.276852
L 126.149325 144.451101
L 131.530632 143.252613
L 134.965508 143.609889
L 144.010683 144.615763
L 152.483379 144.727719
L 159.811116 146.188335
L 168.856291 148.875716
L 178.015963 150.831636
L 180.420376 155.478469
L 185.916179 158.232582
L 189.007568 161.618411
L 194.159883 163.708422
L 198.052743 169.67226
L 201.716612 169.972259
L 210.418299 173.690803
L 219.57797 175.319186
L 228.737642 176.561011
L 237.782817 178.821321
L 243.278619 178.058084
L 252.323795 179.611012
L 260.109515 176.595956
L 261.826953 179.742181
L 264.345863 178.27826
L 273.391038 181.871998
L 278.199866 182.220212
L 287.130545 184.007592
L 291.023405 185.329087
L 298.007654 188.202073
L 303.732449 188.238975
L 310.94569 189.110412
L 320.105361 188.222936
L 327.547594 185.251838
L 336.02029 184.562872
L 339.684158 181.807787
L 341.630588 182.710995
L 350.675764 181.778441
L 353.767153 180.99295
L 359.606443 179.984803
L 365.102246 182.288357
L 369.453089 182.553444
L 378.498265 181.691998
L 387.54344 184.38592
L 388.802895 186.658724
L 397.84807 187.036192
L 402.198914 187.893688
L 405.175807 191.074858
L 409.412155 191.083338
L 418.45733 196.541914
L 421.090735 199.394835
L 425.556075 198.077916
L 428.647464 195.198439
L 431.967845 196.529284
L 434.60125 199.957267
L 436.318689 199.930895
" clip-path="url(#pa7e218e853)" style="fill: none; stroke: #d9534f; stroke-width: 2.5; stroke-linecap: square"/>
   </g>
   <g id="line2d_29">
    <path d="M 45.544219 145.61464
L 455.674219 145.61464
" clip-path="url(#pa7e218e853)" style="fill: none; stroke-dasharray: 3.7,1.6; stroke-dashoffset: 0; stroke: #929292"/>
   </g>
   <g id="patch_3">
    <path d="M 45.544219 276.089812
L 45.544219 23.837812
" style="fill: none; stroke: #000000; stroke-width: 0.8; stroke-linejoin: miter; stroke-linecap: square"/>
   </g>
   <g id="patch_4">
    <path d="M 45.544219 276.089812
L 455.674219 276.089812
" style="fill: none; stroke: #000000; stroke-width: 0.8; stroke-linejoin: miter; stroke-linecap: square"/>
   </g>
   <g id="text_20">
    <!-- 1,932 microsteps -->
    <g style="fill: #2878b5" transform="translate(172.195902 172.182472) scale(0.091 -0.091)">
     <defs>
      <path id="DejaVuSans-Bold-31" d="M 750 831
L 1813 831
L 1813 3847
L 722 3622
L 722 4441
L 1806 4666
L 2950 4666
L 2950 831
L 4013 831
L 4013 0
L 750 0
L 750 831
z
" transform="scale(0.015625)"/>
      <path id="DejaVuSans-Bold-2c" d="M 653 1209
L 1778 1209
L 1778 256
L 1006 -909
L 341 -909
L 653 256
L 653 1209
z
" transform="scale(0.015625)"/>
      <path id="DejaVuSans-Bold-39" d="M 641 103
L 641 966
Q 928 831 1190 764
Q 1453 697 1709 697
Q 2247 697 2547 995
Q 2847 1294 2900 1881
Q 2688 1725 2447 1647
Q 2206 1569 1925 1569
Q 1209 1569 770 1986
Q 331 2403 331 3084
Q 331 3838 820 4291
Q 1309 4744 2131 4744
Q 3044 4744 3544 4128
Q 4044 3513 4044 2388
Q 4044 1231 3459 570
Q 2875 -91 1856 -91
Q 1528 -91 1228 -42
Q 928 6 641 103
z
M 2125 2350
Q 2441 2350 2600 2554
Q 2759 2759 2759 3169
Q 2759 3575 2600 3781
Q 2441 3988 2125 3988
Q 1809 3988 1650 3781
Q 1491 3575 1491 3169
Q 1491 2759 1650 2554
Q 1809 2350 2125 2350
z
" transform="scale(0.015625)"/>
      <path id="DejaVuSans-Bold-33" d="M 2981 2516
Q 3453 2394 3698 2092
Q 3944 1791 3944 1325
Q 3944 631 3412 270
Q 2881 -91 1863 -91
Q 1503 -91 1142 -33
Q 781 25 428 141
L 428 1069
Q 766 900 1098 814
Q 1431 728 1753 728
Q 2231 728 2486 893
Q 2741 1059 2741 1369
Q 2741 1688 2480 1852
Q 2219 2016 1709 2016
L 1228 2016
L 1228 2791
L 1734 2791
Q 2188 2791 2409 2933
Q 2631 3075 2631 3366
Q 2631 3634 2415 3781
Q 2200 3928 1806 3928
Q 1516 3928 1219 3862
Q 922 3797 628 3669
L 628 4550
Q 984 4650 1334 4700
Q 1684 4750 2022 4750
Q 2931 4750 3382 4451
Q 3834 4153 3834 3553
Q 3834 3144 3618 2883
Q 3403 2622 2981 2516
z
" transform="scale(0.015625)"/>
      <path id="DejaVuSans-Bold-32" d="M 1844 884
L 3897 884
L 3897 0
L 506 0
L 506 884
L 2209 2388
Q 2438 2594 2547 2791
Q 2656 2988 2656 3200
Q 2656 3528 2436 3728
Q 2216 3928 1850 3928
Q 1569 3928 1234 3808
Q 900 3688 519 3450
L 519 4475
Q 925 4609 1322 4679
Q 1719 4750 2100 4750
Q 2938 4750 3402 4381
Q 3866 4013 3866 3353
Q 3866 2972 3669 2642
Q 3472 2313 2841 1759
L 1844 884
z
" transform="scale(0.015625)"/>
      <path id="DejaVuSans-Bold-20" transform="scale(0.015625)"/>
      <path id="DejaVuSans-Bold-6d" d="M 3781 2919
Q 3994 3244 4286 3414
Q 4578 3584 4928 3584
Q 5531 3584 5847 3212
Q 6163 2841 6163 2131
L 6163 0
L 5038 0
L 5038 1825
Q 5041 1866 5042 1909
Q 5044 1953 5044 2034
Q 5044 2406 4934 2573
Q 4825 2741 4581 2741
Q 4263 2741 4089 2478
Q 3916 2216 3909 1719
L 3909 0
L 2784 0
L 2784 1825
Q 2784 2406 2684 2573
Q 2584 2741 2328 2741
Q 2006 2741 1831 2477
Q 1656 2213 1656 1722
L 1656 0
L 531 0
L 531 3500
L 1656 3500
L 1656 2988
Q 1863 3284 2130 3434
Q 2397 3584 2719 3584
Q 3081 3584 3359 3409
Q 3638 3234 3781 2919
z
" transform="scale(0.015625)"/>
      <path id="DejaVuSans-Bold-69" d="M 538 3500
L 1656 3500
L 1656 0
L 538 0
L 538 3500
z
M 538 4863
L 1656 4863
L 1656 3950
L 538 3950
L 538 4863
z
" transform="scale(0.015625)"/>
      <path id="DejaVuSans-Bold-63" d="M 3366 3391
L 3366 2478
Q 3138 2634 2908 2709
Q 2678 2784 2431 2784
Q 1963 2784 1702 2511
Q 1441 2238 1441 1747
Q 1441 1256 1702 982
Q 1963 709 2431 709
Q 2694 709 2930 787
Q 3166 866 3366 1019
L 3366 103
Q 3103 6 2833 -42
Q 2563 -91 2291 -91
Q 1344 -91 809 395
Q 275 881 275 1747
Q 275 2613 809 3098
Q 1344 3584 2291 3584
Q 2566 3584 2833 3536
Q 3100 3488 3366 3391
z
" transform="scale(0.015625)"/>
      <path id="DejaVuSans-Bold-72" d="M 3138 2547
Q 2991 2616 2845 2648
Q 2700 2681 2553 2681
Q 2122 2681 1889 2404
Q 1656 2128 1656 1613
L 1656 0
L 538 0
L 538 3500
L 1656 3500
L 1656 2925
Q 1872 3269 2151 3426
Q 2431 3584 2822 3584
Q 2878 3584 2943 3579
Q 3009 3575 3134 3559
L 3138 2547
z
" transform="scale(0.015625)"/>
      <path id="DejaVuSans-Bold-6f" d="M 2203 2784
Q 1831 2784 1636 2517
Q 1441 2250 1441 1747
Q 1441 1244 1636 976
Q 1831 709 2203 709
Q 2569 709 2762 976
Q 2956 1244 2956 1747
Q 2956 2250 2762 2517
Q 2569 2784 2203 2784
z
M 2203 3584
Q 3106 3584 3614 3096
Q 4122 2609 4122 1747
Q 4122 884 3614 396
Q 3106 -91 2203 -91
Q 1297 -91 786 396
Q 275 884 275 1747
Q 275 2609 786 3096
Q 1297 3584 2203 3584
z
" transform="scale(0.015625)"/>
      <path id="DejaVuSans-Bold-73" d="M 3272 3391
L 3272 2541
Q 2913 2691 2578 2766
Q 2244 2841 1947 2841
Q 1628 2841 1473 2761
Q 1319 2681 1319 2516
Q 1319 2381 1436 2309
Q 1553 2238 1856 2203
L 2053 2175
Q 2913 2066 3209 1816
Q 3506 1566 3506 1031
Q 3506 472 3093 190
Q 2681 -91 1863 -91
Q 1516 -91 1145 -36
Q 775 19 384 128
L 384 978
Q 719 816 1070 734
Q 1422 653 1784 653
Q 2113 653 2278 743
Q 2444 834 2444 1013
Q 2444 1163 2330 1236
Q 2216 1309 1875 1350
L 1678 1375
Q 931 1469 631 1722
Q 331 1975 331 2491
Q 331 3047 712 3315
Q 1094 3584 1881 3584
Q 2191 3584 2531 3537
Q 2872 3491 3272 3391
z
" transform="scale(0.015625)"/>
      <path id="DejaVuSans-Bold-74" d="M 1759 4494
L 1759 3500
L 2913 3500
L 2913 2700
L 1759 2700
L 1759 1216
Q 1759 972 1856 886
Q 1953 800 2241 800
L 2816 800
L 2816 0
L 1856 0
Q 1194 0 917 276
Q 641 553 641 1216
L 641 2700
L 84 2700
L 84 3500
L 641 3500
L 641 4494
L 1759 4494
z
" transform="scale(0.015625)"/>
      <path id="DejaVuSans-Bold-65" d="M 4031 1759
L 4031 1441
L 1416 1441
Q 1456 1047 1700 850
Q 1944 653 2381 653
Q 2734 653 3104 758
Q 3475 863 3866 1075
L 3866 213
Q 3469 63 3072 -14
Q 2675 -91 2278 -91
Q 1328 -91 801 392
Q 275 875 275 1747
Q 275 2603 792 3093
Q 1309 3584 2216 3584
Q 3041 3584 3536 3087
Q 4031 2591 4031 1759
z
M 2881 2131
Q 2881 2450 2695 2645
Q 2509 2841 2209 2841
Q 1884 2841 1681 2658
Q 1478 2475 1428 2131
L 2881 2131
z
" transform="scale(0.015625)"/>
      <path id="DejaVuSans-Bold-70" d="M 1656 506
L 1656 -1331
L 538 -1331
L 538 3500
L 1656 3500
L 1656 2988
Q 1888 3294 2169 3439
Q 2450 3584 2816 3584
Q 3463 3584 3878 3070
Q 4294 2556 4294 1747
Q 4294 938 3878 423
Q 3463 -91 2816 -91
Q 2450 -91 2169 54
Q 1888 200 1656 506
z
M 2400 2772
Q 2041 2772 1848 2508
Q 1656 2244 1656 1747
Q 1656 1250 1848 986
Q 2041 722 2400 722
Q 2759 722 2948 984
Q 3138 1247 3138 1747
Q 3138 2247 2948 2509
Q 2759 2772 2400 2772
z
" transform="scale(0.015625)"/>
     </defs>
     <use xlink:href="#DejaVuSans-Bold-31"/>
     <use xlink:href="#DejaVuSans-Bold-2c" x="69.580078"/>
     <use xlink:href="#DejaVuSans-Bold-39" x="107.568359"/>
     <use xlink:href="#DejaVuSans-Bold-33" x="177.148438"/>
     <use xlink:href="#DejaVuSans-Bold-32" x="246.728516"/>
     <use xlink:href="#DejaVuSans-Bold-20" x="316.308594"/>
     <use xlink:href="#DejaVuSans-Bold-6d" x="351.123047"/>
     <use xlink:href="#DejaVuSans-Bold-69" x="455.322266"/>
     <use xlink:href="#DejaVuSans-Bold-63" x="489.599609"/>
     <use xlink:href="#DejaVuSans-Bold-72" x="548.876953"/>
     <use xlink:href="#DejaVuSans-Bold-6f" x="598.193359"/>
     <use xlink:href="#DejaVuSans-Bold-73" x="666.894531"/>
     <use xlink:href="#DejaVuSans-Bold-74" x="726.416016"/>
     <use xlink:href="#DejaVuSans-Bold-65" x="774.21875"/>
     <use xlink:href="#DejaVuSans-Bold-70" x="842.041016"/>
     <use xlink:href="#DejaVuSans-Bold-73" x="913.623047"/>
    </g>
   </g>
   <g id="text_21">
    <!-- 3,413 microsteps -->
    <g style="fill: #d9534f" transform="translate(341.764314 190.930895) scale(0.091 -0.091)">
     <defs>
      <path id="DejaVuSans-Bold-34" d="M 2356 3675
L 1038 1722
L 2356 1722
L 2356 3675
z
M 2156 4666
L 3494 4666
L 3494 1722
L 4159 1722
L 4159 850
L 3494 850
L 3494 0
L 2356 0
L 2356 850
L 288 850
L 288 1881
L 2156 4666
z
" transform="scale(0.015625)"/>
     </defs>
     <use xlink:href="#DejaVuSans-Bold-33"/>
     <use xlink:href="#DejaVuSans-Bold-2c" x="69.580078"/>
     <use xlink:href="#DejaVuSans-Bold-34" x="107.568359"/>
     <use xlink:href="#DejaVuSans-Bold-31" x="177.148438"/>
     <use xlink:href="#DejaVuSans-Bold-33" x="246.728516"/>
     <use xlink:href="#DejaVuSans-Bold-20" x="316.308594"/>
     <use xlink:href="#DejaVuSans-Bold-6d" x="351.123047"/>
     <use xlink:href="#DejaVuSans-Bold-69" x="455.322266"/>
     <use xlink:href="#DejaVuSans-Bold-63" x="489.599609"/>
     <use xlink:href="#DejaVuSans-Bold-72" x="548.876953"/>
     <use xlink:href="#DejaVuSans-Bold-6f" x="598.193359"/>
     <use xlink:href="#DejaVuSans-Bold-73" x="666.894531"/>
     <use xlink:href="#DejaVuSans-Bold-74" x="726.416016"/>
     <use xlink:href="#DejaVuSans-Bold-65" x="774.21875"/>
     <use xlink:href="#DejaVuSans-Bold-70" x="842.041016"/>
     <use xlink:href="#DejaVuSans-Bold-73" x="913.623047"/>
    </g>
   </g>
   <g id="text_22">
    <!-- shadow: causal 8-update SEM within each trajectory -->
    <g style="fill: #727272" transform="translate(50.465779 271.549276) scale(0.083 -0.083)">
     <defs>
      <path id="DejaVuSans-77" d="M 269 3500
L 844 3500
L 1563 769
L 2278 3500
L 2956 3500
L 3675 769
L 4391 3500
L 4966 3500
L 4050 0
L 3372 0
L 2619 2869
L 1863 0
L 1184 0
L 269 3500
z
" transform="scale(0.015625)"/>
      <path id="DejaVuSans-3a" d="M 750 794
L 1409 794
L 1409 0
L 750 0
L 750 794
z
M 750 3309
L 1409 3309
L 1409 2516
L 750 2516
L 750 3309
z
" transform="scale(0.015625)"/>
      <path id="DejaVuSans-53" d="M 3425 4513
L 3425 3897
Q 3066 4069 2747 4153
Q 2428 4238 2131 4238
Q 1616 4238 1336 4038
Q 1056 3838 1056 3469
Q 1056 3159 1242 3001
Q 1428 2844 1947 2747
L 2328 2669
Q 3034 2534 3370 2195
Q 3706 1856 3706 1288
Q 3706 609 3251 259
Q 2797 -91 1919 -91
Q 1588 -91 1214 -16
Q 841 59 441 206
L 441 856
Q 825 641 1194 531
Q 1563 422 1919 422
Q 2459 422 2753 634
Q 3047 847 3047 1241
Q 3047 1584 2836 1778
Q 2625 1972 2144 2069
L 1759 2144
Q 1053 2284 737 2584
Q 422 2884 422 3419
Q 422 4038 858 4394
Q 1294 4750 2059 4750
Q 2388 4750 2728 4690
Q 3069 4631 3425 4513
z
" transform="scale(0.015625)"/>
      <path id="DejaVuSans-45" d="M 628 4666
L 3578 4666
L 3578 4134
L 1259 4134
L 1259 2753
L 3481 2753
L 3481 2222
L 1259 2222
L 1259 531
L 3634 531
L 3634 0
L 628 0
L 628 4666
z
" transform="scale(0.015625)"/>
      <path id="DejaVuSans-4d" d="M 628 4666
L 1569 4666
L 2759 1491
L 3956 4666
L 4897 4666
L 4897 0
L 4281 0
L 4281 4097
L 3078 897
L 2444 897
L 1241 4097
L 1241 0
L 628 0
L 628 4666
z
" transform="scale(0.015625)"/>
      <path id="DejaVuSans-79" d="M 2059 -325
Q 1816 -950 1584 -1140
Q 1353 -1331 966 -1331
L 506 -1331
L 506 -850
L 844 -850
Q 1081 -850 1212 -737
Q 1344 -625 1503 -206
L 1606 56
L 191 3500
L 800 3500
L 1894 763
L 2988 3500
L 3597 3500
L 2059 -325
z
" transform="scale(0.015625)"/>
     </defs>
     <use xlink:href="#DejaVuSans-73"/>
     <use xlink:href="#DejaVuSans-68" x="52.099609"/>
     <use xlink:href="#DejaVuSans-61" x="115.478516"/>
     <use xlink:href="#DejaVuSans-64" x="176.757812"/>
     <use xlink:href="#DejaVuSans-6f" x="240.234375"/>
     <use xlink:href="#DejaVuSans-77" x="301.416016"/>
     <use xlink:href="#DejaVuSans-3a" x="377.703125"/>
     <use xlink:href="#DejaVuSans-20" x="411.394531"/>
     <use xlink:href="#DejaVuSans-63" x="443.181641"/>
     <use xlink:href="#DejaVuSans-61" x="498.162109"/>
     <use xlink:href="#DejaVuSans-75" x="559.441406"/>
     <use xlink:href="#DejaVuSans-73" x="622.820312"/>
     <use xlink:href="#DejaVuSans-61" x="674.919922"/>
     <use xlink:href="#DejaVuSans-6c" x="736.199219"/>
     <use xlink:href="#DejaVuSans-20" x="763.982422"/>
     <use xlink:href="#DejaVuSans-38" x="795.769531"/>
     <use xlink:href="#DejaVuSans-2d" x="859.392578"/>
     <use xlink:href="#DejaVuSans-75" x="895.476562"/>
     <use xlink:href="#DejaVuSans-70" x="958.855469"/>
     <use xlink:href="#DejaVuSans-64" x="1022.332031"/>
     <use xlink:href="#DejaVuSans-61" x="1085.808594"/>
     <use xlink:href="#DejaVuSans-74" x="1147.087891"/>
     <use xlink:href="#DejaVuSans-65" x="1186.296875"/>
     <use xlink:href="#DejaVuSans-20" x="1247.820312"/>
     <use xlink:href="#DejaVuSans-53" x="1279.607422"/>
     <use xlink:href="#DejaVuSans-45" x="1343.083984"/>
     <use xlink:href="#DejaVuSans-4d" x="1406.267578"/>
     <use xlink:href="#DejaVuSans-20" x="1492.546875"/>
     <use xlink:href="#DejaVuSans-77" x="1524.333984"/>
     <use xlink:href="#DejaVuSans-69" x="1606.121094"/>
     <use xlink:href="#DejaVuSans-74" x="1633.904297"/>
     <use xlink:href="#DejaVuSans-68" x="1673.113281"/>
     <use xlink:href="#DejaVuSans-69" x="1736.492188"/>
     <use xlink:href="#DejaVuSans-6e" x="1764.275391"/>
     <use xlink:href="#DejaVuSans-20" x="1827.654297"/>
     <use xlink:href="#DejaVuSans-65" x="1859.441406"/>
     <use xlink:href="#DejaVuSans-61" x="1920.964844"/>
     <use xlink:href="#DejaVuSans-63" x="1982.244141"/>
     <use xlink:href="#DejaVuSans-68" x="2037.224609"/>
     <use xlink:href="#DejaVuSans-20" x="2100.603516"/>
     <use xlink:href="#DejaVuSans-74" x="2132.390625"/>
     <use xlink:href="#DejaVuSans-72" x="2171.599609"/>
     <use xlink:href="#DejaVuSans-61" x="2212.712891"/>
     <use xlink:href="#DejaVuSans-6a" x="2273.992188"/>
     <use xlink:href="#DejaVuSans-65" x="2301.775391"/>
     <use xlink:href="#DejaVuSans-63" x="2363.298828"/>
     <use xlink:href="#DejaVuSans-74" x="2418.279297"/>
     <use xlink:href="#DejaVuSans-6f" x="2457.488281"/>
     <use xlink:href="#DejaVuSans-72" x="2518.669922"/>
     <use xlink:href="#DejaVuSans-79" x="2559.783203"/>
    </g>
   </g>
   <g id="text_23">
    <!-- TRSD converges steadily over thousands of token updates -->
    <g transform="translate(45.544219 17.837812) scale(0.14 -0.14)">
     <defs>
      <path id="DejaVuSans-Bold-54" d="M 31 4666
L 4331 4666
L 4331 3756
L 2784 3756
L 2784 0
L 1581 0
L 1581 3756
L 31 3756
L 31 4666
z
" transform="scale(0.015625)"/>
      <path id="DejaVuSans-Bold-52" d="M 2297 2597
Q 2675 2597 2839 2737
Q 3003 2878 3003 3200
Q 3003 3519 2839 3656
Q 2675 3794 2297 3794
L 1791 3794
L 1791 2597
L 2297 2597
z
M 1791 1766
L 1791 0
L 588 0
L 588 4666
L 2425 4666
Q 3347 4666 3776 4356
Q 4206 4047 4206 3378
Q 4206 2916 3982 2619
Q 3759 2322 3309 2181
Q 3556 2125 3751 1926
Q 3947 1728 4147 1325
L 4800 0
L 3519 0
L 2950 1159
Q 2778 1509 2601 1637
Q 2425 1766 2131 1766
L 1791 1766
z
" transform="scale(0.015625)"/>
      <path id="DejaVuSans-Bold-53" d="M 3834 4519
L 3834 3531
Q 3450 3703 3084 3790
Q 2719 3878 2394 3878
Q 1963 3878 1756 3759
Q 1550 3641 1550 3391
Q 1550 3203 1689 3098
Q 1828 2994 2194 2919
L 2706 2816
Q 3484 2659 3812 2340
Q 4141 2022 4141 1434
Q 4141 663 3683 286
Q 3225 -91 2284 -91
Q 1841 -91 1394 -6
Q 947 78 500 244
L 500 1259
Q 947 1022 1364 901
Q 1781 781 2169 781
Q 2563 781 2772 912
Q 2981 1044 2981 1288
Q 2981 1506 2839 1625
Q 2697 1744 2272 1838
L 1806 1941
Q 1106 2091 782 2419
Q 459 2747 459 3303
Q 459 4000 909 4375
Q 1359 4750 2203 4750
Q 2588 4750 2994 4692
Q 3400 4634 3834 4519
z
" transform="scale(0.015625)"/>
      <path id="DejaVuSans-Bold-44" d="M 1791 3756
L 1791 909
L 2222 909
Q 2959 909 3348 1275
Q 3738 1641 3738 2338
Q 3738 3031 3350 3393
Q 2963 3756 2222 3756
L 1791 3756
z
M 588 4666
L 1856 4666
Q 2919 4666 3439 4514
Q 3959 4363 4331 4000
Q 4659 3684 4818 3271
Q 4978 2859 4978 2338
Q 4978 1809 4818 1395
Q 4659 981 4331 666
Q 3956 303 3431 151
Q 2906 0 1856 0
L 588 0
L 588 4666
z
" transform="scale(0.015625)"/>
      <path id="DejaVuSans-Bold-6e" d="M 4056 2131
L 4056 0
L 2931 0
L 2931 347
L 2931 1631
Q 2931 2084 2911 2256
Q 2891 2428 2841 2509
Q 2775 2619 2662 2680
Q 2550 2741 2406 2741
Q 2056 2741 1856 2470
Q 1656 2200 1656 1722
L 1656 0
L 538 0
L 538 3500
L 1656 3500
L 1656 2988
Q 1909 3294 2193 3439
Q 2478 3584 2822 3584
Q 3428 3584 3742 3212
Q 4056 2841 4056 2131
z
" transform="scale(0.015625)"/>
      <path id="DejaVuSans-Bold-76" d="M 97 3500
L 1216 3500
L 2088 1081
L 2956 3500
L 4078 3500
L 2700 0
L 1472 0
L 97 3500
z
" transform="scale(0.015625)"/>
      <path id="DejaVuSans-Bold-67" d="M 2919 594
Q 2688 288 2409 144
Q 2131 0 1766 0
Q 1125 0 706 504
Q 288 1009 288 1791
Q 288 2575 706 3076
Q 1125 3578 1766 3578
Q 2131 3578 2409 3434
Q 2688 3291 2919 2981
L 2919 3500
L 4044 3500
L 4044 353
Q 4044 -491 3511 -936
Q 2978 -1381 1966 -1381
Q 1638 -1381 1331 -1331
Q 1025 -1281 716 -1178
L 716 -306
Q 1009 -475 1290 -558
Q 1572 -641 1856 -641
Q 2406 -641 2662 -400
Q 2919 -159 2919 353
L 2919 594
z
M 2181 2772
Q 1834 2772 1640 2515
Q 1447 2259 1447 1791
Q 1447 1309 1634 1061
Q 1822 813 2181 813
Q 2531 813 2725 1069
Q 2919 1325 2919 1791
Q 2919 2259 2725 2515
Q 2531 2772 2181 2772
z
" transform="scale(0.015625)"/>
      <path id="DejaVuSans-Bold-61" d="M 2106 1575
Q 1756 1575 1579 1456
Q 1403 1338 1403 1106
Q 1403 894 1545 773
Q 1688 653 1941 653
Q 2256 653 2472 879
Q 2688 1106 2688 1447
L 2688 1575
L 2106 1575
z
M 3816 1997
L 3816 0
L 2688 0
L 2688 519
Q 2463 200 2181 54
Q 1900 -91 1497 -91
Q 953 -91 614 226
Q 275 544 275 1050
Q 275 1666 698 1953
Q 1122 2241 2028 2241
L 2688 2241
L 2688 2328
Q 2688 2594 2478 2717
Q 2269 2841 1825 2841
Q 1466 2841 1156 2769
Q 847 2697 581 2553
L 581 3406
Q 941 3494 1303 3539
Q 1666 3584 2028 3584
Q 2975 3584 3395 3211
Q 3816 2838 3816 1997
z
" transform="scale(0.015625)"/>
      <path id="DejaVuSans-Bold-64" d="M 2919 2988
L 2919 4863
L 4044 4863
L 4044 0
L 2919 0
L 2919 506
Q 2688 197 2409 53
Q 2131 -91 1766 -91
Q 1119 -91 703 423
Q 288 938 288 1747
Q 288 2556 703 3070
Q 1119 3584 1766 3584
Q 2128 3584 2408 3439
Q 2688 3294 2919 2988
z
M 2181 722
Q 2541 722 2730 984
Q 2919 1247 2919 1747
Q 2919 2247 2730 2509
Q 2541 2772 2181 2772
Q 1825 2772 1636 2509
Q 1447 2247 1447 1747
Q 1447 1247 1636 984
Q 1825 722 2181 722
z
" transform="scale(0.015625)"/>
      <path id="DejaVuSans-Bold-6c" d="M 538 4863
L 1656 4863
L 1656 0
L 538 0
L 538 4863
z
" transform="scale(0.015625)"/>
      <path id="DejaVuSans-Bold-79" d="M 78 3500
L 1197 3500
L 2138 1125
L 2938 3500
L 4056 3500
L 2584 -331
Q 2363 -916 2067 -1148
Q 1772 -1381 1288 -1381
L 641 -1381
L 641 -647
L 991 -647
Q 1275 -647 1404 -556
Q 1534 -466 1606 -231
L 1638 -134
L 78 3500
z
" transform="scale(0.015625)"/>
      <path id="DejaVuSans-Bold-68" d="M 4056 2131
L 4056 0
L 2931 0
L 2931 347
L 2931 1625
Q 2931 2084 2911 2256
Q 2891 2428 2841 2509
Q 2775 2619 2662 2680
Q 2550 2741 2406 2741
Q 2056 2741 1856 2470
Q 1656 2200 1656 1722
L 1656 0
L 538 0
L 538 4863
L 1656 4863
L 1656 2988
Q 1909 3294 2193 3439
Q 2478 3584 2822 3584
Q 3428 3584 3742 3212
Q 4056 2841 4056 2131
z
" transform="scale(0.015625)"/>
      <path id="DejaVuSans-Bold-75" d="M 500 1363
L 500 3500
L 1625 3500
L 1625 3150
Q 1625 2866 1622 2436
Q 1619 2006 1619 1863
Q 1619 1441 1641 1255
Q 1663 1069 1716 984
Q 1784 875 1895 815
Q 2006 756 2150 756
Q 2500 756 2700 1025
Q 2900 1294 2900 1772
L 2900 3500
L 4019 3500
L 4019 0
L 2900 0
L 2900 506
Q 2647 200 2364 54
Q 2081 -91 1741 -91
Q 1134 -91 817 281
Q 500 653 500 1363
z
" transform="scale(0.015625)"/>
      <path id="DejaVuSans-Bold-66" d="M 2841 4863
L 2841 4128
L 2222 4128
Q 1984 4128 1890 4042
Q 1797 3956 1797 3744
L 1797 3500
L 2753 3500
L 2753 2700
L 1797 2700
L 1797 0
L 678 0
L 678 2700
L 122 2700
L 122 3500
L 678 3500
L 678 3744
Q 678 4316 997 4589
Q 1316 4863 1984 4863
L 2841 4863
z
" transform="scale(0.015625)"/>
      <path id="DejaVuSans-Bold-6b" d="M 538 4863
L 1656 4863
L 1656 2216
L 2944 3500
L 4244 3500
L 2534 1894
L 4378 0
L 3022 0
L 1656 1459
L 1656 0
L 538 0
L 538 4863
z
" transform="scale(0.015625)"/>
     </defs>
     <use xlink:href="#DejaVuSans-Bold-54"/>
     <use xlink:href="#DejaVuSans-Bold-52" x="68.212891"/>
     <use xlink:href="#DejaVuSans-Bold-53" x="145.214844"/>
     <use xlink:href="#DejaVuSans-Bold-44" x="217.236328"/>
     <use xlink:href="#DejaVuSans-Bold-20" x="300.244141"/>
     <use xlink:href="#DejaVuSans-Bold-63" x="335.058594"/>
     <use xlink:href="#DejaVuSans-Bold-6f" x="394.335938"/>
     <use xlink:href="#DejaVuSans-Bold-6e" x="463.037109"/>
     <use xlink:href="#DejaVuSans-Bold-76" x="534.228516"/>
     <use xlink:href="#DejaVuSans-Bold-65" x="599.414062"/>
     <use xlink:href="#DejaVuSans-Bold-72" x="667.236328"/>
     <use xlink:href="#DejaVuSans-Bold-67" x="716.552734"/>
     <use xlink:href="#DejaVuSans-Bold-65" x="788.134766"/>
     <use xlink:href="#DejaVuSans-Bold-73" x="855.957031"/>
     <use xlink:href="#DejaVuSans-Bold-20" x="915.478516"/>
     <use xlink:href="#DejaVuSans-Bold-73" x="950.292969"/>
     <use xlink:href="#DejaVuSans-Bold-74" x="1009.814453"/>
     <use xlink:href="#DejaVuSans-Bold-65" x="1057.617188"/>
     <use xlink:href="#DejaVuSans-Bold-61" x="1125.439453"/>
     <use xlink:href="#DejaVuSans-Bold-64" x="1192.919922"/>
     <use xlink:href="#DejaVuSans-Bold-69" x="1264.501953"/>
     <use xlink:href="#DejaVuSans-Bold-6c" x="1298.779297"/>
     <use xlink:href="#DejaVuSans-Bold-79" x="1333.056641"/>
     <use xlink:href="#DejaVuSans-Bold-20" x="1398.242188"/>
     <use xlink:href="#DejaVuSans-Bold-6f" x="1433.056641"/>
     <use xlink:href="#DejaVuSans-Bold-76" x="1501.757812"/>
     <use xlink:href="#DejaVuSans-Bold-65" x="1566.943359"/>
     <use xlink:href="#DejaVuSans-Bold-72" x="1634.765625"/>
     <use xlink:href="#DejaVuSans-Bold-20" x="1684.082031"/>
     <use xlink:href="#DejaVuSans-Bold-74" x="1718.896484"/>
     <use xlink:href="#DejaVuSans-Bold-68" x="1766.699219"/>
     <use xlink:href="#DejaVuSans-Bold-6f" x="1837.890625"/>
     <use xlink:href="#DejaVuSans-Bold-75" x="1906.591797"/>
     <use xlink:href="#DejaVuSans-Bold-73" x="1977.783203"/>
     <use xlink:href="#DejaVuSans-Bold-61" x="2037.304688"/>
     <use xlink:href="#DejaVuSans-Bold-6e" x="2104.785156"/>
     <use xlink:href="#DejaVuSans-Bold-64" x="2175.976562"/>
     <use xlink:href="#DejaVuSans-Bold-73" x="2247.558594"/>
     <use xlink:href="#DejaVuSans-Bold-20" x="2307.080078"/>
     <use xlink:href="#DejaVuSans-Bold-6f" x="2341.894531"/>
     <use xlink:href="#DejaVuSans-Bold-66" x="2410.595703"/>
     <use xlink:href="#DejaVuSans-Bold-20" x="2454.101562"/>
     <use xlink:href="#DejaVuSans-Bold-74" x="2488.916016"/>
     <use xlink:href="#DejaVuSans-Bold-6f" x="2536.71875"/>
     <use xlink:href="#DejaVuSans-Bold-6b" x="2605.419922"/>
     <use xlink:href="#DejaVuSans-Bold-65" x="2669.298828"/>
     <use xlink:href="#DejaVuSans-Bold-6e" x="2737.121094"/>
     <use xlink:href="#DejaVuSans-Bold-20" x="2808.3125"/>
     <use xlink:href="#DejaVuSans-Bold-75" x="2843.126953"/>
     <use xlink:href="#DejaVuSans-Bold-70" x="2914.318359"/>
     <use xlink:href="#DejaVuSans-Bold-64" x="2985.900391"/>
     <use xlink:href="#DejaVuSans-Bold-61" x="3057.482422"/>
     <use xlink:href="#DejaVuSans-Bold-74" x="3124.962891"/>
     <use xlink:href="#DejaVuSans-Bold-65" x="3172.765625"/>
     <use xlink:href="#DejaVuSans-Bold-73" x="3240.587891"/>
    </g>
   </g>
   <g id="PathCollection_3">
    <defs>
     <path id="m2b39d21686" d="M 0 3.082207
C 0.817411 3.082207 1.601453 2.757446 2.179449 2.179449
C 2.757446 1.601453 3.082207 0.817411 3.082207 0
C 3.082207 -0.817411 2.757446 -1.601453 2.179449 -2.179449
C 1.601453 -2.757446 0.817411 -3.082207 0 -3.082207
C -0.817411 -3.082207 -1.601453 -2.757446 -2.179449 -2.179449
C -2.757446 -1.601453 -3.082207 -0.817411 -3.082207 0
C -3.082207 0.817411 -2.757446 1.601453 -2.179449 2.179449
C -1.601453 2.757446 -0.817411 3.082207 0 3.082207
z
" style="stroke: #2878b5"/>
    </defs>
    <g clip-path="url(#pa7e218e853)">
     <use xlink:href="#m2b39d21686" x="266.750277" y="155.182472" style="fill: #2878b5; stroke: #2878b5"/>
    </g>
   </g>
   <g id="PathCollection_4">
    <defs>
     <path id="m74d6f2a11d" d="M 0 3.082207
C 0.817411 3.082207 1.601453 2.757446 2.179449 2.179449
C 2.757446 1.601453 3.082207 0.817411 3.082207 0
C 3.082207 -0.817411 2.757446 -1.601453 2.179449 -2.179449
C 1.601453 -2.757446 0.817411 -3.082207 0 -3.082207
C -0.817411 -3.082207 -1.601453 -2.757446 -2.179449 -2.179449
C -2.757446 -1.601453 -3.082207 -0.817411 -3.082207 0
C -3.082207 0.817411 -2.757446 1.601453 -2.179449 2.179449
C -1.601453 2.757446 -0.817411 3.082207 0 3.082207
z
" style="stroke: #d9534f"/>
    </defs>
    <g clip-path="url(#pa7e218e853)">
     <use xlink:href="#m74d6f2a11d" x="436.318689" y="199.930895" style="fill: #d9534f; stroke: #d9534f"/>
    </g>
   </g>
   <g id="legend_1">
    <g id="line2d_30">
     <path d="M 267.734031 35.888375
L 276.934031 35.888375
L 286.134031 35.888375
" style="fill: none; stroke: #2878b5; stroke-width: 2.5; stroke-linecap: square"/>
    </g>
    <g id="text_24">
     <!-- Privileged-SD · mean ± local SEM -->
     <g transform="translate(293.494031 39.108375) scale(0.092 -0.092)">
      <defs>
       <path id="DejaVuSans-50" d="M 1259 4147
L 1259 2394
L 2053 2394
Q 2494 2394 2734 2622
Q 2975 2850 2975 3272
Q 2975 3691 2734 3919
Q 2494 4147 2053 4147
L 1259 4147
z
M 628 4666
L 2053 4666
Q 2838 4666 3239 4311
Q 3641 3956 3641 3272
Q 3641 2581 3239 2228
Q 2838 1875 2053 1875
L 1259 1875
L 1259 0
L 628 0
L 628 4666
z
" transform="scale(0.015625)"/>
       <path id="DejaVuSans-67" d="M 2906 1791
Q 2906 2416 2648 2759
Q 2391 3103 1925 3103
Q 1463 3103 1205 2759
Q 947 2416 947 1791
Q 947 1169 1205 825
Q 1463 481 1925 481
Q 2391 481 2648 825
Q 2906 1169 2906 1791
z
M 3481 434
Q 3481 -459 3084 -895
Q 2688 -1331 1869 -1331
Q 1566 -1331 1297 -1286
Q 1028 -1241 775 -1147
L 775 -588
Q 1028 -725 1275 -790
Q 1522 -856 1778 -856
Q 2344 -856 2625 -561
Q 2906 -266 2906 331
L 2906 616
Q 2728 306 2450 153
Q 2172 0 1784 0
Q 1141 0 747 490
Q 353 981 353 1791
Q 353 2603 747 3093
Q 1141 3584 1784 3584
Q 2172 3584 2450 3431
Q 2728 3278 2906 2969
L 2906 3500
L 3481 3500
L 3481 434
z
" transform="scale(0.015625)"/>
       <path id="DejaVuSans-44" d="M 1259 4147
L 1259 519
L 2022 519
Q 2988 519 3436 956
Q 3884 1394 3884 2338
Q 3884 3275 3436 3711
Q 2988 4147 2022 4147
L 1259 4147
z
M 628 4666
L 1925 4666
Q 3281 4666 3915 4102
Q 4550 3538 4550 2338
Q 4550 1131 3912 565
Q 3275 0 1925 0
L 628 0
L 628 4666
z
" transform="scale(0.015625)"/>
       <path id="DejaVuSans-b7" d="M 684 2619
L 1344 2619
L 1344 1825
L 684 1825
L 684 2619
z
" transform="scale(0.015625)"/>
       <path id="DejaVuSans-b1" d="M 2944 4013
L 2944 2803
L 4684 2803
L 4684 2272
L 2944 2272
L 2944 1063
L 2419 1063
L 2419 2272
L 678 2272
L 678 2803
L 2419 2803
L 2419 4013
L 2944 4013
z
M 678 531
L 4684 531
L 4684 0
L 678 0
L 678 531
z
" transform="scale(0.015625)"/>
      </defs>
      <use xlink:href="#DejaVuSans-50"/>
      <use xlink:href="#DejaVuSans-72" x="58.552734"/>
      <use xlink:href="#DejaVuSans-69" x="99.666016"/>
      <use xlink:href="#DejaVuSans-76" x="127.449219"/>
      <use xlink:href="#DejaVuSans-69" x="186.628906"/>
      <use xlink:href="#DejaVuSans-6c" x="214.412109"/>
      <use xlink:href="#DejaVuSans-65" x="242.195312"/>
      <use xlink:href="#DejaVuSans-67" x="303.71875"/>
      <use xlink:href="#DejaVuSans-65" x="367.195312"/>
      <use xlink:href="#DejaVuSans-64" x="428.71875"/>
      <use xlink:href="#DejaVuSans-2d" x="492.195312"/>
      <use xlink:href="#DejaVuSans-53" x="528.279297"/>
      <use xlink:href="#DejaVuSans-44" x="591.755859"/>
      <use xlink:href="#DejaVuSans-20" x="668.757812"/>
      <use xlink:href="#DejaVuSans-b7" x="700.544922"/>
      <use xlink:href="#DejaVuSans-20" x="732.332031"/>
      <use xlink:href="#DejaVuSans-6d" x="764.119141"/>
      <use xlink:href="#DejaVuSans-65" x="861.53125"/>
      <use xlink:href="#DejaVuSans-61" x="923.054688"/>
      <use xlink:href="#DejaVuSans-6e" x="984.333984"/>
      <use xlink:href="#DejaVuSans-20" x="1047.712891"/>
      <use xlink:href="#DejaVuSans-b1" x="1079.5"/>
      <use xlink:href="#DejaVuSans-20" x="1163.289062"/>
      <use xlink:href="#DejaVuSans-6c" x="1195.076172"/>
      <use xlink:href="#DejaVuSans-6f" x="1222.859375"/>
      <use xlink:href="#DejaVuSans-63" x="1284.041016"/>
      <use xlink:href="#DejaVuSans-61" x="1339.021484"/>
      <use xlink:href="#DejaVuSans-6c" x="1400.300781"/>
      <use xlink:href="#DejaVuSans-20" x="1428.083984"/>
      <use xlink:href="#DejaVuSans-53" x="1459.871094"/>
      <use xlink:href="#DejaVuSans-45" x="1523.347656"/>
      <use xlink:href="#DejaVuSans-4d" x="1586.53125"/>
     </g>
    </g>
    <g id="line2d_31">
     <path d="M 267.734031 49.39225
L 276.934031 49.39225
L 286.134031 49.39225
" style="fill: none; stroke: #d9534f; stroke-width: 2.5; stroke-linecap: square"/>
    </g>
    <g id="text_25">
     <!-- TRSD · mean ± local SEM -->
     <g transform="translate(293.494031 52.61225) scale(0.092 -0.092)">
      <defs>
       <path id="DejaVuSans-54" d="M -19 4666
L 3928 4666
L 3928 4134
L 2272 4134
L 2272 0
L 1638 0
L 1638 4134
L -19 4134
L -19 4666
z
" transform="scale(0.015625)"/>
       <path id="DejaVuSans-52" d="M 2841 2188
Q 3044 2119 3236 1894
Q 3428 1669 3622 1275
L 4263 0
L 3584 0
L 2988 1197
Q 2756 1666 2539 1819
Q 2322 1972 1947 1972
L 1259 1972
L 1259 0
L 628 0
L 628 4666
L 2053 4666
Q 2853 4666 3247 4331
Q 3641 3997 3641 3322
Q 3641 2881 3436 2590
Q 3231 2300 2841 2188
z
M 1259 4147
L 1259 2491
L 2053 2491
Q 2509 2491 2742 2702
Q 2975 2913 2975 3322
Q 2975 3731 2742 3939
Q 2509 4147 2053 4147
L 1259 4147
z
" transform="scale(0.015625)"/>
      </defs>
      <use xlink:href="#DejaVuSans-54"/>
      <use xlink:href="#DejaVuSans-52" x="61.083984"/>
      <use xlink:href="#DejaVuSans-53" x="130.566406"/>
      <use xlink:href="#DejaVuSans-44" x="194.042969"/>
      <use xlink:href="#DejaVuSans-20" x="271.044922"/>
      <use xlink:href="#DejaVuSans-b7" x="302.832031"/>
      <use xlink:href="#DejaVuSans-20" x="334.619141"/>
      <use xlink:href="#DejaVuSans-6d" x="366.40625"/>
      <use xlink:href="#DejaVuSans-65" x="463.818359"/>
      <use xlink:href="#DejaVuSans-61" x="525.341797"/>
      <use xlink:href="#DejaVuSans-6e" x="586.621094"/>
      <use xlink:href="#DejaVuSans-20" x="650"/>
      <use xlink:href="#DejaVuSans-b1" x="681.787109"/>
      <use xlink:href="#DejaVuSans-20" x="765.576172"/>
      <use xlink:href="#DejaVuSans-6c" x="797.363281"/>
      <use xlink:href="#DejaVuSans-6f" x="825.146484"/>
      <use xlink:href="#DejaVuSans-63" x="886.328125"/>
      <use xlink:href="#DejaVuSans-61" x="941.308594"/>
      <use xlink:href="#DejaVuSans-6c" x="1002.587891"/>
      <use xlink:href="#DejaVuSans-20" x="1030.371094"/>
      <use xlink:href="#DejaVuSans-53" x="1062.158203"/>
      <use xlink:href="#DejaVuSans-45" x="1125.634766"/>
      <use xlink:href="#DejaVuSans-4d" x="1188.818359"/>
     </g>
    </g>
   </g>
  </g>
 </g>
 <defs>
  <clipPath id="pa7e218e853">
   <rect x="45.544219" y="23.837812" width="410.13" height="252.252"/>
  </clipPath>
 </defs>
</svg>
